<svg width="178" height="50" viewBox="0 0 178 50" fill="none" xmlns="http://www.w3.org/2000/svg">
  <g id="Artwork">
    <g id="Group">
      <path id="Vector"
        d="M49.8485 49.5376H60.926V16.5125H49.8485V49.5376ZM66.4647 11.0084H94.1583V0H66.4647V11.0084ZM49.8485 0H60.926V11.0084H49.8485V0ZM33.2324 49.5376H44.3098V0H33.2324V49.5376ZM16.6162 38.5293H27.6936V0H16.6162V38.5293ZM0 49.5376H11.0775V0H0V49.5376ZM66.4647 49.5376H77.5422V16.5125H66.4647V49.5376Z"
        fill="black" />
      <g id="Group_2">
        <path id="Vector_2"
          d="M109.378 41.6852L104.527 34.7279H109.03L111.673 38.9716H111.731L114.229 34.7279H118.325L113.706 41.6563L119.022 49.5376H114.316L111.557 44.6299H111.499L108.274 49.5376H103.946L109.378 41.6852Z"
          fill="black" />
        <path id="Vector_3"
          d="M120.852 28.897H129.973C132.385 28.897 134.186 29.5898 135.405 30.831C136.567 32.0144 137.264 33.6313 137.264 35.5364C137.264 39.4333 134.679 42.0609 130.322 42.0609H125.209V49.5376H120.851V28.897H120.852ZM125.209 38.6545H129.567C131.775 38.6545 132.937 37.4422 132.937 35.5653C132.937 33.6313 131.717 32.5339 129.625 32.5339H125.209V38.6545Z"
          fill="black" />
        <path id="Vector_4"
          d="M147.141 41.5697H143.713V49.5376H139.355V28.897H148.477C150.888 28.897 152.689 29.5898 153.909 30.831C155.071 32.0144 155.768 33.4579 155.768 35.3059C155.768 38.1928 154.257 40.2136 151.643 41.0798L156.843 49.5376H151.963L147.141 41.5697ZM143.713 38.1633H148.071C150.279 38.1633 151.44 37.1526 151.44 35.3341C151.44 33.4579 150.22 32.5339 148.129 32.5339H143.713V38.1633Z"
          fill="black" />
        <path id="Vector_5"
          d="M157.483 39.2607C157.483 33.0829 161.375 28.4924 167.505 28.4924C173.635 28.4924 177.498 33.0822 177.498 39.2607C177.498 45.4384 173.635 50 167.505 50C161.375 49.9993 157.483 45.4384 157.483 39.2607ZM173.198 39.2607C173.198 35.1325 171.339 31.9277 167.534 31.9277C163.728 31.9277 161.782 35.1319 161.782 39.2607C161.782 43.3599 163.728 46.5647 167.534 46.5647C171.339 46.5647 173.198 43.3599 173.198 39.2607Z"
          fill="black" />
      </g>
    </g>
  </g>
</svg>
