<?xml version="1.0" encoding="UTF-8" standalone="no"?>
<!-- Created with Inkscape (http://www.inkscape.org/) -->

<svg
   width="82.094681mm"
   height="14.29637mm"
   viewBox="0 0 82.09468 14.29637"
   version="1.1"
   id="svg1"
   xmlns="http://www.w3.org/2000/svg"
   xmlns:svg="http://www.w3.org/2000/svg">
  <defs
     id="defs1" />
  <g
     id="layer1"
     transform="translate(-50.262577,-137.2586)">
    <path
       d="m 77.7875,147.87551 c 0,-1.50267 0.935977,-2.61926 2.410035,-2.61926 1.473893,0 2.403057,1.11642 2.403057,2.61926 0,1.5027 -0.929005,2.61226 -2.403057,2.61226 -1.474058,-1.9e-4 -2.410035,-1.10956 -2.410035,-2.61226 z m 3.779206,0 c 0,-1.00412 -0.447014,-1.78366 -1.362178,-1.78366 -0.915168,0 -1.383155,0.77937 -1.383155,1.78366 0,0.99711 0.467987,1.77665 1.383155,1.77665 0.915164,0 1.362178,-0.77954 1.362178,-1.77665 z"
       fill="#000000"
       id="path1"
       style="stroke-width:0.264583" />
    <path
       d="m 83.075413,146.77296 h 0.915167 v 0.44935 h 0.02098 c 0.230584,-0.31597 0.56589,-0.54776 1.05484,-0.54776 0.949987,0 1.557814,0.77937 1.557814,1.90301 0,1.16562 -0.62865,1.90299 -1.550802,1.90299 -0.502973,0 -0.831268,-0.20368 -1.033886,-0.51261 h -0.01397 v 1.58703 h -0.94996 v -4.78201 z m 2.584688,1.8327 c 0,-0.68112 -0.237569,-1.1586 -0.824257,-1.1586 -0.593857,0 -0.831267,0.51262 -0.831267,1.1586 0,0.65301 0.300328,1.08145 0.866219,1.08145 0.481965,0 0.789305,-0.40031 0.789305,-1.08145 z"
       fill="#000000"
       id="path2"
       style="stroke-width:0.264583" />
    <path
       d="m 86.889143,148.57068 c 0,-1.06739 0.719535,-1.89597 1.767391,-1.89597 1.152577,0 1.767416,0.88481 1.767416,2.16976 h -2.598658 c 0.0699,0.55478 0.377243,0.89887 0.915167,0.89887 0.370258,0 0.586846,-0.16854 0.691568,-0.44233 h 0.93599 c -0.132688,0.63897 -0.698579,1.1797 -1.620573,1.1797 -1.187714,-1.6e-4 -1.858301,-0.83577 -1.858301,-1.91003 z m 0.950119,-0.38627 h 1.592765 c -0.02797,-0.45636 -0.328295,-0.77233 -0.761338,-0.77233 -0.503105,-1.7e-4 -0.747686,0.30191 -0.831427,0.77233 z"
       fill="#000000"
       id="path3"
       style="stroke-width:0.264583" />
    <path
       d="m 91.792904,147.26448 h 0.02098 c 0.244581,-0.38626 0.572876,-0.58993 1.061852,-0.58993 0.740516,0 1.236477,0.56181 1.236477,1.3482 v 2.35252 h -0.94996 v -2.21192 c 0,-0.38626 -0.223599,-0.66005 -0.621665,-0.66005 -0.419047,0 -0.726545,0.33705 -0.726545,0.82857 v 2.0434 h -0.94996 v -3.60231 h 0.929005 v 0.49152 z"
       fill="#000000"
       id="path4"
       style="stroke-width:0.264583" />
    <path
       d="m 94.559097,147.88255 c 0,-1.48863 0.921993,-2.6263 2.39604,-2.6263 1.229492,0 1.955853,0.73736 2.06076,1.69229 h -1.005919 c -0.09089,-0.50558 -0.467995,-0.83561 -1.054841,-0.83561 -0.922152,0 -1.362181,0.77252 -1.362181,1.76962 0,1.02521 0.530913,1.76257 1.369166,1.76257 0.593698,0 1.012904,-0.35814 1.075822,-0.88479 h 0.991923 c -0.02797,0.44231 -0.216588,0.87075 -0.551894,1.18671 -0.342292,0.323 -0.824257,0.53369 -1.515851,0.53369 -1.404117,-1.6e-4 -2.403025,-1.08847 -2.403025,-2.59818 z"
       fill="#000000"
       id="path5"
       style="stroke-width:0.264583" />
    <path
       d="m 99.337472,148.57772 c 0,-1.07443 0.761498,-1.90301 1.872138,-1.90301 1.11062,0 1.87211,0.82858 1.87211,1.90301 0,1.07442 -0.76134,1.90299 -1.87211,1.90299 -1.11064,-1.6e-4 -1.872138,-0.82876 -1.872138,-1.90299 z m 2.780298,0 c 0,-0.70223 -0.3283,-1.1797 -0.90816,-1.1797 -0.58687,0 -0.90818,0.47747 -0.90818,1.1797 0,0.7022 0.32131,1.17266 0.90818,1.17266 0.57986,0 0.90816,-0.47062 0.90816,-1.17266 z"
       fill="#000000"
       id="path6"
       style="stroke-width:0.264583" />
    <path
       d="m 105.78463,150.37537 v -0.4214 h -0.0209 c -0.24447,0.33004 -0.52387,0.51964 -1.02684,0.51964 -0.79627,0 -1.24347,-0.5126 -1.24347,-1.29899 v -2.40156 h 0.9429 v 2.24005 c 0,0.42141 0.18865,0.65302 0.59399,0.65302 0.44688,0 0.7194,-0.33705 0.7194,-0.81452 v -2.07855 h 0.95012 v 3.60231 z"
       fill="#000000"
       id="path7"
       style="stroke-width:0.264583" />
    <path
       d="m 108.22938,147.34895 h 0.0209 c 0.21643,-0.40734 0.4609,-0.61787 0.88027,-0.61787 0.10451,0 0.16748,0.007 0.22357,0.0281 v 0.8356 h -0.0212 c -0.6215,-0.0633 -1.06865,0.26678 -1.06865,1.02523 v 1.75538 h -0.95012 v -3.60232 h 0.9152 z"
       fill="#000000"
       id="path8"
       style="stroke-width:0.264583" />
    <path
       d="m 109.54303,149.20965 h 0.88001 c 0.063,0.41436 0.35639,0.59695 0.78237,0.59695 0.4191,0 0.6567,-0.1615 0.6567,-0.41436 0,-0.34409 -0.45403,-0.37923 -0.94298,-0.47747 -0.64267,-0.12637 -1.27132,-0.30192 -1.27132,-1.08849 0,-0.77937 0.64267,-1.15157 1.45997,-1.15157 0.94297,0 1.46685,0.47044 1.5367,1.19374 h -0.8591 c -0.0421,-0.38625 -0.28655,-0.52666 -0.69162,-0.52666 -0.37016,0 -0.61463,0.14041 -0.61463,0.40031 0,0.30894 0.47493,0.33706 0.98478,0.44231 0.60087,0.12637 1.26444,0.29488 1.26444,1.13753 0,0.72331 -0.61463,1.15861 -1.50865,1.15861 -1.04087,0 -1.62084,-0.5056 -1.67667,-1.2709 z"
       fill="#000000"
       id="path9"
       style="stroke-width:0.264583" />
    <path
       d="m 113.0141,148.57068 c 0,-1.06739 0.71967,-1.89597 1.76742,-1.89597 1.15252,0 1.76741,0.88481 1.76741,2.16976 h -2.59873 c 0.0701,0.55478 0.37729,0.89887 0.91519,0.89887 0.37042,0 0.58685,-0.16854 0.69162,-0.44233 h 0.9361 c -0.13282,0.63897 -0.69877,1.1797 -1.62058,1.1797 -1.18771,-1.6e-4 -1.85843,-0.83577 -1.85843,-1.91003 z m 0.95012,-0.38627 h 1.59279 c -0.028,-0.45636 -0.32835,-0.77233 -0.7612,-0.77233 -0.50324,-1.7e-4 -0.74772,0.30191 -0.83159,0.77233 z"
       fill="#000000"
       id="path10"
       style="stroke-width:0.264583" />
    <path
       d="m 116.71615,145.35454 h 1.03399 l 0.64956,2.49276 c 0.0979,0.42842 0.21669,1.09551 0.21669,1.09551 h 0.014 c 0,0 0.12568,-0.62491 0.23045,-1.0674 l 0.54478,-2.52087 h 0.9779 l 0.54504,2.51385 c 0.10451,0.44231 0.23045,1.07442 0.23045,1.07442 h 0.014 c 0,0 0.14658,-0.66709 0.24447,-1.10254 l 0.62865,-2.48573 h 0.9988 l -1.42504,5.02065 h -0.94298 l -0.60774,-2.68939 c -0.0839,-0.36517 -0.17463,-0.89184 -0.17463,-0.89184 h -0.014 c 0,0 -0.0767,0.52667 -0.1606,0.89184 l -0.61463,2.68939 h -0.9361 z"
       fill="#000000"
       id="path11"
       style="stroke-width:0.264583" />
    <path
       d="m 125.14789,149.97498 h -0.014 c -0.1815,0.27379 -0.44,0.48448 -1.05463,0.48448 -0.73369,0 -1.25068,-0.38624 -1.25068,-1.10252 0,-0.79343 0.64267,-1.04632 1.43933,-1.15861 0.59346,-0.0844 0.86598,-0.13338 0.86598,-0.40734 0,-0.25974 -0.20241,-0.42826 -0.6006,-0.42826 -0.44689,0 -0.66358,0.1615 -0.69162,0.50559 h -0.84508 c 0.0278,-0.63194 0.49583,-1.18673 1.54384,-1.18673 1.0758,0 1.50865,0.4845 1.50865,1.32714 v 1.83269 c 0,0.27379 0.0421,0.43529 0.12568,0.49855 v 0.0351 h -0.91493 c -0.0558,-0.0701 -0.0907,-0.23863 -0.11192,-0.40013 z m 0.007,-0.87074 v -0.54073 c -0.16775,0.0984 -0.42598,0.15446 -0.66358,0.21069 -0.49609,0.11228 -0.74057,0.22476 -0.74057,0.56181 0,0.33705 0.22358,0.45638 0.5588,0.45638 0.54504,0 0.84535,-0.33705 0.84535,-0.68815 z"
       fill="#000000"
       id="path12"
       style="stroke-width:0.264583" />
    <path
       d="m 127.5646,147.34895 h 0.0209 c 0.21669,-0.40734 0.4609,-0.61787 0.88027,-0.61787 0.10451,0 0.16748,0.007 0.22357,0.0281 v 0.8356 h -0.0212 c -0.6215,-0.0633 -1.06865,0.26678 -1.06865,1.02523 v 1.75538 h -0.95012 v -3.60232 h 0.9152 z"
       fill="#000000"
       id="path13"
       style="stroke-width:0.264583" />
    <path
       d="m 128.82243,148.57068 c 0,-1.06739 0.7194,-1.89597 1.76741,-1.89597 1.15253,0 1.76742,0.88481 1.76742,2.16976 h -2.59874 c 0.0699,0.55478 0.3773,0.89887 0.9152,0.89887 0.37015,0 0.58684,-0.16854 0.69162,-0.44233 h 0.93583 c -0.13256,0.63897 -0.6985,1.1797 -1.62058,1.1797 -1.18771,-1.6e-4 -1.85816,-0.83577 -1.85816,-1.91003 z m 0.95011,-0.38627 h 1.5928 c -0.0281,-0.45636 -0.32835,-0.77233 -0.76147,-0.77233 -0.50298,-1.7e-4 -0.74772,0.30191 -0.83133,0.77233 z"
       fill="#000000"
       id="path14"
       style="stroke-width:0.264583" />
    <path
       id="Vector"
       d="m 63.433857,150.48777 h 2.92695 v -8.81944 h -2.92695 z m 4.39044,-10.28936 h 7.31737 v -2.93981 h -7.31737 z m -4.39044,-2.93981 h 2.92695 v 2.93981 h -2.92695 z m -4.39042,13.22917 h 2.92695 V 137.2586 h -2.92695 z m -4.39044,-2.93981 h 2.92695 V 137.2586 h -2.92695 z m -4.39042,2.93981 h 2.92695 V 137.2586 h -2.92695 z m 17.56172,0 h 2.92695 v -8.81944 h -2.92695 z"
       fill="#000000"
       style="stroke-width:0.264583" />
  </g>
</svg>
