<svg xmlns="http://www.w3.org/2000/svg" width="207" height="24" viewBox="0 0 207 24" fill="none">
  <path
    d="M0.538086 10.0935C0.538086 4.4141 4.07564 0.193909 9.64688 0.193909C15.2175 0.193909 18.7293 4.41347 18.7293 10.0935C18.7293 15.773 15.2181 19.9666 9.64688 19.9666C4.07564 19.9659 0.538086 15.773 0.538086 10.0935ZM14.8217 10.0935C14.8217 6.29839 13.1322 3.3521 9.67331 3.3521C6.21441 3.3521 4.44564 6.29776 4.44564 10.0935C4.44564 13.8621 6.21441 16.8084 9.67331 16.8084C13.1322 16.8084 14.8217 13.8621 14.8217 10.0935Z"
    fill="black" />
  <path
    d="M20.5239 5.92637H23.9828V7.62469H24.0621C24.9336 6.43049 26.2009 5.55444 28.0489 5.55444C31.6394 5.55444 33.9367 8.5001 33.9367 12.7469C33.9367 17.1524 31.5607 19.9393 28.0754 19.9393C26.1744 19.9393 24.9336 19.1695 24.1678 18.0019H24.115V24.0001H20.5246V5.92637H20.5239ZM30.2928 12.8531C30.2928 10.2788 29.3949 8.47417 27.1775 8.47417C24.933 8.47417 24.0357 10.4116 24.0357 12.8531C24.0357 15.3212 25.1708 16.9405 27.3096 16.9405C29.1312 16.9405 30.2928 15.4275 30.2928 12.8531Z"
    fill="black" />
  <path
    d="M34.938 12.7209C34.938 8.68667 37.6575 5.55505 41.6179 5.55505C45.9741 5.55505 48.2979 8.89921 48.2979 13.7557H38.4762C38.7404 15.8525 39.902 17.153 41.9351 17.153C43.3345 17.153 44.1531 16.516 44.5489 15.4812H48.0865C47.585 17.8962 45.4462 19.9399 41.9615 19.9399C37.4725 19.9393 34.938 16.7811 34.938 12.7209ZM38.529 11.261H44.5489C44.4432 9.53616 43.3081 8.34195 41.6714 8.34195C39.7699 8.34132 38.8455 9.48302 38.529 11.261Z"
    fill="black" />
  <path
    d="M53.4719 7.78409H53.5512C54.4756 6.32422 55.7164 5.55444 57.5645 5.55444C60.3633 5.55444 62.2378 7.67782 62.2378 10.65V19.5414H58.6474V11.1814C58.6474 9.72151 57.8023 8.6867 56.2978 8.6867C54.714 8.6867 53.5518 9.9606 53.5518 11.8183V19.5414H49.9614V5.92637H53.4726V7.78409H53.4719Z"
    fill="black" />
  <path
    d="M63.9268 10.1201C63.9268 4.4938 67.4115 0.193909 72.9827 0.193909C77.6296 0.193909 80.3749 2.9808 80.7714 6.58998H76.9695C76.626 4.67913 75.2007 3.43179 72.9827 3.43179C69.4974 3.43179 67.8343 6.35152 67.8343 10.1201C67.8343 13.9949 69.8409 16.7818 73.0091 16.7818C75.253 16.7818 76.8374 15.4282 77.0752 13.4377H80.8242C80.7185 15.1094 80.0056 16.7287 78.7383 17.9229C77.4446 19.1437 75.623 19.94 73.0091 19.94C67.7022 19.9394 63.9268 15.8261 63.9268 10.1201Z"
    fill="black" />
  <path
    d="M81.9868 12.7475C81.9868 8.68668 84.8649 5.55505 89.0626 5.55505C93.2602 5.55505 96.1383 8.68668 96.1383 12.7475C96.1383 16.8083 93.2608 19.9399 89.0626 19.9399C84.8649 19.9393 81.9868 16.8076 81.9868 12.7475ZM92.495 12.7475C92.495 10.0934 91.2542 8.28882 89.0626 8.28882C86.8445 8.28882 85.6301 10.0934 85.6301 12.7475C85.6301 15.4015 86.8445 17.1796 89.0626 17.1796C91.2542 17.1796 92.495 15.4009 92.495 12.7475Z"
    fill="black" />
  <path
    d="M106.354 19.5418V17.9491H106.275C105.351 19.1965 104.295 19.9131 102.394 19.9131C99.3845 19.9131 97.6943 17.9757 97.6943 15.0035V5.92676H101.258V14.3931C101.258 15.9858 101.971 16.8612 103.503 16.8612C105.192 16.8612 106.222 15.5873 106.222 13.7827V5.92676H109.813V19.5418H106.354Z"
    fill="black" />
  <path
    d="M115.594 8.10334H115.673C116.491 6.56378 117.415 5.76807 119 5.76807C119.395 5.76807 119.633 5.79463 119.845 5.87433V9.03252H119.765C117.416 8.79342 115.726 10.0408 115.726 12.9074V19.5419H112.135V5.92683H115.594V8.10334H115.594Z"
    fill="black" />
  <path
    d="M120.559 15.1359H123.885C124.123 16.702 125.232 17.3921 126.842 17.3921C128.426 17.3921 129.324 16.7817 129.324 15.826C129.324 14.5255 127.608 14.3927 125.76 14.0214C123.331 13.5438 120.955 12.8803 120.955 9.90744C120.955 6.96178 123.384 5.55505 126.473 5.55505C130.037 5.55505 132.017 7.33308 132.281 10.0668H129.034C128.875 8.60698 127.951 8.07629 126.42 8.07629C125.021 8.07629 124.097 8.60698 124.097 9.58928C124.097 10.7569 125.892 10.8632 127.819 11.261C130.09 11.7386 132.598 12.3755 132.598 15.5603C132.598 18.2941 130.275 19.9393 126.896 19.9393C122.962 19.9393 120.77 18.0284 120.559 15.1359Z"
    fill="black" />
  <path
    d="M133.678 12.7209C133.678 8.68667 136.398 5.55505 140.358 5.55505C144.714 5.55505 147.038 8.89921 147.038 13.7557H137.216C137.481 15.8525 138.642 17.153 140.675 17.153C142.075 17.153 142.893 16.516 143.289 15.4812H146.827C146.325 17.8962 144.186 19.9399 140.702 19.9399C136.213 19.9393 133.678 16.7811 133.678 12.7209ZM137.269 11.261H143.289C143.183 9.53616 142.048 8.34195 140.412 8.34195C138.51 8.34132 137.586 9.48302 137.269 11.261Z"
    fill="black" />
  <path
    d="M147.67 0.56543H151.578L154.033 9.98686C154.403 11.6061 154.852 14.1274 154.852 14.1274H154.905C154.905 14.1274 155.38 11.7655 155.776 10.0931L157.835 0.56543H161.531L163.591 10.0666C163.986 11.7383 164.462 14.1274 164.462 14.1274H164.515C164.515 14.1274 165.069 11.6061 165.439 9.9603L167.815 0.56543H171.59L166.204 19.5411H162.64L160.343 9.37648C160.026 7.99631 159.683 6.00576 159.683 6.00576H159.63C159.63 6.00576 159.34 7.99631 159.023 9.37648L156.7 19.5411H153.162L147.67 0.56543Z"
    fill="black" />
  <path
    d="M179.538 18.0285H179.485C178.799 19.0633 177.822 19.8596 175.499 19.8596C172.726 19.8596 170.772 18.3998 170.772 15.6926C170.772 12.6938 173.201 11.738 176.212 11.3136C178.455 10.9948 179.485 10.8095 179.485 9.77405C179.485 8.79237 178.72 8.15542 177.215 8.15542C175.526 8.15542 174.707 8.76581 174.601 10.0663H171.407C171.512 7.67787 173.281 5.58105 177.242 5.58105C181.308 5.58105 182.944 7.41221 182.944 10.597V17.5237C182.944 18.5585 183.103 19.1689 183.419 19.408V19.5408H179.961C179.75 19.2758 179.618 18.6389 179.538 18.0285ZM179.565 14.7375V12.6938C178.931 13.0657 177.955 13.2776 177.057 13.4901C175.182 13.9145 174.258 14.3396 174.258 15.6135C174.258 16.8874 175.103 17.3384 176.37 17.3384C178.43 17.3384 179.565 16.0645 179.565 14.7375Z"
    fill="black" />
  <path
    d="M188.672 8.10334H188.751C189.57 6.56378 190.493 5.76807 192.078 5.76807C192.473 5.76807 192.711 5.79463 192.923 5.87433V9.03252H192.843C190.494 8.79342 188.804 10.0408 188.804 12.9074V19.5419H185.213V5.92683H188.672V8.10334H188.672Z"
    fill="black" />
  <path
    d="M193.426 12.7209C193.426 8.68667 196.145 5.55505 200.106 5.55505C204.462 5.55505 206.786 8.89921 206.786 13.7557H196.964C197.228 15.8525 198.39 17.153 200.423 17.153C201.822 17.153 202.641 16.516 203.037 15.4812H206.574C206.073 17.8962 203.934 19.9399 200.449 19.9399C195.96 19.9393 193.426 16.7811 193.426 12.7209ZM197.017 11.261H203.037C202.931 9.53616 201.796 8.34195 200.159 8.34195C198.258 8.34132 197.333 9.48302 197.017 11.261Z"
    fill="black" />
</svg>
