<?xml version="1.0" encoding="UTF-8" standalone="no"?>
<!-- Created with Inkscape (http://www.inkscape.org/) -->

<svg
   width="158.75mm"
   height="20.902084mm"
   viewBox="0 0 158.75 20.902084"
   version="1.1"
   id="svg1"
   xml:space="preserve"
   xmlns="http://www.w3.org/2000/svg"
   xmlns:svg="http://www.w3.org/2000/svg"><defs
     id="defs1" /><g
     id="layer1"
     transform="translate(-25.532291,-138.1125)"><path
       style="fill:#000000"
       d="m 25.800344,158.41927 c 0.0019,-0.1819 0.814119,-4.67651 1.804915,-9.98802 l 1.801446,-9.65729 3.04681,-0.0742 3.046811,-0.0742 1.93769,4.70438 c 1.06573,2.58741 2.019324,4.7992 2.119098,4.9151 l 0.181408,0.21072 2.064024,-4.90708 2.064024,-4.90707 h 2.984936 2.984935 l 0.283494,1.38906 c 0.155922,0.76399 0.57995,2.99641 0.942285,4.96094 l 0.65879,3.57187 0.0025,5.09323 0.0025,5.09323 H 49.759465 47.79292 l -0.138726,-0.46302 c -0.0763,-0.25466 -0.5055,-2.48708 -0.953779,-4.96094 -0.448279,-2.47385 -0.856656,-4.61697 -0.907504,-4.7625 l -0.09245,-0.26458 -0.654994,1.45521 c -0.360247,0.80036 -1.401519,3.15732 -2.313938,5.23768 l -1.658944,3.78247 -1.45305,-0.0783 -1.453049,-0.0783 -2.161184,-4.95015 c -1.188651,-2.72258 -2.230458,-5.01942 -2.315127,-5.10409 l -0.153943,-0.15394 -0.83389,4.44263 c -0.458639,2.44345 -0.899774,4.77006 -0.980299,5.17024 l -0.146411,0.7276 h -2.889394 -2.889394 z m 26.719447,-9.72343 v -10.05417 h 2.910417 2.910417 V 148.69584 158.75 h -2.910417 -2.910417 z m 9.260417,2.38125 v -7.67292 h -1.322917 -1.322916 v -2.38125 -2.38125 h 7.805208 7.805208 v 2.38125 2.38125 h -3.439583 -3.439583 v 7.67292 7.67291 h -3.042709 -3.042708 z m 17.4625,4.23333 v -3.175 h 1.719792 1.719791 v 0.26458 0.26459 h -1.322916 -1.322917 v 0.92604 0.92604 h 1.322917 1.322916 v 0.39687 0.39688 h -1.322916 -1.322917 v 1.19062 1.19063 h 1.322917 1.322916 v 0.39687 0.39688 H 80.9625 79.242708 Z m 5.31757,2.18281 c 0.329025,-0.5457 0.755455,-1.22704 0.947621,-1.51408 0.505363,-0.75487 0.442105,-1.12099 -0.441912,-2.5577 l -0.791304,-1.28603 h 0.508891 0.508891 l 0.154494,0.46302 c 0.08497,0.25466 0.377404,0.75213 0.649852,1.10549 l 0.495359,0.64247 0.56398,-1.10549 0.563979,-1.10549 h 0.391498 c 0.542327,0 0.503346,0.15657 -0.407551,1.63697 l -0.799048,1.29862 0.93134,1.58909 c 1.058593,1.80621 1.064451,1.82532 0.559606,1.82532 H 88.02424 l -0.697752,-1.19063 c -0.383764,-0.65484 -0.784518,-1.19062 -0.890563,-1.19062 -0.106046,0 -0.485493,0.53578 -0.843217,1.19062 l -0.650406,1.19063 H 84.452176 83.96205 Z m 5.79493,-2.18281 v -3.175 H 92.075 93.794791 v 0.26458 0.26459 h -1.322916 -1.322917 v 0.92604 0.92604 h 1.322917 1.322916 v 0.39687 0.39688 h -1.322916 -1.322917 v 1.19062 1.19063 h 1.322917 1.322916 v 0.39687 0.39688 H 92.075 90.355208 Z m 6.551764,2.76082 -0.724279,-0.39299 -0.400201,-0.7739 -0.400201,-0.7739 v -1.06227 -1.06226 l 0.813962,-0.92706 0.813961,-0.92705 0.885147,-0.16605 0.885146,-0.16606 0.814434,0.17888 0.814429,0.17888 v 0.51746 0.51745 l -0.511768,-0.27389 -0.511772,-0.27389 h -0.919916 -0.919916 l -0.684978,0.81405 -0.684979,0.81405 v 1.02328 1.02327 l 0.626408,0.72825 0.626408,0.72824 1.027238,0.003 c 0.564981,0.002 1.235597,-0.0941 1.490259,-0.21263 l 0.463016,-0.2155 v 0.39688 0.39687 l -0.41851,0.1606 c -0.230183,0.0883 -0.855261,0.15583 -1.389062,0.15001 l -0.970548,-0.0106 z m 6.208818,0.23709 c -0.18497,-0.0744 -0.51239,-0.47582 -0.72761,-0.89201 l -0.39131,-0.75671 v -2.26209 -2.2621 h 0.37134 0.37133 l 0.0917,2.53515 0.0917,2.53514 0.51359,0.37527 c 0.28247,0.2064 0.72896,0.37527 0.99218,0.37527 h 0.4786 l 0.52917,-0.52916 0.52916,-0.52917 v -2.38125 -2.38125 h 0.39688 0.39687 v 2.52557 2.52557 l -0.64943,0.64943 -0.64943,0.64943 -1.00421,-0.0209 c -0.55232,-0.0115 -1.15555,-0.0818 -1.34051,-0.1562 z m 6.554,-2.73333 v -2.91041 h -0.79375 -0.79375 V 152.4 152.13542 h 1.98438 1.98437 v 0.26458 0.26459 h -0.79375 -0.79375 v 2.91041 2.91042 h -0.39687 -0.39688 z m 3.70417,-0.26458 v -3.175 h 0.39687 0.39688 v 3.175 3.175 h -0.39688 -0.39687 z m 3.737,0.33073 c -0.63467,-1.56435 -1.21208,-2.9931 -1.28315,-3.175 l -0.12922,-0.33073 h 0.40197 0.40196 l 0.88312,2.248 c 0.48571,1.2364 0.94264,2.248 1.0154,2.248 0.0728,0 0.52969,-1.0116 1.01541,-2.248 l 0.88311,-2.248 h 0.40197 0.40196 l -0.17463,0.46302 c -2.50457,6.64083 -2.3939,6.55263 -3.8179,3.04271 z m 5.52341,-0.33073 v -3.175 h 1.7198 1.71979 v 0.26458 0.26459 h -1.32292 -1.32292 v 0.92604 0.92604 h 1.32292 1.32292 v 0.39687 0.39688 h -1.32292 -1.32292 v 1.19062 1.19063 h 1.32292 1.32292 v 0.39687 0.39688 h -1.71979 -1.7198 z m 8.46667,0 v -3.175 h 1.71979 1.71979 v 0.26458 0.26459 h -1.32291 -1.32292 v 0.92604 0.92604 h 1.32292 1.32291 v 0.39687 0.39688 h -1.32291 -1.32292 v 1.19062 1.19063 h 1.32292 1.32291 v 0.39687 0.39688 h -1.71979 -1.71979 z m 5.29167,0 v -3.175 h 1.33605 1.33606 l 0.77613,0.40135 0.77613,0.40136 0.43042,0.83233 0.43042,0.83233 -0.13894,1.03581 -0.13893,1.03581 -0.48544,0.54514 c -0.26699,0.29984 -0.86857,0.70731 -1.33684,0.90551 l -0.8514,0.36036 h -1.06683 -1.06683 z m 3.45993,1.60785 0.7734,-0.7734 v -0.83149 -0.8315 l -0.28588,-0.53417 -0.28588,-0.53417 -0.89625,-0.37448 c -0.49293,-0.20596 -1.13819,-0.37447 -1.43391,-0.37447 h -0.53766 v 2.51354 2.51354 h 0.94639 0.9464 z m 3.70302,0.87001 -0.54837,-0.69714 v -2.47786 -2.47786 h 0.39688 0.39687 v 2.49854 2.49854 l 0.58804,0.41187 c 0.32342,0.22654 0.79103,0.41188 1.03913,0.41188 h 0.45109 l 0.54837,-0.69714 0.54837,-0.69714 v -2.21327 -2.21328 h 0.39688 0.39687 l -0.001,1.91823 -0.001,1.91823 -0.27468,0.98907 -0.27469,0.98908 -0.50019,0.26769 -0.5002,0.2677 h -1.05652 -1.05653 z m 7.08333,0.10051 c -0.38648,-0.3267 -0.83296,-0.85406 -0.99219,-1.17191 l -0.28951,-0.57792 v -1.06652 -1.06652 l 0.81396,-0.92706 0.81396,-0.92705 0.88515,-0.16605 0.88515,-0.16606 0.81443,0.17888 0.81443,0.17888 v 0.51746 0.51745 l -0.51177,-0.27389 -0.51177,-0.27389 h -0.89393 -0.89394 l -0.71096,0.74208 -0.71096,0.74208 v 1.09525 1.09524 l 0.62641,0.72825 0.62641,0.72824 1.02724,0.003 c 0.56498,0.002 1.23559,-0.0941 1.49025,-0.21263 l 0.46302,-0.2155 v 0.39688 0.39687 l -0.41851,0.1606 c -0.23018,0.0883 -0.91479,0.16001 -1.52135,0.15928 l -1.10284,-0.001 z m 5.75456,-1.45389 c 0.51562,-1.12779 1.18368,-2.61969 1.48458,-3.31535 0.3009,-0.69565 0.6033,-1.2086 0.67201,-1.13989 0.75555,0.75555 3.02474,6.50576 2.56735,6.50576 h -0.41064 l -0.2767,-0.79375 -0.27671,-0.79375 h -1.55482 -1.55482 l -0.41047,0.79375 -0.41046,0.79375 h -0.3834 -0.3834 z m 3.01114,-1.01 c -0.14205,-0.3736 -0.39287,-0.93078 -0.55738,-1.23818 l -0.29912,-0.55891 -0.48332,0.90745 c -0.26582,0.4991 -0.48831,1.05628 -0.49441,1.23818 l -0.0111,0.33073 h 1.05179 1.05178 z m 4.50468,0.1501 v -2.91041 h -0.79375 -0.79375 V 152.4 152.13542 h 1.98438 1.98437 v 0.26458 0.26459 h -0.79375 -0.79375 v 2.91041 2.91042 h -0.39687 -0.39688 z m 3.70417,-0.26458 v -3.175 h 0.39688 0.39687 v 3.175 3.175 h -0.39687 -0.39688 z m 3.74213,2.50488 -0.79639,-0.67012 -0.29397,-0.89074 -0.29397,-0.89074 0.18587,-0.75425 c 0.10223,-0.41483 0.3526,-1.01187 0.55639,-1.32676 l 0.37051,-0.57252 0.88439,-0.41966 0.88439,-0.41967 h 0.70076 0.70075 l 0.79231,0.40972 0.79232,0.40972 0.51647,0.84705 0.51648,0.84705 9.9e-4,0.75376 9.9e-4,0.75376 -0.43255,0.91154 -0.43256,0.91154 -0.74493,0.38522 -0.74493,0.38522 h -1.18347 -1.18346 z m 3.82495,-0.75863 0.89959,-0.89958 v -0.97286 -0.97285 l -0.7734,-0.7734 -0.7734,-0.77339 h -0.96379 -0.96378 l -0.50904,0.27242 -0.50903,0.27243 -0.42303,0.81805 -0.42303,0.81805 0.15976,0.85158 0.15976,0.85159 0.59126,0.5378 c 0.68824,0.62602 1.14675,0.81996 2.00678,0.84885 l 0.62177,0.0209 z m 3.28751,-1.94469 0.007,-3.37344 2.36309,2.51355 2.36308,2.51354 0.0115,-2.31511 0.0115,-2.3151 h 0.39687 0.39688 l -0.0101,3.24114 -0.0101,3.24115 -2.22761,-2.3151 c -1.22519,-1.27331 -2.29221,-2.31511 -2.37115,-2.31511 h -0.14354 v 2.24896 2.24896 h -0.39688 -0.39687 z m -49.01833,-6.51225 c -0.54438,-0.20298 -1.27492,-0.55588 -1.62341,-0.78422 l -0.63361,-0.41516 -0.55941,-1.15558 -0.55941,-1.15559 v -1.51246 -1.51246 l 0.35746,-0.85553 0.35747,-0.85554 0.9488,-0.83306 0.94881,-0.83306 1.40714,-0.31491 1.40715,-0.3149 1.1796,0.31763 1.17959,0.31763 1.06793,1.07659 1.06792,1.07658 -1.1528,0.50785 -1.15281,0.50786 -0.76899,-0.73674 -0.76899,-0.73674 h -0.91524 -0.91524 l -0.67314,0.63238 -0.67314,0.63239 -0.30202,1.00803 -0.30201,1.00803 0.31283,1.04414 0.31283,1.04414 0.69077,0.54336 0.69077,0.54336 h 1.02266 1.02265 l 0.52916,-0.52916 0.52917,-0.52917 v -0.39688 -0.39687 h -1.05833 -1.05834 v -0.92604 -0.92604 h 2.5504 2.5504 l -0.15884,1.34115 -0.15884,1.34116 -0.55281,0.89447 -0.55281,0.89446 -0.90792,0.56113 -0.90793,0.56112 -1.39384,0.11785 -1.39385,0.11785 z m -50.106266,-0.616 c 0.08232,-0.40871 0.453559,-2.40998 0.824969,-4.44727 0.37141,-2.03729 0.734034,-3.97206 0.805831,-4.29948 l 0.130539,-0.59531 1.25173,1.9e-4 1.25173,2e-4 0.920858,2.53541 c 0.506471,1.39447 0.999506,2.58401 1.095632,2.64342 l 0.174775,0.10802 1.037519,-2.57747 1.037518,-2.57748 h 1.29165 1.29165 l 0.864097,4.63021 c 0.475253,2.54661 0.868858,4.77904 0.874678,4.96094 l 0.01058,0.33073 h -1.292478 -1.292479 l -0.304047,-2.18282 c -0.167226,-1.20054 -0.371561,-2.522 -0.454079,-2.93656 l -0.150032,-0.75376 -0.197058,0.22459 c -0.108381,0.12352 -0.707152,1.45072 -1.330601,2.94933 l -1.133544,2.72475 -0.426935,-0.0822 -0.426934,-0.0822 -0.977125,-2.37794 c -0.537419,-1.30787 -1.039448,-2.61087 -1.11562,-2.89556 l -0.138496,-0.51761 -0.194159,0.19416 c -0.106788,0.10679 -0.385176,1.41128 -0.61864,2.89886 l -0.42448,2.7047 -1.268364,0.0816 -1.268363,0.0816 z m 14.291697,-0.94154 c 0.346303,-0.9095 1.208483,-3.17633 1.915956,-5.03739 l 1.286313,-3.38375 1.445953,0.0764 1.445953,0.0765 1.792974,4.7625 c 0.98614,2.61938 1.79397,4.8518 1.79519,4.96094 l 0.002,0.19844 h -1.20412 -1.20413 l -0.38693,-0.92605 -0.38692,-0.92604 h -1.927673 -1.927672 l -0.334861,0.92604 -0.334861,0.92605 h -1.303517 -1.303518 z m 5.71581,-2.26797 c 0,-0.34565 -0.845876,-2.80478 -1.039807,-3.02292 l -0.175723,-0.19766 -0.558893,1.71901 -0.558893,1.71902 h 1.166658 1.166658 z m 5.027079,-1.10547 v -5.02708 h 1.31131 1.3113 l 2.32672,3.02756 c 1.27969,1.66516 2.41601,3.03438 2.52515,3.04271 l 0.19844,0.0152 v -3.04271 -3.04271 h 1.19063 1.19062 v 5.02708 5.02709 h -1.1445 -1.14451 l -0.55355,-0.59532 c -0.30446,-0.32742 -1.43982,-1.75281 -2.52304,-3.16753 l -1.96947,-2.57222 -0.16892,0.16892 -0.16893,0.16892 v 2.99861 2.99862 h -1.19062 -1.19063 z m 11.2251,4.56407 c 0.0931,-0.25467 0.95568,-2.51685 1.91692,-5.02709 l 1.7477,-4.56406 h 1.39038 1.39037 l 0.18328,0.46302 c 0.10081,0.25466 0.87725,2.30849 1.72542,4.56406 0.84818,2.25558 1.62461,4.3094 1.72542,4.56407 l 0.18328,0.46302 h -1.33071 -1.3307 l -0.30562,-0.92605 -0.30562,-0.92604 h -1.94673 -1.94673 l -0.33486,0.92604 -0.33487,0.92605 h -1.29807 -1.29807 z m 6.17196,-3.57188 c -0.0671,-0.1819 -0.32757,-0.95581 -0.57874,-1.71979 -0.55923,-1.701 -0.53365,-1.701 -1.09288,0 -0.25117,0.76398 -0.51161,1.53789 -0.57874,1.71979 l -0.12206,0.33073 h 1.24724 1.24724 z m 16.20503,-0.99219 v -5.02708 h 2.77812 2.77813 v 0.91284 0.91284 l -1.52136,0.0793 -1.52135,0.0793 -0.0821,0.99219 -0.0821,0.99219 h 1.47118 1.47118 v 0.92604 0.92604 h -1.4552 -1.45521 v 1.05834 1.05833 h 1.5875 1.5875 v 1.05833 1.05834 h -2.77813 -2.77812 z m 6.7163,4.56407 c 0.16487,-0.55566 1.75036,-9.03657 1.75036,-9.3628 v -0.22835 h 1.28972 1.28971 l 0.99542,2.65375 0.99542,2.65376 0.15879,-0.15879 c 0.0873,-0.0873 0.59322,-1.25176 1.12417,-2.58761 l 0.96538,-2.42882 1.30447,-0.0783 1.30447,-0.0783 0.84872,4.70849 c 0.4668,2.58967 0.84591,4.86384 0.84248,5.05371 l -0.006,0.34523 -1.25677,-0.0806 -1.25677,-0.0807 -0.38802,-2.84427 -0.38802,-2.84427 h -0.16895 c -0.0929,0 -0.69996,1.27992 -1.34898,2.84427 l -1.18003,2.84427 h -0.47789 -0.47789 l -1.07851,-2.77812 c -0.59317,-1.52797 -1.11452,-2.82773 -1.15854,-2.88837 -0.20158,-0.27764 -0.36563,0.34028 -0.78884,2.97126 l -0.45482,2.82753 h -1.28811 -1.2881 z m 14.18578,-4.56407 v -5.02708 h 2.77813 2.77812 v 0.91284 0.91284 l -1.52135,0.0793 -1.52136,0.0793 v 0.92605 0.92604 l 1.52136,0.0794 1.52135,0.0794 v 0.89963 0.89964 l -1.52135,0.0793 -1.52136,0.0793 -0.0821,0.99219 -0.0821,0.99219 h 1.60347 1.60347 v 1.05833 1.05834 h -2.77812 -2.77813 z m 7.40833,0 v -5.02708 h 1.30479 1.30478 l 2.33324,3.03339 c 1.28328,1.66837 2.42253,3.03759 2.53167,3.04271 l 0.19844,0.009 v -3.04271 -3.04271 h 1.19063 1.19062 v 5.02708 5.02709 h -1.14112 -1.14113 l -0.66874,-0.72761 c -0.3678,-0.40018 -1.47153,-1.7694 -2.45271,-3.04271 -0.98118,-1.2733 -1.89315,-2.3151 -2.02659,-2.3151 h -0.24263 v 3.04271 3.04271 h -1.19062 -1.19063 z m 13.16992,0.99219 -0.073,-4.0349 -0.99219,-0.0821 -0.99219,-0.0821 v -0.91007 -0.91007 h 3.43959 3.43958 v 0.91083 0.91083 l -1.12448,0.0814 -1.12448,0.0813 -0.073,4.0349 -0.073,4.0349 h -1.17684 -1.17685 z"
       id="path1" /></g></svg>
