<svg width="509" height="431" viewBox="0 0 509 431" fill="none"
    xmlns="http://www.w3.org/2000/svg">
    <g clip-path="url(#clip0_181_5362)">
        <path opacity="0.4" d="M340.32 298.143H233.654L233.223 288.883L340.32 290.23V298.143Z" fill="#333333"/>
        <path fill-rule="evenodd" clip-rule="evenodd" d="M94.6074 278.97C92.2794 278.97 90.3831 277.074 90.3831 274.746C90.3831 272.418 92.2794 270.522 94.6074 270.522C96.9353 270.522 98.8316 272.418 98.8316 274.746C98.8316 277.074 96.9353 278.97 94.6074 278.97ZM94.6074 270.927C92.4887 270.927 90.7624 272.64 90.7624 274.746C90.7624 276.851 92.5018 278.591 94.6074 278.591C96.7129 278.591 98.4262 276.865 98.4262 274.746C98.4262 272.627 96.726 270.927 94.6074 270.927Z" fill="#4D4D4D"/>
        <path d="M146.567 298.143C146.567 299.49 145.455 300.601 144.108 300.601C142.761 300.601 141.649 299.49 141.649 298.143C141.649 296.796 142.761 295.684 144.108 295.684C145.455 295.684 146.567 296.796 146.567 298.143Z" fill="#8A86AE"/>
        <path d="M507.367 313.431L1.3078 236.845L507.471 312.672L507.367 313.431Z" stroke="#8B959E" stroke-width="1.01" stroke-miterlimit="10"/>
        <path d="M43.5633 237.133C43.4064 237.133 43.2364 237.028 43.2102 236.832L41.2616 227.835C41.2093 227.638 41.34 227.429 41.5362 227.403C41.7586 227.351 41.9416 227.481 41.994 227.678L43.9426 236.675C43.9949 236.885 43.8641 237.081 43.6418 237.133H43.5633Z" fill="#333333"/>
        <path d="M41.0131 225.323C40.83 225.323 40.6861 225.219 40.6338 225.023L39.6268 220.445C39.6006 220.223 39.7053 220.04 39.9276 219.988C40.1107 219.935 40.333 220.066 40.3592 220.288L41.3662 224.866C41.4185 225.075 41.2877 225.271 41.0916 225.323H41.0131Z" fill="#333333"/>
        <path d="M39.3653 217.856C39.1822 217.856 39.0383 217.725 38.986 217.555L30.2106 177.771C30.1582 177.562 30.289 177.366 30.4852 177.314C30.7075 177.261 30.8906 177.392 30.9429 177.614L39.7184 217.398C39.7707 217.594 39.6399 217.804 39.4437 217.83C39.4045 217.843 39.3783 217.856 39.3653 217.856Z" fill="#333333"/>
        <path d="M102.114 166.969H102.088L92.9072 166.393C92.7241 166.367 92.5541 166.21 92.5541 165.988C92.5802 165.805 92.7372 165.635 92.9595 165.635L102.14 166.197C102.323 166.223 102.493 166.38 102.493 166.603C102.467 166.786 102.31 166.956 102.114 166.956V166.969Z" fill="#333333"/>
        <path d="M90.0562 166.21H90.03L85.348 165.936C85.1257 165.909 84.9688 165.752 84.9949 165.53C84.9949 165.308 85.1911 165.151 85.3742 165.177L90.0823 165.478C90.2654 165.478 90.4354 165.661 90.4354 165.857C90.4093 166.066 90.2523 166.21 90.0562 166.21Z" fill="#333333"/>
        <path d="M82.3923 165.779H82.3662L41.6931 163.425C41.4708 163.398 41.34 163.241 41.34 163.019C41.3662 162.797 41.5362 162.666 41.7454 162.666L82.4185 165.02C82.6147 165.046 82.7716 165.216 82.7716 165.426C82.7455 165.609 82.5885 165.779 82.3923 165.779Z" fill="#333333"/>
        <path d="M227.704 324.194L302.445 312.934L304.969 303.622L163.15 280.474L164.942 312.921L227.717 324.207L227.704 324.194Z" fill="#CCCCCC"/>
        <path d="M226.697 320.506L303.06 310.593L302.432 312.921L227.56 324.05L226.697 320.506Z" fill="#CCCCCC"/>
        <path d="M357.544 290.583L380.535 221.4L337.861 131.605L294.232 130.062L281.586 132.874C261.249 137.373 247.086 154.218 236.518 171.088C222.407 193.596 209.12 216.64 195.571 239.487C193.164 243.581 173.612 281.193 171.363 280.723C171.363 280.723 229.26 292.388 254.527 245.49L256.449 264.44L257.483 274.733L357.544 290.57V290.583Z" fill="#A31F34"/>
        <path d="M253.507 222.996C253.507 222.996 248.093 252.081 240.233 263.826C240.233 263.826 249.819 255.299 254.069 246.327L253.507 222.982V222.996Z" fill="#750014"/>
        <path d="M276.747 266.023L257.77 270.705C256.41 270.705 255.063 270.482 253.768 270.077L246.968 266.101C245.425 265.186 243.724 264.558 241.933 264.375C238.598 264.022 235.25 264.728 232.32 266.402L216.156 275.857L217.32 283.39C216.692 285.561 216.94 287.863 217.974 289.864C218.732 291.303 220.223 292.192 221.818 292.192L279.519 292.271C283.286 292.271 287.262 289.694 287.889 285.967C288.922 280.095 296.037 269.855 285.666 266.363C284.554 265.983 277.95 266.036 276.76 266.036L276.747 266.023Z" fill="#F5AE8E"/>
        <path d="M291.394 114.708L269.24 46.689L251.1 49.1215L243.411 81.3461L261.092 116.631C259.627 118.449 258.738 120.724 258.738 123.209C258.738 129.055 263.642 133.803 269.698 133.803C271.084 133.803 272.405 133.554 273.621 133.096C275.465 136.405 279.088 138.615 283.234 138.615C286.045 138.615 288.622 137.582 290.57 135.882C290.845 135.895 291.107 135.908 291.381 135.908C297.449 135.908 302.354 131.174 302.354 125.315C302.354 119.456 297.449 114.695 291.381 114.695L291.394 114.708Z" fill="black"/>
        <path d="M291.264 125.328C291.264 125.328 306.238 139.897 337.926 98.9493C337.926 98.9493 365.194 62.9059 339.09 22.6644C338.332 21.5005 337.272 20.5196 336.03 19.9049C335.939 19.8526 335.834 19.8003 335.729 19.7742C302.341 3.25645 263.538 28.6281 264.623 66.1362C265.133 83.0855 270.849 104.887 291.264 125.328Z" fill="#F5AE8E"/>
        <path d="M291.878 104.664C289.929 104.664 288.622 103.932 288.19 103.095C287.758 102.232 287.706 101.12 288.059 100.192C291.224 92.201 288.517 88.6568 288.491 88.6306C288.36 88.4737 288.386 88.2252 288.543 88.1206C288.7 87.9898 288.922 88.0159 289.053 88.1729C289.184 88.3037 292.087 92.044 288.752 100.466C288.478 101.173 288.504 102.062 288.857 102.742C289.367 103.749 292.192 104.743 296.717 102.69C296.9 102.611 297.122 102.69 297.201 102.886C297.279 103.069 297.201 103.291 297.018 103.37C295.017 104.285 293.277 104.664 291.878 104.664Z" fill="#333333"/>
        <path d="M327.49 3.94959C324.534 3.94959 321.971 5.68898 320.689 8.22615C319.735 7.76841 318.688 7.51993 317.551 7.51993C314.189 7.51993 311.325 9.76937 310.318 12.882C309.181 12.2281 307.912 11.8488 306.526 11.8488C304.525 11.8488 302.733 12.6335 301.36 13.8759C300 12.6335 298.195 11.8488 296.22 11.8488C292.48 11.8488 289.367 14.5821 288.713 18.2179C286.791 15.6153 283.757 13.9151 280.291 13.9151C274.523 13.9151 269.815 18.7017 269.815 24.6392C269.815 25.2931 269.868 25.9078 269.972 26.5094H269.92C267.291 26.5094 264.963 27.8695 263.616 29.9228C262.452 29.1904 261.066 28.785 259.614 28.785C255.39 28.785 251.977 32.2769 251.977 36.5796C251.977 38.4236 252.631 40.1238 253.677 41.4839C251.1 42.2163 249.099 44.2695 248.393 46.8721C244.601 47.3298 241.684 50.6386 241.684 54.6143C241.684 55.2683 241.75 55.8829 241.893 56.4845C240.403 58.1847 239.487 60.3557 239.291 62.762C236.204 63.7691 233.929 66.7116 233.929 70.2035C233.929 73.6954 236.1 76.5464 239.108 77.5927C238.755 78.482 238.545 79.489 238.545 80.5483C238.545 82.1177 239.003 83.5825 239.788 84.7987C239.003 86.3158 238.545 88.0159 238.545 89.86C238.545 93.7573 240.599 97.1968 243.685 99.067C242.417 100.833 241.684 102.99 241.684 105.345C241.684 109.346 243.855 112.851 247.046 114.63C247.033 114.865 247.02 115.088 247.02 115.31C247.02 119.613 250.433 123.105 254.658 123.105C255.089 123.105 255.508 123.065 255.9 123C256.502 124.033 257.221 124.949 258.071 125.733C257.365 127.172 256.959 128.794 256.959 130.52C256.959 136.392 261.589 141.166 267.33 141.166C273.072 141.166 277.728 136.405 277.728 130.52C277.728 127.355 276.367 124.504 274.21 122.555C274.942 121.117 275.347 119.469 275.347 117.729C275.347 111.884 270.692 107.11 264.95 107.11C264.035 107.11 263.106 107.241 262.243 107.489C262.387 106.783 262.465 106.064 262.465 105.318C262.465 101.473 260.464 98.0861 257.456 96.216C258.751 94.4242 259.536 92.214 259.536 89.8207C259.536 85.6488 257.208 82.0523 253.821 80.2606C253.742 77.7758 252.487 75.5525 250.63 74.1662C256.018 73.7085 260.268 69.1049 260.268 63.4944C260.268 60.8134 259.3 58.3547 257.692 56.4584C260.961 55.5952 263.381 52.5611 263.381 48.9254C263.381 47.0552 262.753 45.355 261.707 44.021C263.446 43.511 264.924 42.3994 265.931 40.9085C267.095 41.6408 268.455 42.0462 269.933 42.0462C273.909 42.0462 277.218 38.9075 277.518 34.8925C278.408 35.1671 279.362 35.2979 280.304 35.2979C285.941 35.2979 290.544 30.7467 290.78 25.0577C292.166 26.4963 294.114 27.3856 296.22 27.3856C298.195 27.3856 300.013 26.601 301.36 25.3585C302.746 26.601 304.525 27.3856 306.526 27.3856C309.887 27.3856 312.751 25.1362 313.758 22.0236C314.896 22.7037 316.164 23.0568 317.551 23.0568C320.532 23.0568 323.096 21.3174 324.377 18.8064C325.319 19.2379 326.378 19.4864 327.49 19.4864C331.714 19.4864 335.128 16.0207 335.128 11.6919C335.128 7.36299 331.714 3.89728 327.49 3.89728V3.94959Z" fill="black"/>
        <path d="M305.179 84.4587C305.022 85.7534 303.858 86.682 302.524 86.5381C301.229 86.3812 300.301 85.2172 300.444 83.8833C300.601 82.5885 301.805 81.66 303.099 81.83C304.394 81.9608 305.323 83.1509 305.179 84.4587Z" fill="#333333"/>
        <path d="M280.723 87.5975C280.592 88.8922 279.402 89.8207 278.094 89.6769C276.799 89.52 275.844 88.356 276.014 87.022C276.171 85.7273 277.335 84.7987 278.643 84.9688C279.938 85.0995 280.893 86.2897 280.723 87.5975Z" fill="#333333"/>
        <path d="M296.599 84.9426C296.599 84.9426 300.418 79.9598 310.358 83.7263C310.358 83.7263 302.916 76.8995 296.599 84.9426Z" fill="#333333"/>
        <path d="M271.646 87.6498C271.646 87.6498 274.863 83.2032 285.077 86.5381C285.077 86.5381 275.87 80.4175 271.646 87.6498Z" fill="#333333"/>
        <path d="M301.634 112.564C301.739 114.107 299.006 118.253 295.54 118.488C292.074 118.737 288.766 115.127 288.661 113.584C288.556 112.041 291.263 110.602 294.729 110.367C298.195 110.118 301.53 111.02 301.634 112.564Z" fill="#CC744E"/>
        <path d="M294.049 114.787C291.264 114.787 288.491 113.898 286.412 112.263C286.255 112.158 286.215 111.91 286.333 111.753C286.464 111.596 286.712 111.57 286.869 111.674C289.197 113.518 292.441 114.355 295.566 113.95C298.378 113.597 300.85 112.211 302.472 110.105C302.576 109.948 302.825 109.922 302.982 110.053C303.139 110.157 303.178 110.406 303.06 110.563C301.294 112.838 298.679 114.303 295.645 114.708C295.122 114.761 294.585 114.787 294.049 114.787Z" fill="#333333"/>
        <path d="M265.539 26.4048C265.866 26.4048 265.866 25.8947 265.539 25.8947C265.212 25.8947 265.212 26.4048 265.539 26.4048Z" fill="#263238"/>
        <path fill-rule="evenodd" clip-rule="evenodd" d="M249.91 47.0683C249.806 47.0683 249.701 47.016 249.61 46.9113C248.419 45.1719 246.654 43.8772 244.653 43.341C244.928 43.9688 244.901 44.7011 244.522 45.2635C244.221 45.6951 243.764 45.9959 243.254 46.0743C242.744 46.1528 242.22 46.0482 241.841 45.7474C241.436 45.4466 241.161 44.9888 241.109 44.4265C241.056 43.9164 241.213 43.3933 241.54 43.014C241.645 42.9094 241.763 42.8048 241.893 42.7132C240.272 42.6348 238.585 42.8963 237.041 43.5241C236.845 43.5764 236.636 43.4979 236.558 43.3018C236.479 43.1056 236.558 42.8963 236.78 42.8179C238.506 42.1117 240.403 41.837 242.273 41.9809C242.783 42.007 243.358 42.0855 243.842 42.3863C243.973 42.3994 244.104 42.4255 244.248 42.4648C246.654 42.9487 248.825 44.4134 250.237 46.4667C250.342 46.6236 250.316 46.8721 250.133 46.9767C250.08 47.029 250.002 47.0552 249.91 47.0552V47.0683ZM243.267 43.0794C242.835 43.0794 242.377 43.1841 242.103 43.511C241.907 43.7333 241.802 44.0211 241.854 44.348C241.88 44.675 242.05 44.9758 242.26 45.1327C242.482 45.2896 242.796 45.3812 243.097 45.3158C243.424 45.2373 243.698 45.0673 243.881 44.8319C244.208 44.3219 244.064 43.511 243.581 43.1317C243.567 43.1187 243.554 43.1056 243.554 43.1056C243.463 43.0925 243.371 43.0794 243.254 43.0794H243.267Z" fill="black"/>
        <path d="M294.376 79.3713C294.912 80.2083 298.522 77.7758 302.694 77.3703C306.84 76.9911 310.057 78.6651 310.384 77.6973C310.541 77.2396 309.821 76.5072 308.278 75.8794C304.237 74.4147 299.751 74.8724 296.089 77.148C294.703 78.0373 294.141 78.9397 294.389 79.3713H294.376Z" fill="#263238"/>
        <path d="M268.939 82.3793C269.501 83.2163 273.111 80.7837 277.283 80.3783C281.429 79.999 284.62 81.673 284.973 80.7053C285.13 80.2475 284.384 79.5152 282.867 78.8874C278.826 77.4226 274.314 77.8804 270.652 80.156C269.292 81.0715 268.73 81.9477 268.939 82.3793Z" fill="#263238"/>
        <path d="M349.448 177.588C349.448 177.588 338.946 240.246 308.5 256.031L343.838 247.046C344.4 246.889 344.805 246.392 344.845 245.804C345.145 240.52 346.545 214.469 349.448 177.588Z" fill="#750014"/>
        <path d="M341.353 180.217L344.792 246.811L277.152 264.009C292.231 273.294 283.887 292.715 283.887 292.715L372.06 292.637C375.369 292.637 378.429 290.871 380.286 287.955C395.457 264.022 401.538 215.136 403.984 179.21C403.997 178.961 404.023 178.7 404.036 178.451C405.501 150.582 383.647 127.734 357.622 129.434L322.062 131.789L341.34 180.23L341.353 180.217Z" fill="#A31F34"/>
        <path d="M276.747 266.023C276.747 266.023 284.79 273.817 282.789 291.643L284.306 290.884C284.306 290.884 289.943 274.419 278.996 265.892L276.747 266.023Z" fill="#D1957D"/>
        <path d="M255.73 264.218C255.678 263.839 251.022 228.58 255.22 201.521L255.952 201.652C251.781 228.567 256.436 263.747 256.463 264.1L255.73 264.205V264.218Z" fill="#333333"/>
        <path d="M300.418 129.631C300.418 136.51 301.831 143.31 304.538 149.614C317.08 175.417 341.366 128.767 341.366 128.767C341.366 128.767 332.185 102.559 336.004 89.533C336.004 89.533 307.323 128.009 300.418 127.42V129.644V129.631Z" fill="#F5AE8E"/>
        <path d="M333.964 103.984C333.964 103.984 321.343 122.098 300.418 127.813C300.418 127.813 300.235 136.797 302.131 142.656C302.131 142.656 332.891 131.305 333.977 103.984H333.964Z" fill="#D1957D"/>
        <path fill-rule="evenodd" clip-rule="evenodd" d="M366.11 26.0778C365.247 26.0778 364.436 25.6986 363.965 25.0447C363.01 23.6322 363.886 21.7097 365.207 20.7158C366.018 20.1142 366.999 19.7349 368.019 19.578C367.038 18.0609 365.286 17.0016 362.526 16.2431C357.387 14.8045 352.561 15.1576 348.938 17.2501C348.755 17.3286 348.533 17.2762 348.428 17.0932C348.324 16.9362 348.402 16.6877 348.559 16.5831C352.378 14.4383 357.387 14.059 362.749 15.5238C364.645 16.0338 367.326 16.9885 368.739 19.2903C368.791 19.3688 368.843 19.4341 368.869 19.5126C369.759 19.4603 370.687 19.5911 371.576 19.8657C373.447 20.4673 375.238 21.7097 376.886 23.5799C377.017 23.7107 376.991 23.9592 376.86 24.09C376.703 24.2207 376.455 24.2207 376.324 24.0638C374.754 22.2983 373.107 21.1343 371.367 20.5981C370.635 20.3496 369.929 20.245 369.196 20.245C369.575 21.3043 369.602 22.5206 369.249 23.5799C368.895 24.6916 368.163 25.5024 367.221 25.8817C366.868 26.0386 366.489 26.104 366.11 26.104V26.0778ZM368.412 20.2842C367.378 20.3888 366.437 20.7681 365.678 21.3436C364.593 22.1282 363.913 23.6192 364.593 24.6262C365.103 25.3585 366.188 25.4893 366.947 25.1624C367.679 24.8616 368.242 24.2207 368.542 23.3184C368.843 22.3767 368.791 21.2389 368.412 20.2842Z" fill="black"/>
        <path fill-rule="evenodd" clip-rule="evenodd" d="M390.448 94.1496C390.317 94.1496 390.147 94.0712 390.095 93.9011C389.82 93.1164 389.533 92.2794 389.036 91.5994C388.735 91.1416 388.356 90.8147 387.976 90.5662C388.107 91.0762 388.107 91.6255 387.924 92.1094C387.597 93.0249 386.59 93.5742 385.727 93.3518C385.243 93.2211 384.838 92.868 384.615 92.3448C384.367 91.8086 384.393 91.1547 384.641 90.6708C384.995 90.0169 385.675 89.5853 386.433 89.4807C386.08 89.1538 385.701 88.9183 385.374 88.7222C383.281 87.4536 380.77 86.8259 378.338 86.9305C378.115 86.9305 377.932 86.7997 377.932 86.5774C377.932 86.355 378.089 86.1981 378.285 86.1719C380.888 86.0673 383.543 86.7081 385.753 88.0683C386.302 88.3952 386.996 88.853 387.453 89.533C388.29 89.7554 389.049 90.3177 389.65 91.1547C390.187 91.9394 390.514 92.8287 390.788 93.6396C390.867 93.8227 390.762 94.045 390.566 94.0973C390.527 94.1104 390.487 94.1235 390.435 94.1235L390.448 94.1496ZM386.825 90.2262C386.198 90.2262 385.583 90.527 385.335 91.0109C385.178 91.3378 385.178 91.7171 385.308 92.0702C385.439 92.371 385.662 92.5541 385.936 92.6326C386.42 92.7633 387.048 92.3841 387.231 91.8479C387.414 91.364 387.336 90.7624 387.035 90.2262H386.812H386.825Z" fill="black"/>
        <path d="M323.37 115.14C323.017 116.382 322.808 117.69 322.808 119.037C322.808 126.57 328.732 132.691 336.017 132.691C338.044 132.691 339.967 132.233 341.706 131.37C343.602 133.07 346.061 134.13 348.768 134.13C353.829 134.13 358.08 130.468 359.191 125.603H359.518C365.417 125.603 370.242 120.646 370.242 114.525C370.242 114.055 370.216 113.61 370.164 113.165C373.303 111.4 375.474 107.96 375.474 103.984C375.474 103.317 375.408 102.663 375.291 102.01C379.515 100.819 382.601 96.7783 382.601 92.0179C382.601 90.2785 382.196 88.6306 381.464 87.192C382.876 85.4003 383.713 83.0986 383.713 80.6137C383.713 76.3372 381.189 72.6491 377.592 71.0798C377.645 70.6613 377.671 70.2428 377.671 69.8112C377.671 68.6472 377.488 67.5356 377.161 66.4763C380.378 64.7761 382.601 61.2711 382.601 57.2431C382.601 51.5279 378.129 46.8983 372.636 46.8983C371.89 46.8983 371.184 46.9767 370.491 47.1467C370.504 46.9506 370.517 46.7413 370.517 46.519C370.517 45.3289 370.216 44.2172 369.706 43.2364C371.093 42.0201 371.982 40.2022 371.982 38.149C371.982 34.4871 369.118 31.5184 365.587 31.5184C364.527 31.5184 363.533 31.793 362.657 32.2507C361.768 30.1713 359.898 28.6804 357.674 28.3534C357.661 28.275 357.648 28.1965 357.648 28.105C360.525 27.4511 362.657 24.7962 362.657 21.6313C362.657 18.2702 360.251 15.5107 357.138 15.053C357.517 14.216 357.701 13.2874 357.701 12.3196C357.701 8.63159 354.823 5.68901 351.305 5.68901C349.16 5.68901 347.29 6.74834 346.139 8.39619C344.819 7.28454 343.158 6.63064 341.314 6.63064C340.921 6.63064 340.529 6.65679 340.15 6.70911C339.038 6.0552 337.769 5.67593 336.383 5.67593C335.494 5.67593 334.657 5.80671 333.833 6.10751L333.99 5.92442H332.041C330.72 4.70815 328.955 3.94962 327.032 3.94962C323.867 3.94962 321.16 5.97673 320.022 8.85392L311.796 12.4504L299.123 15.4322L294.193 13.2613L286.634 19.7611L281.573 20.5981L263.943 32.5908L250.512 46.2182L253.677 49.527L243.384 68.4772L246.092 90.867L258.11 97.7723C271.869 89.0491 267.344 81.0584 267.344 81.0584C270.234 79.8944 270.43 74.2839 270.43 74.2839C282.397 70.7659 284.751 61.9904 285.104 57.3869C287.732 65.2731 294.69 70.8967 302.838 70.8967C304.407 70.8967 305.924 70.7136 307.389 70.2951C307.389 70.2951 312.529 75.5525 319.225 75.0032C319.225 75.0032 316.596 86.2635 323.88 91.0109C323.88 91.0109 321.448 96.5952 325.241 99.5378C325.241 99.5378 318.466 105.41 323.344 115.114L323.37 115.14Z" fill="black"/>
        <path d="M373.12 293.134C372.557 293.134 372.139 293.029 372.008 293.003L284.384 293.081C284.162 293.081 283.953 292.977 283.809 292.781C283.678 292.584 283.652 292.349 283.73 292.127C286.385 284.894 286.438 278.368 283.953 272.732C281.952 268.233 278.813 265.643 277.558 264.715C277.309 264.558 277.204 264.283 277.257 264.009C277.309 263.708 277.531 263.499 277.793 263.446L343.602 246.706C344.06 246.575 344.387 246.144 344.361 245.647L340.974 180.23C340.974 180.008 341.131 179.851 341.353 179.825C341.575 179.825 341.732 179.982 341.732 180.178L345.119 245.634C345.172 246.471 344.609 247.229 343.785 247.452L278.041 264.153C279.389 265.16 282.567 267.841 284.62 272.444C287.222 278.238 287.144 284.921 284.437 292.323L372.126 292.244L372.178 292.271C372.178 292.271 377.945 293.892 382.706 282.959L382.732 282.933C382.784 282.802 389.337 270.613 394.947 245.974C394.973 245.752 395.196 245.621 395.379 245.673C395.601 245.725 395.706 245.922 395.679 246.131C390.134 270.495 383.687 282.763 383.412 283.286C379.593 291.983 375.173 293.147 373.12 293.147V293.134Z" fill="#333333"/>
        <path d="M403.605 184.951H403.579C403.356 184.925 403.199 184.742 403.225 184.52C404.821 168.76 400.649 157.631 396.856 151.053C392.789 143.99 388.277 140.577 388.251 140.551C388.068 140.42 388.029 140.198 388.173 140.015C388.277 139.858 388.526 139.819 388.683 139.962C388.879 140.093 393.365 143.48 397.51 150.713C401.355 157.343 405.58 168.643 403.984 184.611C403.958 184.807 403.801 184.964 403.605 184.964V184.951Z" fill="#333333"/>
        <path d="M355.163 253.703C355.033 253.703 354.889 253.651 354.81 253.52C350.991 246.719 344.492 247.373 344.217 247.426L343.485 247.504L343.864 246.85C343.968 246.602 347.225 241.083 359.113 241.763C359.335 241.789 359.492 241.946 359.466 242.168C359.466 242.39 359.309 242.547 359.087 242.521C349.984 242.011 346.139 245.281 344.949 246.641C346.95 246.667 352.208 247.347 355.49 253.167C355.569 253.324 355.517 253.572 355.333 253.651C355.281 253.69 355.229 253.703 355.176 253.703H355.163Z" fill="#333333"/>
        <path d="M378.155 43.511C378.155 47.3298 375.121 50.4424 371.354 50.4424C367.588 50.4424 364.553 47.3298 364.553 43.511C364.553 39.6922 367.588 36.5796 371.354 36.5796C375.121 36.5796 378.155 39.6922 378.155 43.511Z" fill="black"/>
        <path d="M382.157 68.111C382.157 71.9298 379.123 75.0424 375.356 75.0424C371.59 75.0424 368.555 71.9298 368.555 68.111C368.555 64.2922 371.59 61.1796 375.356 61.1796C379.123 61.1796 382.157 64.266 382.157 68.111Z" fill="black"/>
        <path d="M367.862 31.9238C367.862 35.9649 364.645 39.2083 360.682 39.2083C356.72 39.2083 353.502 35.9649 353.502 31.9238C353.502 27.8826 356.72 24.6131 360.682 24.6131C364.645 24.6131 367.862 27.8957 367.862 31.9238Z" fill="black"/>
        <path d="M362.67 24.6131C362.67 28.6542 359.479 31.9238 355.516 31.9238C351.554 31.9238 348.337 28.6412 348.337 24.6131C348.337 20.585 351.528 17.3024 355.516 17.3024C359.505 17.3024 362.67 20.585 362.67 24.6131Z" fill="black"/>
        <path d="M317.799 9.86092C317.799 13.9021 314.386 17.1716 310.188 17.1716C305.99 17.1716 302.576 13.889 302.576 9.86092C302.576 5.83285 305.99 2.55023 310.188 2.55023C314.386 2.55023 317.799 5.83285 317.799 9.86092Z" fill="black"/>
        <path d="M326.457 9.86092C326.457 13.9021 323.07 17.1716 318.845 17.1716C314.621 17.1716 311.26 13.889 311.26 9.86092C311.26 5.83285 314.647 2.55023 318.845 2.55023C323.043 2.55023 326.457 5.83285 326.457 9.86092Z" fill="black"/>
        <path d="M272.196 28.5627C272.196 32.6038 268.808 35.8734 264.61 35.8734C260.412 35.8734 256.999 32.5907 256.999 28.5627C256.999 24.5346 260.386 21.252 264.61 21.252C268.835 21.252 272.196 24.5346 272.196 28.5627Z" fill="black"/>
        <path d="M311.273 10.7502C311.273 15.6807 306.696 19.6565 301.059 19.6565C295.422 19.6565 290.845 15.6807 290.845 10.7502C290.845 5.81978 295.422 1.87018 301.059 1.87018C306.696 1.87018 311.273 5.84594 311.273 10.7502Z" fill="black"/>
        <path d="M294.481 13.052C294.481 17.0931 291.093 20.3627 286.895 20.3627C282.697 20.3627 279.284 17.0801 279.284 13.052C279.284 9.02392 282.671 5.7413 286.895 5.7413C291.12 5.7413 294.481 9.02392 294.481 13.052Z" fill="black"/>
        <path d="M277.858 25.1885C277.858 29.2297 274.445 32.4731 270.247 32.4731C266.049 32.4731 262.635 29.2297 262.635 25.1885C262.635 21.1474 266.049 17.8778 270.247 17.8778C274.445 17.8778 277.858 21.1605 277.858 25.1885Z" fill="black"/>
        <path d="M351.044 9.6386C351.044 13.6797 347.63 16.9493 343.432 16.9493C339.234 16.9493 335.847 13.6667 335.847 9.6386C335.847 5.61053 339.234 2.32791 343.432 2.32791C347.63 2.32791 351.044 5.61053 351.044 9.6386Z" fill="black"/>
        <path d="M342.739 9.86092C342.739 13.9021 339.326 17.1716 335.128 17.1716C330.93 17.1716 327.516 13.889 327.516 9.86092C327.516 5.83285 330.93 2.55023 335.128 2.55023C339.326 2.55023 342.739 5.83285 342.739 9.86092Z" fill="black"/>
        <path d="M332.983 7.31069C332.983 11.3518 329.596 14.6214 325.371 14.6214C321.147 14.6214 317.786 11.3388 317.786 7.31069C317.786 3.28262 321.173 0 325.371 0C329.569 0 332.983 3.28262 332.983 7.31069Z" fill="black"/>
        <path d="M266.585 40.3984C266.585 45.9174 262.609 50.4163 257.679 50.4163C252.748 50.4163 248.773 45.9174 248.773 40.3984C248.773 34.8794 252.748 30.3806 257.679 30.3806C262.609 30.3806 266.585 34.8533 266.585 40.3984Z" fill="black"/>
        <path d="M249.479 97.3538C249.479 97.3538 249.413 97.3538 249.4 97.3276C246.942 96.7914 244.954 94.9212 244.038 92.371C243.228 90.0954 243.502 87.7413 244.745 85.9235C241.632 83.4386 240.9 78.7174 243.149 75.4479C243.528 74.9117 243.96 74.3885 244.391 73.9046C245.333 72.793 246.262 71.7337 246.34 70.4651C246.419 69.2488 245.66 68.0326 244.954 66.8424C244.012 65.2992 243.057 63.7037 243.816 61.9904C244.444 60.6042 245.895 59.9895 247.282 59.414C248.197 59.0086 249.152 58.6294 249.858 58.0016C251.454 56.563 251.401 54.379 251.323 52.0772C251.271 49.9324 251.192 47.7222 252.487 45.9566C254.331 43.3802 257.823 43.171 261.21 42.9487C264.597 42.7656 267.788 42.5432 269.305 40.1892C269.842 39.326 270.064 38.319 270.26 37.2858C270.417 36.5011 270.587 35.7164 270.888 34.9579C272.052 32.1461 275.269 30.1321 279.114 29.8705C282.527 29.5959 285.941 30.6029 288.949 31.466C289.171 31.5183 289.276 31.7407 289.223 31.9499C289.145 32.133 288.923 32.2769 288.739 32.2246C285.784 31.3614 282.462 30.3806 279.206 30.629C276.276 30.8775 272.81 32.3684 271.62 35.2587C271.346 35.9388 271.215 36.6711 271.058 37.4297C270.835 38.5152 270.626 39.6268 269.972 40.6207C268.246 43.3018 264.689 43.5502 261.249 43.7333C257.914 43.9557 254.749 44.1388 253.128 46.4144C252.016 47.9576 252.068 50.037 252.121 52.051C252.199 54.4313 252.251 56.9292 250.381 58.6032C249.597 59.2833 248.59 59.7148 247.622 60.1203C246.301 60.6826 245.045 61.2058 244.535 62.3174C243.934 63.6383 244.784 64.9984 245.647 66.437C246.405 67.7318 247.216 69.0657 247.138 70.5305C247.033 72.0737 246 73.2638 244.993 74.4278C244.561 74.8855 244.156 75.4086 243.803 75.8925C241.724 78.9528 242.508 83.3601 245.529 85.5573L245.856 85.8058L245.582 86.1327C244.339 87.7282 244.012 89.9777 244.797 92.1487C245.608 94.4243 247.399 96.0983 249.557 96.5952C249.78 96.6476 249.91 96.8699 249.858 97.053C249.832 97.2491 249.662 97.3799 249.479 97.3799V97.3538Z" fill="#4B4E66"/>
        <path d="M352.862 61.4411C334.958 3.67495 289.197 21.8274 289.197 21.8274C289.197 21.8274 328.248 11.888 339.731 59.571C339.012 59.7148 338.292 59.911 337.56 60.1333C326.836 63.4944 320.846 74.9509 324.207 85.7273C327.595 96.5037 339.025 102.52 349.749 99.1585C360.499 95.7974 366.463 84.341 363.102 73.5646C361.402 68.0979 357.609 63.8475 352.862 61.4281V61.4411Z" fill="white"/>
        <path d="M347.983 69.785C350.534 71.0536 352.613 73.3031 353.529 76.2587C355.294 81.9477 352.116 87.9898 346.44 89.7684C344.465 90.3962 342.464 90.4224 340.594 89.9254C343.001 91.1155 345.826 91.4163 348.585 90.5531C354.274 88.7614 357.439 82.7324 355.647 77.0434C354.483 73.3031 351.501 70.6743 347.983 69.785Z" fill="#F2F2F2"/>
        <path d="M358.119 114.552C357.962 114.552 357.792 114.447 357.766 114.277C357.687 114.081 357.818 113.871 358.014 113.819C360.748 113.034 363.834 112.171 366.24 110.327C368.359 108.679 370.242 105.671 369.602 102.663C369.471 101.957 369.17 101.225 368.869 100.545C368.464 99.5378 368.032 98.5177 368.006 97.3799C367.901 94.2412 370.53 92.2664 373.067 90.3439C375.552 88.4999 377.88 86.7474 377.945 84.0402C377.972 82.17 376.808 80.4699 375.67 78.8089C374.349 76.8603 372.963 74.8332 373.525 72.5053C373.747 71.5244 374.31 70.6613 374.82 69.8242C375.552 68.7126 376.232 67.6271 376.036 66.4632C375.761 65.0246 374.414 64.3183 372.95 63.5598C371.681 62.8797 370.321 62.1735 369.615 60.905C368.882 59.5841 369.052 58.067 369.183 56.6022C369.262 56.0006 369.314 55.386 369.314 54.7844C369.288 51.1879 366.306 47.8791 362.788 47.5783L362.409 47.5522L362.435 47.1729C362.566 45.0935 361.519 43.001 359.623 41.5885C357.805 40.2022 355.582 39.7707 353.725 40.4507C353.528 40.503 353.319 40.4246 353.267 40.2022C353.188 40.0191 353.293 39.7968 353.489 39.7445C355.608 38.986 358.067 39.4437 360.068 40.9608C362.069 42.4778 363.206 44.6488 363.206 46.859C366.947 47.3691 370.059 50.9002 370.085 54.7713C370.085 55.3991 370.007 56.0399 369.955 56.6676C369.798 58.0801 369.654 59.401 370.282 60.5388C370.909 61.5981 372.126 62.2389 373.316 62.8667C374.859 63.6775 376.455 64.5145 376.781 66.3062C377.056 67.771 376.245 69.0134 375.487 70.2035C374.977 70.9882 374.454 71.7991 374.27 72.6622C373.787 74.6632 375.003 76.4549 376.298 78.3774C377.514 80.1168 378.73 81.9215 378.704 84.0402C378.625 87.1005 376.049 89.0491 373.525 90.9193C371.04 92.8156 368.647 94.6073 368.765 97.3407C368.791 98.3477 369.17 99.2632 369.575 100.244C369.876 100.976 370.164 101.709 370.334 102.493C370.962 105.423 369.523 108.719 366.711 110.916C364.187 112.838 361.022 113.728 358.237 114.538H358.132L358.119 114.552Z" fill="#4B4E66"/>
        <path d="M385.112 63.9652C385.112 63.9652 385.008 63.9652 384.981 63.9391C384.798 63.8606 384.681 63.6121 384.772 63.429C389.049 53.5942 382.3 48.3499 382.013 48.1276C381.856 47.9968 381.817 47.7483 381.934 47.5914C382.065 47.4344 382.287 47.4083 382.47 47.5129C382.523 47.5652 390.003 53.3327 385.478 63.7298C385.426 63.8868 385.256 63.9783 385.125 63.9783L385.112 63.9652Z" fill="black"/>
        <path d="M277.152 9.07622H277.074C276.851 9.02391 276.747 8.80158 276.799 8.61849C276.825 8.54002 278.892 1.15086 287.902 2.60254C288.085 2.62869 288.229 2.82487 288.203 3.03412C288.177 3.25645 287.981 3.38723 287.772 3.33491C279.428 2.01402 277.584 8.54002 277.531 8.80158C277.479 8.95852 277.309 9.07622 277.152 9.07622Z" fill="black"/>
        <path d="M259.876 142.434C259.876 142.434 259.811 142.434 259.771 142.408C252.238 139.923 254.252 131.383 254.278 131.305C254.331 131.082 254.527 130.978 254.736 131.03C254.932 131.056 255.063 131.278 255.011 131.462C254.932 131.789 253.167 139.4 259.994 141.702C260.203 141.754 260.321 141.976 260.242 142.159C260.19 142.316 260.046 142.434 259.889 142.434H259.876Z" fill="black"/>
        <path d="M350.455 137.857C347.369 137.857 344.845 136.392 344.792 136.366C344.635 136.261 344.544 136.039 344.662 135.856C344.766 135.699 345.015 135.607 345.172 135.725C345.472 135.921 352.234 139.753 356.929 133.881C357.06 133.724 357.308 133.685 357.465 133.829C357.622 133.96 357.648 134.182 357.517 134.339C355.346 137.072 352.757 137.857 350.455 137.857Z" fill="black"/>
        <path d="M217.228 281.926C217.097 281.926 216.927 281.847 216.849 281.677C216.744 281.481 216.823 281.219 217.006 281.115L227.403 275.321L227.481 275.295L235.25 273.909C235.472 273.883 235.708 274.04 235.734 274.262C235.786 274.51 235.629 274.746 235.381 274.772L227.691 276.132L217.424 281.873C217.359 281.913 217.28 281.926 217.215 281.926H217.228Z" fill="#333333"/>
        <path d="M218.301 286.425C218.144 286.425 217.947 286.294 217.895 286.124C217.817 285.875 217.947 285.64 218.17 285.561L226.618 282.684L235.224 281.063C235.472 281.01 235.681 281.167 235.734 281.416C235.786 281.625 235.629 281.873 235.381 281.9L226.801 283.521L218.457 286.385C218.457 286.385 218.353 286.412 218.301 286.412V286.425Z" fill="#333333"/>
        <path d="M219.203 290.047C218.981 290.047 218.797 289.89 218.771 289.668C218.745 289.42 218.902 289.21 219.151 289.184L228.92 288.02H233.223C233.471 288.02 233.654 288.216 233.654 288.452C233.654 288.674 233.471 288.883 233.223 288.883H228.946L219.255 290.047H219.203Z" fill="#333333"/>
        <path d="M37.0635 170.461L192.693 180.322L227.573 324.064L68.3726 307.794L37.0635 170.474V170.461Z" fill="#F2F2F2"/>
        <path fill-rule="evenodd" clip-rule="evenodd" d="M226.697 320.951H226.644L67.0648 304.028L67.0125 303.727L36.5273 170.003L37.0896 170.029L193.047 179.89L193.125 180.217L227.024 320.022L303.086 309.9L303.191 310.763L226.697 320.951ZM67.771 303.204L226.134 319.996L192.34 180.727L37.6389 170.931L67.7841 303.217L67.771 303.204Z" fill="#333333"/>
        <path d="M209.695 215.96C209.63 215.96 209.551 215.946 209.486 215.907C209.329 215.803 209.264 215.554 209.381 215.397L235.001 172.828C235.106 172.671 235.354 172.619 235.538 172.723C235.695 172.802 235.76 173.05 235.642 173.233L209.996 215.776C209.944 215.881 209.813 215.96 209.695 215.96Z" fill="#333333"/>
        <path d="M394.895 379.162L409.058 369.772L408.091 369.445L393.927 378.874L394.895 379.175V379.162Z" fill="#E46305"/>
        <path d="M278.421 361.572L264.257 352.182L265.212 351.855L279.402 361.284L278.421 361.585V361.572Z" fill="#E46305"/>
        <path d="M390.723 396.765L260.713 383.818L262.387 366.921L392.423 379.842L390.723 396.765Z" fill="#8A86AE"/>
        <path d="M426.295 357.753L425.053 360.813C423.405 364.933 423.379 369.562 425.027 373.669L390.801 396.307L392.449 379.436L426.295 357.74V357.753Z" fill="#F2F2F2"/>
        <path fill-rule="evenodd" clip-rule="evenodd" d="M390.67 396.556L392.344 379.384L392.397 379.332L426.57 357.426L425.184 360.865C423.51 364.985 423.51 369.51 425.131 373.643L425.184 373.721L425.105 373.774L390.657 396.543L390.67 396.556ZM392.554 379.515L390.958 396.059L424.857 373.643C423.235 369.471 423.261 364.92 424.935 360.774L426.021 358.067L392.554 379.515Z" fill="#4D4D4D"/>
        <path d="M392.423 379.842L390.723 396.765L391.56 396.229L393.26 379.306L392.423 379.842Z" fill="#7E7CA5"/>
        <path d="M426.491 357.282L426.688 357.151L314.15 345.969L262.4 366.934L392.436 379.855L426.505 357.295L426.491 357.282Z" fill="#ADB1D0"/>
        <path d="M392.318 380.954L426.596 358.093L426.675 357.138L392.423 379.829L392.318 380.94V380.954Z" fill="#7E7CA5"/>
        <path d="M390.723 396.765L425.328 374.074L425.001 373.264L390.827 395.85L390.723 396.765Z" fill="#7E7CA5"/>
        <path d="M413.44 370.073L413.309 369.85L421.914 364.135L422.045 364.318L413.44 370.059V370.073Z" fill="#333333"/>
        <path d="M402.467 377.383L402.336 377.161L412.406 370.478L412.537 370.687L402.467 377.383Z" fill="#333333"/>
        <path d="M395.614 381.961L395.483 381.738L401.002 378.05L401.133 378.233L395.614 381.947V381.961Z" fill="#333333"/>
        <path d="M409.974 376.428L409.843 376.206L420.724 368.948L420.855 369.131L409.974 376.415V376.428Z" fill="#333333"/>
        <path d="M394.45 386.773L394.293 386.551L408.156 377.318L408.287 377.54L394.45 386.773Z" fill="#333333"/>
        <path d="M419.717 373.512L419.586 373.29L422.947 371.066L423.078 371.249L419.717 373.499V373.512Z" fill="#333333"/>
        <path d="M397.301 388.46L397.17 388.238L418.514 374.022L418.645 374.244L397.301 388.46Z" fill="#333333"/>
        <path d="M290.413 361.676C290.217 361.676 290.06 361.545 290.06 361.349C290.034 361.127 290.165 360.944 290.387 360.918L298.561 360.107C298.783 360.081 298.966 360.238 298.966 360.434C298.993 360.656 298.862 360.839 298.639 360.839L290.466 361.676H290.413Z" fill="#333333"/>
        <path d="M301.739 360.539C301.517 360.539 301.36 360.408 301.36 360.185C301.334 360.002 301.491 359.806 301.687 359.78L321.997 357.727L366.005 353.346C366.188 353.346 366.384 353.476 366.411 353.699C366.437 353.882 366.28 354.078 366.084 354.104L322.076 358.485L301.765 360.539H301.739Z" fill="#333333"/>
        <path d="M246.602 339.927C246.405 339.927 246.248 339.797 246.248 339.574C246.222 339.391 246.353 339.195 246.575 339.169L316.203 332.237C316.387 332.237 316.583 332.368 316.609 332.59C316.635 332.813 316.478 332.97 316.256 332.996L246.667 339.927H246.615H246.602Z" fill="#333333"/>
        <path fill-rule="evenodd" clip-rule="evenodd" d="M389.415 351.815C389.219 351.815 389.062 351.685 389.062 351.488C389.036 351.266 389.166 351.083 389.389 351.083L409.372 349.082L372.413 334.134C372.23 334.055 372.139 333.833 372.191 333.65C372.269 333.427 372.492 333.349 372.675 333.427L410.615 348.781C410.837 348.86 410.942 349.082 410.915 349.317C410.889 349.54 410.693 349.697 410.484 349.723L389.467 351.802H389.415V351.815Z" fill="#333333"/>
        <path d="M247.007 340.254L248.276 343.563C249.95 347.683 249.976 352.286 248.328 356.406L282.527 378.939L280.853 362.121L247.007 340.267V340.254Z" fill="#F2F2F2"/>
        <path fill-rule="evenodd" clip-rule="evenodd" d="M282.723 379.188L282.449 379.031L248.171 356.445L248.197 356.34C249.819 352.221 249.819 347.709 248.145 343.615L246.706 339.875L281.01 362.029V362.082L282.71 379.201L282.723 379.188ZM248.524 356.34L282.37 378.626L280.722 362.186L247.308 340.607L248.419 343.511C250.093 347.656 250.133 352.208 248.524 356.34Z" fill="#333333"/>
        <path d="M282.566 379.162L412.603 366.214L410.929 349.291L280.892 362.239L282.566 379.162Z" fill="#A31F34"/>
        <path d="M280.879 362.239L282.553 379.162L281.716 378.626L280.042 361.676L280.879 362.239Z" fill="#A31F34"/>
        <path d="M246.824 339.679L246.615 339.548L359.178 328.34L410.928 349.304L280.892 362.252L246.824 339.692V339.679Z" fill="#A31F34"/>
        <path d="M280.997 363.35L246.719 340.49L246.615 339.548L280.892 362.239L280.997 363.35Z" fill="#A31F34"/>
        <path d="M282.566 379.162L248.145 356.523L248.446 355.713L282.488 378.246L282.566 379.162Z" fill="#A31F34"/>
        <path d="M256.083 358.211L250.499 354.549L250.63 354.366L256.201 357.988L256.07 358.211H256.083Z" fill="#333333"/>
        <path d="M267.134 365.417L257.012 358.812L257.169 358.603L267.291 365.207L267.134 365.43V365.417Z" fill="#333333"/>
        <path d="M274.04 369.902L268.481 366.267L268.612 366.057L274.157 369.68L274.026 369.902H274.04Z" fill="#333333"/>
        <path d="M263.315 358.891L252.317 351.737L252.447 351.554L263.446 358.708L263.315 358.904V358.891Z" fill="#333333"/>
        <path d="M278.931 369.065L264.989 359.989L265.12 359.767L279.061 368.869L278.931 369.065Z" fill="#333333"/>
        <path d="M256.789 351.083L252.748 348.454L252.879 348.232L256.92 350.861L256.789 351.07V351.083Z" fill="#333333"/>
        <path d="M279.336 365.796L257.862 351.789L257.993 351.606L279.467 365.574L279.336 365.796Z" fill="#333333"/>
        <path d="M340.32 344.806L363.612 354.013L410.915 349.304L372.544 333.794L340.32 344.819V344.806Z" fill="#A31F34"/>
        <path d="M374.454 278.486H336.919L337.756 271.986C337.861 271.149 338.567 270.522 339.43 270.522H371.93C372.767 270.522 373.473 271.149 373.577 271.986L374.441 278.486H374.454Z" fill="#263238"/>
        <path d="M370.229 344.884H340.79C340.189 344.884 339.705 344.452 339.626 343.851L331.4 276.59H379.279L371.393 343.851C371.315 344.439 370.805 344.884 370.229 344.884Z" fill="#4D4D4D"/>
        <path d="M375.238 319.212L377.239 302.262H333.427L335.533 319.212H375.238Z" fill="#263238"/>
        <path d="M380.927 280.683H330.419C329.818 280.683 329.386 280.121 329.53 279.546L330.799 273.974H380.548L381.843 279.546C381.974 280.108 381.516 280.683 380.927 280.683Z" fill="#263238"/>
        <path d="M415.284 380.901C415.179 380.901 415.035 380.849 414.957 380.744C414.852 380.561 414.904 380.339 415.087 380.234L425.027 373.839C425.21 373.734 425.432 373.787 425.537 373.944C425.641 374.127 425.589 374.349 425.432 374.48L415.493 380.849C415.414 380.888 415.349 380.901 415.271 380.901H415.284Z" fill="#333333"/>
        <path d="M390.827 397.144H390.697L337.913 391.808C337.704 391.782 337.534 391.586 337.56 391.403C337.586 391.194 337.782 391.05 337.965 391.05L390.631 396.386L403.304 387.937L408.771 384.341C408.928 384.236 409.176 384.288 409.281 384.445C409.385 384.628 409.333 384.851 409.176 384.982L403.709 388.552L390.814 397.131L390.827 397.144Z" fill="#333333"/>
        <path d="M327.621 390.788H327.595L311.613 389.193L260.137 384.079L261.929 367.457C261.929 367.261 262.125 367.104 262.335 367.13C262.557 367.156 262.688 367.326 262.662 367.535L260.961 383.399L311.705 388.46L327.686 390.03C327.882 390.056 328.039 390.252 328.013 390.461C327.987 390.657 327.83 390.788 327.634 390.788H327.621Z" fill="#333333"/>
        <path d="M290.557 361.65C290.374 361.65 290.204 361.519 290.178 361.297C290.152 361.114 290.309 360.918 290.505 360.892L298.679 360.081C298.888 360.055 299.084 360.185 299.11 360.408C299.11 360.63 298.979 360.787 298.757 360.813L290.583 361.65H290.557Z" fill="#333333"/>
        <path d="M301.844 360.512C301.648 360.512 301.491 360.355 301.464 360.159C301.438 359.937 301.595 359.78 301.791 359.754L322.128 357.701L366.11 353.306C366.332 353.28 366.515 353.437 366.515 353.659C366.541 353.843 366.384 354.039 366.188 354.065L322.206 358.42L301.87 360.473C301.87 360.473 301.87 360.499 301.844 360.499V360.512Z" fill="#333333"/>
        <path fill-rule="evenodd" clip-rule="evenodd" d="M389.559 351.789C389.363 351.789 389.206 351.658 389.179 351.462C389.153 351.24 389.31 351.057 389.506 351.031L409.49 349.056L372.531 334.081C372.348 334.003 372.256 333.781 372.348 333.598C372.426 333.401 372.649 333.323 372.832 333.401L410.745 348.755C410.968 348.834 411.098 349.056 411.046 349.265C411.02 349.514 410.863 349.671 410.615 349.697L389.598 351.789H389.572H389.559Z" fill="#333333"/>
        <path opacity="0.2" fill-rule="evenodd" clip-rule="evenodd" d="M68.3726 306.473V310.214L229.404 332.473L308.514 315.903L302.445 312.986L227.573 327.058L68.3726 306.473Z" fill="#333333"/>
        <path opacity="0.4" d="M126.688 249.047L130.402 249.139L127.46 237.538L123.732 237.447L126.688 249.047ZM128.846 235.655L138.171 235.904L137.203 232.033L127.865 231.784L128.846 235.655ZM122.268 231.64L126.008 231.732L126.989 235.603L123.262 235.511L122.281 231.64H122.268ZM121.117 248.903L124.831 248.995L120.397 231.588L116.657 231.496L121.117 248.903ZM114.551 244.888L118.266 244.98L114.787 231.444L111.047 231.352L114.538 244.888H114.551ZM109.974 248.603L113.688 248.694L109.189 231.287L105.449 231.196L109.961 248.603H109.974ZM132.259 249.191L135.974 249.283L133.057 237.682L129.33 237.591L132.259 249.191Z" fill="black"/>
    </g>
    <defs>
        <clipPath id="clip0_181_5362">
            <rect width="508.23" height="430.153" fill="white"/>
        </clipPath>
    </defs>
</svg>
