<?xml version="1.0" encoding="UTF-8"?>
<svg id="Layer_1" data-name="Layer 1" xmlns="http://www.w3.org/2000/svg" version="1.1" viewBox="0 0 2676.9 726.7">
  <defs>
    <style>
      .cls-1 {
        fill: #000;
        stroke-width: 0px;
      }
    </style>
  </defs>
  <g id="Artwork">
    <g>
      <path class="cls-1" d="M720,720h160V240h-160v480ZM960,160h400V0h-400v160ZM720,0h160v160h-160V0ZM480,720h160V0h-160v720ZM240,560h160V0h-160v560ZM0,720h160V0H0v720ZM960,720h160V240h-160v480Z"/>
      <g>
        <path class="cls-1" d="M1507.1,570.6c0-89.8,56.2-156.5,144.8-156.5s144.3,66.7,144.3,156.5-55.8,156.1-144.3,156.1-144.8-66.3-144.8-156.1ZM1734.1,570.6c0-60-26.8-106.6-81.8-106.6s-83.1,46.6-83.1,106.6,28.1,106.2,83.1,106.2,81.8-46.6,81.8-106.2Z"/>
        <path class="cls-1" d="M1880.5,534.1h1.3c14.7-23.1,34.4-35.2,63.8-35.2,44.5,0,74.3,33.6,74.3,80.6v140.6h-57.1v-132.2c0-23.1-13.4-39.4-37.3-39.4s-43.6,20.1-43.6,49.5v122.1h-57.1v-215.2h55.8v29.4h0Z"/>
        <path class="cls-1" d="M2055.9,420h57.1v300h-57.1v-300Z"/>
        <path class="cls-1" d="M2150.7,420h57.1v51.2h-57.1v-51.2ZM2150.7,504.8h57.1v215.2h-57.1v-215.2Z"/>
        <path class="cls-1" d="M2300.5,534.1h1.3c14.7-23.1,34.4-35.2,63.8-35.2,44.5,0,74.3,33.6,74.3,80.6v140.6h-57.1v-132.2c0-23.1-13.4-39.4-37.3-39.4s-43.6,20.1-43.6,49.5v122.1h-57.1v-215.2h55.8v29.4h0Z"/>
        <path class="cls-1" d="M2464.6,612.2c0-63.8,43.2-113.3,106.2-113.3s106.2,52.9,106.2,129.6h-156.1c4.2,33.2,22.7,53.7,55,53.7s35.2-10.1,41.5-26.4h56.2c-8,38.2-42,70.5-97.3,70.5s-111.6-49.9-111.6-114.1ZM2521.6,589.1h95.7c-1.7-27.3-19.7-46.2-45.7-46.2s-44.9,18-49.9,46.2Z"/>
      </g>
      <g>
        <path class="cls-1" d="M1520.1,0h85.6l42.4,150.6c10.5,37.8,18.9,81,18.9,81h.8s8-43.2,18.5-81L1728.6,0h86.8v300h-56.6V128c0-24.3,2.5-62.1,2.5-62.1h-.8s-6.7,35.2-13,57.1l-51.6,177.1h-58.3l-50.3-177.1c-6.3-21.8-13-57.1-13-57.1h-.8s2.5,37.8,2.5,62.1v172h-55.8V0h0Z"/>
        <path class="cls-1" d="M1862,0h60.8v300h-60.8V0Z"/>
        <path class="cls-1" d="M1953.9,0h241.3v51.2h-90.2v248.8h-60.8V51.2h-90.2V0Z"/>
        <path class="cls-1" d="M2255.2,185.9l-70.1-101.1h65l38.2,61.7h.8l36.1-61.7h59.2l-66.7,100.7,76.8,114.5h-68l-39.9-71.3h-.8l-46.6,71.3h-62.5l78.5-114.1Z"/>
      </g>
    </g>
  </g>
</svg>
