<?xml version="1.0" encoding="UTF-8"?>
<svg id="Layer_1" data-name="Layer 1" xmlns="http://www.w3.org/2000/svg" version="1.1" viewBox="0 0 4173 796.4">
  <defs>
    <style>
      .cls-1 {
        fill: #000;
        stroke-width: 0px;
      }
    </style>
  </defs>
  <g id="Artwork">
    <g>
      <path class="cls-1" d="M720,725.9h160V245.9h-160v480ZM960,165.9h400V5.9h-400v160ZM720,5.9h160v160h-160V5.9ZM480,725.9h160V5.9h-160v720ZM240,565.9h160V5.9h-160v560ZM0,725.9h160V5.9H0v720ZM960,725.9h160V245.9h-160v480Z"/>
      <g>
        <path class="cls-1" d="M1522.1,425.9h60.8v249.2h141v50.8h-201.8v-300h0Z"/>
        <path class="cls-1" d="M1754.1,425.9h57.1v51.2h-57.1v-51.2ZM1754.1,510.6h57.1v215.2h-57.1v-215.2Z"/>
        <path class="cls-1" d="M1903.9,699h-.8v26.8h-55v-300h57.1v110.8h1.3c11.8-18,30.2-31.9,60-31.9,54.1,0,92.7,46.6,92.7,113.7s-36.9,113.7-91.1,113.7c-30.2,0-51.6-13-64.2-33.2ZM2001.2,618.5c0-39.9-15.9-67.5-47.8-67.5s-49.5,29-49.5,68.8,19.7,64.6,51.6,64.6,45.7-24.3,45.7-65.9Z"/>
        <path class="cls-1" d="M2140.5,545h1.3c13-24.3,27.7-36.9,52.9-36.9s10.1.4,13.4,1.7v49.9h-1.3c-37.3-3.8-64.2,15.9-64.2,61.3v104.9h-57.1v-215.3h55v34.4h0Z"/>
        <path class="cls-1" d="M2355.4,702h-.8c-10.9,16.4-26.4,29-63.4,29s-75.1-23.1-75.1-65.9,38.6-62.5,86.4-69.2c35.7-5,52-8,52-24.3s-12.2-25.6-36.1-25.6-39.9,9.7-41.5,30.2h-50.8c1.7-37.8,29.8-70.9,92.7-70.9s90.6,28.9,90.6,79.3v109.5c0,16.4,2.5,26,7.6,29.8v2.1h-55c-3.3-4.2-5.4-14.3-6.7-23.9ZM2355.8,649.9v-32.3c-10.1,5.9-25.6,9.2-39.9,12.6-29.8,6.7-44.5,13.4-44.5,33.6s13.4,27.3,33.6,27.3c32.7,0,50.8-20.1,50.8-41.1Z"/>
        <path class="cls-1" d="M2500.5,545h1.3c13-24.3,27.7-36.9,52.9-36.9s10.1.4,13.4,1.7v49.9h-1.3c-37.3-3.8-64.2,15.9-64.2,61.3v104.9h-57.1v-215.3h55v34.4h0Z"/>
        <path class="cls-1" d="M2599.5,751.5h20.1c22.7,0,31.9-11.8,31.9-29.4s-4.2-25.6-16.4-58.3l-57.9-153.1h60l31.9,96.9c6.7,19.7,13.9,47,13.9,47h.8s5.9-27.3,12.6-47l30.2-96.9h57.5l-75.1,220.7c-16.4,47.8-32.3,65-75.9,65h-33.6v-44.9h0Z"/>
      </g>
      <g>
        <path class="cls-1" d="M1509.1,156.5c0-89.8,56.2-156.5,144.8-156.5s144.3,66.7,144.3,156.5-55.8,156.1-144.3,156.1c-88.5,0-144.8-66.3-144.8-156.1ZM1736.1,156.5c0-60-26.8-106.6-81.8-106.6s-83.1,46.6-83.1,106.6,28.1,106.2,83.1,106.2,81.8-46.6,81.8-106.2Z"/>
        <path class="cls-1" d="M1826.7,90.6h55v26.8h1.3c13.8-18.9,34-32.7,63.4-32.7,57.1,0,93.6,46.6,93.6,113.7s-37.8,113.7-93.2,113.7-49.9-12.2-62.1-30.6h-.8v94.8h-57.1V90.6h0ZM1981.9,200.1c0-40.7-14.3-69.2-49.5-69.2s-49.9,30.6-49.9,69.2,18,64.6,52,64.6,47.4-23.9,47.4-64.6Z"/>
        <path class="cls-1" d="M2055.8,198c0-63.8,43.2-113.3,106.2-113.3s106.2,52.9,106.2,129.7h-156.1c4.2,33.1,22.7,53.7,55,53.7s35.2-10.1,41.5-26.4h56.2c-8,38.2-42,70.5-97.3,70.5-71.3,0-111.6-49.9-111.6-114.1ZM2112.9,175h95.7c-1.7-27.3-19.7-46.1-45.7-46.1-30.2,0-44.9,18-49.9,46.1Z"/>
        <path class="cls-1" d="M2350.3,120h1.3c14.7-23.1,34.4-35.2,63.8-35.2,44.5,0,74.3,33.6,74.3,80.6v140.6h-57.1v-132.2c0-23.1-13.4-39.4-37.3-39.4s-43.6,20.1-43.6,49.5v122.1h-57.1V90.6h55.8v29.4h0Z"/>
        <path class="cls-1" d="M2600,5.9h60.8v249.2h141v50.8h-201.8V5.9Z"/>
        <path class="cls-1" d="M2815.2,198c0-63.8,43.2-113.3,106.2-113.3s106.2,52.9,106.2,129.7h-156.1c4.2,33.1,22.7,53.7,55,53.7s35.2-10.1,41.5-26.4h56.2c-8,38.2-42,70.5-97.3,70.5-71.3,0-111.6-49.9-111.6-114.1ZM2872.3,175h95.7c-1.7-27.3-19.7-46.1-45.7-46.1-30.2,0-44.9,18-49.9,46.1Z"/>
        <path class="cls-1" d="M3182.8,282h-.8c-10.9,16.4-26.4,29-63.4,29s-75.1-23.1-75.1-65.9,38.6-62.5,86.4-69.2c35.7-5,52-8,52-24.3s-12.2-25.6-36.1-25.6-39.9,9.6-41.5,30.2h-50.8c1.7-37.8,29.8-70.9,92.7-70.9s90.6,28.9,90.6,79.3v109.5c0,16.4,2.5,26,7.6,29.8v2.1h-55c-3.4-4.2-5.4-14.3-6.7-23.9ZM3183.2,229.9v-32.3c-10.1,5.9-25.6,9.2-39.9,12.6-29.8,6.7-44.5,13.4-44.5,33.6s13.4,27.3,33.6,27.3c32.7,0,50.8-20.1,50.8-41.1Z"/>
        <path class="cls-1" d="M3327.9,125h1.3c13-24.3,27.7-36.9,52.9-36.9s10.1.4,13.4,1.7v49.9h-1.3c-37.3-3.8-64.2,15.9-64.2,61.3v104.9h-57.1V90.6h55v34.4h0Z"/>
        <path class="cls-1" d="M3476.1,120h1.3c14.7-23.1,34.4-35.2,63.8-35.2,44.5,0,74.3,33.6,74.3,80.6v140.6h-57.1v-132.2c0-23.1-13.4-39.4-37.3-39.4s-43.6,20.1-43.6,49.5v122.1h-57.1V90.6h55.8v29.4h0Z"/>
        <path class="cls-1" d="M3650.6,5.9h57.1v51.2h-57.1V5.9ZM3650.6,90.6h57.1v215.3h-57.1V90.6Z"/>
        <path class="cls-1" d="M3800.4,120h1.3c14.7-23.1,34.4-35.2,63.8-35.2,44.5,0,74.3,33.6,74.3,80.6v140.6h-57.1v-132.2c0-23.1-13.4-39.4-37.3-39.4s-43.6,20.1-43.6,49.5v122.1h-57.1V90.6h55.8v29.4h0Z"/>
        <path class="cls-1" d="M3969.1,312.2h56.6c4.6,13.4,16.8,23.9,43.2,23.9s47.8-15.5,47.8-44.9v-23.5h-1.3c-12.6,14.3-28.9,25.2-56.2,25.2-47.8,0-94.8-37.8-94.8-102.8s38.6-105.3,93.1-105.3,46.6,10.5,59.6,28.5h.8v-22.6h55v198.9c0,30.2-9.6,50.8-25.6,65.5-18,16.8-45.7,24.3-77.6,24.3-58.7,0-94.8-25.2-100.7-67.1ZM4119.7,188.8c0-31.5-16.8-58.3-51.2-58.3s-48.2,22.7-48.2,58.7,19.3,57.9,48.7,57.9c36.1,0,50.8-26.4,50.8-58.3Z"/>
      </g>
    </g>
  </g>
</svg>
