<svg width="392" height="762" viewBox="0 0 392 762" fill="none" xmlns="http://www.w3.org/2000/svg">
<mask id="mask0_4377_50604" style="mask-type:luminance" maskUnits="userSpaceOnUse" x="-115" y="0" width="507" height="762">
<path d="M-114.477 761.5L-114.477 0.989891L391.999 0.989869L391.999 761.5L-114.477 761.5Z" fill="white"/>
</mask>
<g mask="url(#mask0_4377_50604)">
<path d="M-70.0959 653.001C-81.3016 650.339 -91.811 646.663 -102.89 642.797C-110.867 640.008 -119.034 637.157 -127.518 634.685L-127.518 631.389C-118.654 633.924 -110.171 636.903 -101.877 639.755C-90.8614 643.621 -80.4153 647.233 -69.3994 649.895C-40.7203 656.74 -9.0022 657.374 22.336 651.733C54.3073 645.966 85.0124 633.861 111.159 616.559C118.946 611.426 126.417 606.229 133.634 601.286C161.49 582.02 185.548 565.415 216.443 556.859C219.165 556.099 221.951 555.338 224.673 554.641C256.771 545.959 287.096 537.72 315.839 513.13C353.888 480.491 378.515 435.938 385.163 387.646C389.531 355.641 387.568 322.876 379.211 290.237C376.236 278.703 372.437 267.739 368.449 256.204C365.663 248.156 362.751 239.79 360.155 231.234C351.545 202.715 345.784 176.921 342.492 152.458C341.036 141.557 340.15 130.657 339.263 120.073C338.883 115.637 338.504 111.074 338.124 106.637L337.744 102.771C334.642 68.4217 331.349 32.9312 321.283 0.292624C319.954 -3.89018 318.561 -8.00961 317.105 -11.9389L320.46 -11.9389C333.755 24.1219 337.491 64.6825 340.909 102.518L341.289 106.384C341.669 110.82 342.049 115.447 342.429 119.883C343.315 130.403 344.201 141.304 345.657 152.078C348.886 176.351 354.647 201.955 363.194 230.347C365.79 238.839 368.639 247.205 371.424 255.19C375.476 266.851 379.275 277.816 382.25 289.477C387.758 311.151 390.544 332.826 390.544 354.374C390.544 365.718 389.784 376.935 388.265 388.089C381.554 437.142 356.547 482.393 317.865 515.538C288.552 540.635 257.911 548.874 225.496 557.683C222.774 558.444 219.988 559.141 217.266 559.901C186.877 568.267 163.01 584.745 135.407 603.821C128.189 608.828 120.719 613.961 112.932 619.158C86.4685 636.65 55.3202 649.008 22.9058 654.838C-8.81227 660.542 -40.9735 659.909 -70.0959 653.001Z" fill="white"/>
<path d="M-84.8478 641.403C-95.4838 638.424 -105.803 634.241 -115.743 630.249C-119.605 628.728 -123.53 627.143 -127.455 625.622L-127.455 622.897C-123.15 624.545 -118.972 626.256 -114.793 627.904C-104.41 632.086 -94.5974 636.016 -84.1514 638.994C-56.1053 646.916 -24.8304 648.437 6.38118 643.367C38.2258 638.17 68.741 626.256 94.508 608.954C101.599 604.201 108.436 599.448 114.957 594.821C142.94 575.238 167.061 558.317 199.095 551.282C202.894 550.458 206.819 549.634 210.554 548.811C241.703 542.22 271.078 535.945 299.314 513.13C338.123 481.696 362.687 437.776 368.385 389.547C372.12 358.239 369.081 325.031 359.585 293.406C356.293 282.505 352.241 272.238 347.936 261.401C344.707 253.162 341.288 244.67 338.313 235.861C329.006 208.419 322.929 183.386 319.826 159.303C318.307 147.832 317.611 136.361 316.914 125.27C316.661 121.657 316.471 118.045 316.218 114.496C316.028 111.391 315.775 108.222 315.585 105.053C312.926 66.0135 310.077 23.8052 294.819 -12.0655L297.605 -12.0655C312.609 23.9319 315.458 65.9501 318.117 104.863C318.307 108.032 318.56 111.2 318.75 114.306C319.003 117.855 319.257 121.467 319.447 125.08C320.143 136.171 320.839 147.578 322.359 158.922C325.461 182.815 331.475 207.658 340.718 234.973C343.694 243.719 347.049 252.212 350.278 260.387C354.583 271.288 358.698 281.618 361.99 292.582C368.891 315.651 372.437 339.607 372.437 363.056C372.437 372.055 371.93 380.991 370.854 389.737C365.029 438.6 340.212 483.09 300.897 514.968C272.218 538.163 242.526 544.501 211.061 551.155C207.325 551.979 203.464 552.803 199.602 553.627C168.074 560.599 144.143 577.33 116.413 596.786C109.829 601.413 103.055 606.166 95.9008 610.919C69.8173 628.474 38.9855 640.515 6.76103 645.712C-24.7671 651.036 -56.4218 649.451 -84.8478 641.403Z" fill="white"/>
<path d="M-99.6622 630.185C-109.222 627.016 -118.528 622.834 -127.455 618.778L-127.455 615.989C-117.832 620.425 -108.652 624.545 -98.8392 627.777C-71.4895 636.84 -40.6577 639.184 -9.63608 634.685C22.0187 630.058 52.2173 618.461 77.731 601.032C84.3152 596.533 90.5828 592.096 96.6605 587.787C124.58 567.95 148.701 550.839 181.748 545.325C186.433 544.564 191.245 543.804 195.867 543.107C226.192 538.48 254.871 534.107 282.664 512.876C322.042 482.646 346.48 439.551 351.228 391.385C354.33 360.331 350.278 327.566 339.579 296.701C335.97 286.371 331.665 276.675 327.107 266.471C323.372 258.169 319.573 249.613 316.155 240.677C306.278 214.566 299.757 189.533 296.845 166.337C295.326 154.423 294.819 142.508 294.376 130.974C294.249 128.122 294.123 125.333 293.996 122.545C293.806 117.982 293.616 113.419 293.426 108.792C291.717 68.0415 289.881 23.7417 271.838 -12.0022L274.687 -12.0022C292.35 23.9319 294.186 68.1048 295.896 108.665C296.085 113.292 296.275 117.918 296.465 122.418C296.592 125.206 296.719 128.058 296.845 130.847C297.352 142.318 297.795 154.169 299.314 165.957C302.226 189.026 308.621 213.806 318.434 239.727C321.789 248.599 325.588 257.092 329.323 265.394C333.755 275.217 338.25 285.421 341.922 295.878C350.342 320.277 354.71 345.818 354.71 370.788C354.71 377.823 354.393 384.731 353.697 391.638C348.822 440.438 324.068 484.231 283.993 514.905C255.694 536.516 225.369 541.142 196.056 545.642C191.435 546.339 186.687 547.099 182.002 547.86C149.524 553.31 125.656 570.232 97.99 589.878C91.9123 594.188 85.6447 598.624 79.0605 603.124C53.2935 620.742 22.7151 632.467 -9.31954 637.157C-40.721 641.783 -71.9326 639.375 -99.6622 630.185Z" fill="white"/>
<path d="M-114.477 618.968C-118.908 617.32 -123.213 615.355 -127.455 613.391L-127.455 610.602C-122.897 612.757 -118.338 614.848 -113.59 616.623C-87.0003 626.763 -56.5484 629.995 -25.6534 626.002C5.8114 621.946 35.7568 610.602 60.8906 593.174C67.0316 588.927 72.9194 584.681 78.6173 580.562C106.41 560.535 130.341 543.297 164.275 539.431C169.72 538.797 175.228 538.29 180.546 537.783C208.971 535.121 238.41 532.396 265.823 512.623C285.196 498.617 301.023 481.379 312.736 461.415C325.018 440.501 332.235 417.559 334.198 393.223C336.667 362.422 331.665 330.164 319.763 299.934C315.838 290.11 311.28 280.921 306.405 271.224C302.226 262.922 297.985 254.366 294.186 245.43C283.55 220.27 276.776 195.997 274.054 173.245C272.534 161.014 272.344 148.719 272.091 136.868C272.028 134.713 272.028 132.621 271.964 130.53C271.838 124.89 271.774 119.313 271.711 113.419C271.141 70.4497 270.508 23.2981 248.16 -12.0022L251.199 -12.0022C273.041 23.615 273.674 70.5765 274.244 113.355C274.307 119.249 274.37 124.89 274.497 130.467C274.56 132.558 274.56 134.713 274.623 136.868C274.877 148.656 275.067 160.887 276.586 172.992C279.308 195.49 286.019 219.573 296.528 244.48C300.264 253.352 304.569 261.908 308.684 270.147C313.369 279.463 318.18 289.096 322.105 299.046C332.172 324.523 337.363 351.458 337.363 377.759C337.363 383.019 337.173 388.28 336.73 393.476C334.767 418.193 327.423 441.452 314.952 462.746C303.049 483.026 287.032 500.518 267.343 514.714C239.36 534.868 209.605 537.656 180.799 540.318C175.481 540.825 169.973 541.332 164.592 541.966C131.354 545.769 107.613 562.88 80.1367 582.653C74.4389 586.773 68.5511 590.955 62.4101 595.265C36.9597 612.884 6.63441 624.418 -25.2736 628.537C-56.6751 632.53 -87.5068 629.234 -114.477 618.968Z" fill="white"/>
<path d="M-127.455 608.13L-127.455 606.039C-101.751 617.003 -72.1226 620.996 -41.6707 617.637C-10.3325 614.151 19.3596 603.06 44.2402 585.569C50.0647 581.449 55.636 577.393 61.0173 573.464C88.4936 553.374 112.235 536.009 146.865 533.854C152.879 533.474 159.02 533.283 164.971 533.093C193.017 532.143 221.95 531.192 249.236 512.686C268.926 499.314 284.88 482.583 296.592 462.81C308.874 442.149 315.838 419.397 317.357 395.188C319.257 364.577 313.242 332.762 300.011 303.166C295.769 293.723 290.704 284.597 285.766 275.787C281.208 267.612 276.459 259.12 272.281 250.184C260.949 225.974 253.921 202.462 251.389 180.28C250.186 170.14 249.996 160 249.996 150.113C249.996 147.768 249.996 145.423 249.996 143.142C249.996 141.621 249.996 140.1 249.996 138.579C249.996 132.178 250.123 125.713 250.249 118.869C251.009 72.9213 251.895 22.0939 222.71 -11.9389L225.242 -11.9389C253.731 22.5375 252.908 73.1749 252.149 118.932C252.022 125.777 251.895 132.241 251.895 138.642C251.895 140.163 251.895 141.684 251.895 143.205C251.832 155.247 251.769 167.732 253.225 180.153C255.757 202.145 262.721 225.467 273.99 249.486C278.105 258.359 282.854 266.788 287.412 274.964C292.35 283.836 297.478 292.962 301.72 302.532C313.432 328.833 319.573 356.845 319.573 384.287C319.573 388.026 319.446 391.765 319.257 395.441C317.737 419.968 310.71 443.036 298.238 463.95C286.336 483.914 270.192 500.898 250.313 514.398C222.583 533.157 193.334 534.171 165.035 535.121C159.084 535.312 152.943 535.502 146.992 535.882C112.931 537.973 90.5195 554.388 62.1568 575.112C56.7755 579.041 51.2043 583.097 45.3798 587.216C20.246 604.898 -9.69943 616.116 -41.3542 619.601C-71.9326 622.897 -101.625 618.968 -127.455 608.13Z" fill="white"/>
<path d="M-127.455 602.997L-127.455 600.969C-105.993 608.447 -82.1888 611.173 -57.688 608.828C-26.6031 605.912 2.83584 595.075 27.3999 577.583C32.8445 573.654 38.0359 569.788 43.0373 566.049C71.4633 544.881 93.8749 528.15 129.328 527.833C135.849 527.77 142.497 527.96 148.954 528.087C176.62 528.784 205.236 529.545 232.396 512.306C273.484 486.132 298.238 444.05 300.2 396.899C301.467 366.478 294.503 335.171 280.005 306.335C275.446 297.272 270.065 288.59 264.81 280.161C259.809 272.112 254.618 263.746 250.059 254.874C238.03 231.551 230.687 208.736 228.344 187.125C227.584 180.28 227.331 173.372 227.331 166.591C227.331 160.76 227.521 154.993 227.711 149.289L227.774 146.437C227.964 139.403 228.344 132.305 228.724 124.763C231.193 74.8228 233.915 18.9253 193.144 -12.0655L196.246 -12.0655C235.751 19.6858 233.029 75.2664 230.56 124.89C230.18 132.431 229.864 139.53 229.61 146.564L229.547 149.416C229.167 161.711 228.787 174.386 230.18 186.998C232.523 208.419 239.803 230.981 251.705 254.113C256.264 262.922 261.392 271.225 266.393 279.273C271.648 287.702 277.092 296.512 281.651 305.638C295.136 332.509 302.163 361.535 302.163 390.054C302.163 392.399 302.1 394.807 302.036 397.152C300.074 445.001 275.003 487.59 233.409 514.144C205.806 531.699 176.874 530.939 148.891 530.178C142.433 529.988 135.786 529.861 129.328 529.925C94.4446 530.242 72.223 546.783 44.1136 567.76C39.1122 571.499 33.9208 575.365 28.4129 579.295C3.59556 596.976 -26.1599 607.877 -57.6247 610.856C-82.0622 613.074 -105.93 610.412 -127.455 602.997Z" fill="white"/>
<path d="M-127.455 597.293L-127.455 595.328C-81.9988 607.497 -29.0088 598.434 10.5596 569.725C15.8143 565.859 20.8157 562.12 25.6906 558.444C53.6733 537.213 75.7684 520.482 111.918 522.003C118.819 522.319 125.973 522.89 132.873 523.524C160.286 525.869 188.649 528.34 215.682 512.243C257.467 487.336 282.094 446.015 283.107 398.863C283.803 368.633 275.826 337.832 260.062 309.694C255.187 300.948 249.49 292.645 243.918 284.533C238.474 276.611 232.902 268.436 227.964 259.753C215.176 237.318 207.579 215.264 205.426 194.159C204.856 188.899 204.666 183.702 204.666 178.442C204.666 170.774 205.11 163.169 205.553 155.754L205.616 154.423C206.059 147.008 206.692 139.339 207.389 131.291C211.82 77.8014 216.948 17.0873 161.553 -8.51649C158.957 -9.72063 156.361 -10.8614 153.702 -12.0655L158.387 -12.0655C159.717 -11.4952 161.046 -10.8614 162.312 -10.291C187.573 1.37014 202.704 21.2702 208.655 50.4864C213.846 75.9001 211.441 104.166 209.161 131.481C208.465 139.529 207.832 147.135 207.389 154.613L207.325 155.944C206.629 168.365 205.869 181.231 207.199 194.033C209.351 214.82 216.885 236.621 229.547 258.866C234.485 267.485 240.056 275.661 245.438 283.519C251.009 291.631 256.707 299.997 261.645 308.806C276.903 336.121 284.943 366.035 284.943 395.441C284.943 396.582 284.943 397.786 284.88 398.927C283.867 446.712 258.923 488.604 216.505 513.891C188.902 530.305 160.286 527.833 132.557 525.425C125.656 524.855 118.566 524.221 111.665 523.904C76.2115 522.446 54.3697 538.987 26.6402 559.965C21.8287 563.641 16.7639 567.443 11.5092 571.309C-28.2491 600.208 -81.619 609.398 -127.455 597.293Z" fill="white"/>
<path d="M-127.455 589.625L-127.455 588.357C-113.717 591.463 -99.2823 592.667 -84.6578 591.843C-54.3326 590.068 -24.5771 579.548 -0.962698 562.183C4.16537 558.38 9.0402 554.641 13.7251 551.029C41.2014 529.861 62.9799 513.13 99.5095 516.489C106.79 517.186 114.324 518.263 121.604 519.341C148.891 523.334 177.064 527.39 204.16 512.37C224.419 501.089 241.259 485.308 252.782 466.739C265.064 446.966 271.331 424.847 271.395 400.891L271.395 400.638C271.395 370.661 262.468 340.367 245.501 312.989C240.246 304.56 234.232 296.511 228.408 288.78C222.583 281.048 216.569 273.126 211.251 264.57C197.766 243.022 189.915 221.791 187.889 201.321C187.446 197.201 187.32 193.082 187.32 188.963C187.32 180.09 188.079 171.281 188.839 162.725C189.536 154.993 190.485 147.008 191.498 138.579C194.664 112.151 197.956 84.8995 193.587 60.5632C188.649 32.8679 174.278 14.3622 149.651 3.96855C145.852 2.38415 141.927 0.799758 138.128 -0.721262C129.708 -4.08018 121.098 -7.50248 112.868 -11.7487L115.653 -11.7487C123.124 -8.00948 130.911 -4.90407 138.571 -1.86203C142.37 -0.341007 146.295 1.18001 150.094 2.82778C175.101 13.4115 189.725 32.2342 194.79 60.373C199.159 84.8995 195.866 112.278 192.701 138.769C191.688 147.198 190.738 155.183 190.042 162.915C188.966 175.464 187.763 188.392 189.092 201.321C191.118 221.601 198.905 242.642 212.264 264C217.582 272.492 223.533 280.414 229.357 288.146C235.245 295.941 241.259 303.99 246.514 312.482C263.608 340.051 272.598 370.598 272.598 400.828L272.598 401.082C272.534 425.291 266.267 447.663 253.795 467.626C242.082 486.449 225.115 502.356 204.666 513.7C177.19 528.974 148.764 524.855 121.288 520.862C114.007 519.784 106.537 518.707 99.2562 518.01C63.1698 514.651 41.6446 531.255 14.3582 552.296C9.67329 555.909 4.79846 559.648 -0.329603 563.45C-24.134 581.006 -54.1427 591.589 -84.6578 593.364C-99.219 593.934 -113.717 592.73 -127.455 589.625Z" fill="white"/>
<path d="M-127.455 581.322L-127.455 580.055C-87.2535 588.547 -42.3671 579.738 -8.30661 554.261C-3.30516 550.458 1.44306 546.783 6.00134 543.17C33.0345 521.939 54.4331 505.208 91.5324 510.532C99.1296 511.609 106.98 513.257 114.577 514.778C141.674 520.291 169.72 526.059 196.879 512.053C217.392 501.405 234.359 486.132 245.944 467.816C258.226 448.36 264.241 426.432 263.798 402.603C263.164 364.957 247.78 334.79 235.055 316.095C229.484 307.919 223.09 300.187 216.885 292.709C210.681 285.23 204.287 277.499 198.589 269.196C184.407 248.536 176.304 228.002 174.405 208.165C174.088 204.87 173.961 201.574 173.961 198.279C173.961 188.392 175.101 178.696 176.114 170.52C177.064 162.662 178.393 154.423 179.723 145.677C183.584 121.214 188.016 93.4552 184.407 69.9427C180.292 43.1348 166.428 25.5163 141.927 16.2C138.192 14.8058 134.393 13.4115 130.658 12.0806C117.363 7.32741 103.561 2.44747 91.7224 -6.17164C89.3166 -7.94616 86.9742 -9.91082 84.695 -12.0022L86.5943 -12.0022C88.4936 -10.2911 90.4562 -8.70667 92.4821 -7.18565C104.194 1.37008 117.869 6.18665 131.101 10.9398C134.836 12.2707 138.635 13.6016 142.37 15.0593C167.314 24.5656 181.495 42.501 185.674 69.816C189.282 93.5819 184.914 121.404 180.989 145.994C179.596 154.74 178.33 162.915 177.38 170.774C176.051 181.611 174.468 195.11 175.671 208.102C177.507 227.749 185.547 248.092 199.602 268.563C205.3 276.801 211.631 284.533 217.835 292.012C224.039 299.49 230.433 307.222 236.068 315.461C254.491 342.459 264.557 372.626 265.064 402.666C265.064 403.553 265.064 404.44 265.064 405.328C265.064 428.397 258.986 449.627 247.021 468.577C235.308 487.083 218.151 502.546 197.449 513.257C169.91 527.516 141.674 521.686 114.324 516.109C106.727 514.588 98.8764 512.94 91.3425 511.862C54.8129 506.602 33.6043 523.207 6.82437 544.248C2.26609 547.86 -2.48214 551.536 -7.5469 555.338C-41.8606 580.879 -87.0003 589.815 -127.455 581.322Z" fill="white"/>
<path d="M-127.455 572.83L-127.455 572.196C-117.832 574.098 -107.829 574.922 -97.6996 574.731C-67.6909 574.161 -38.5052 564.148 -15.4606 546.656C-10.5224 542.917 -5.90084 539.178 -1.40587 535.628C25.1208 514.461 46.0763 497.73 83.4921 505.018C91.3425 506.539 99.1296 508.567 107.36 510.785C134.393 517.883 162.376 525.298 189.725 512.179C233.346 491.265 258.29 450.958 256.454 404.504C255.061 367.112 238.474 337.452 224.799 319.2C218.848 311.278 212.137 303.863 205.616 296.701C199.032 289.413 192.258 281.935 186.18 273.823C171.302 254.113 162.946 234.34 161.236 215.137C160.983 212.475 160.92 209.877 160.92 207.215C160.92 197.772 162.249 188.265 163.705 178.632C164.908 170.71 166.617 162.345 168.39 153.472C173.138 129.643 178.52 102.581 175.671 79.7026C172.442 53.5917 158.957 36.7971 134.393 28.4315C130.721 27.164 126.922 26.0232 123.314 24.8191C110.082 20.6997 96.4706 16.3901 84.8849 8.08786C77.731 2.95442 71.4633 -3.70005 66.0187 -11.9389L66.7784 -11.9389C72.1597 -3.95355 78.3008 2.57416 85.2648 7.58085C96.7238 15.8197 110.335 20.1293 123.504 24.2487C127.176 25.3895 130.974 26.5936 134.646 27.8611C159.464 36.3535 173.075 53.2748 176.367 79.7026C179.216 102.645 173.835 129.769 169.087 153.662C167.314 162.535 165.668 170.9 164.465 178.822C162.566 191.117 160.92 203.159 161.996 215.2C163.642 234.276 171.999 253.923 186.813 273.569C192.891 281.618 199.665 289.096 206.186 296.385C212.707 303.609 219.418 311.024 225.369 318.946C239.107 337.262 255.757 366.985 257.15 404.567C257.213 406.215 257.277 407.799 257.277 409.447C257.277 454.127 232.459 492.533 190.105 512.813C162.566 525.995 134.52 518.58 107.297 511.482C99.0663 509.328 91.2792 507.236 83.4288 505.715C66.3353 502.42 51.7108 503.814 37.4028 510.215C24.2978 516.045 12.5855 525.425 -0.962699 536.199C-5.45768 539.748 -10.0793 543.487 -15.0174 547.226C-38.1887 564.845 -67.501 574.858 -97.6363 575.492C-107.829 575.555 -117.832 574.668 -127.455 572.83Z" fill="#DDE1E6"/>
<path d="M-127.455 564.528L-127.455 563.831C-119.478 565.288 -111.311 566.049 -103.018 566.049C-73.1988 566.049 -44.2664 556.352 -21.5383 538.734C-16.6635 534.995 -12.1685 531.255 -7.73682 527.706C19.3596 505.715 38.9223 489.871 76.7813 499.061C84.8216 501.025 92.9252 503.624 101.409 506.349C128.379 515.031 156.298 524.031 183.711 511.862C204.793 502.546 222.077 488.16 233.662 470.415C245.818 451.782 251.515 429.601 250.059 406.278C248.35 377.189 236.068 347.402 215.556 322.369C209.161 314.637 202.071 307.412 195.17 300.441C188.269 293.469 181.179 286.244 174.784 278.513C159.21 259.69 150.537 240.677 149.017 222.045C148.827 219.89 148.764 217.799 148.764 215.644C148.764 205.694 150.474 195.87 152.246 186.554C153.766 178.696 155.792 170.267 157.944 161.331C163.579 138.072 169.91 111.707 167.884 89.5258C165.541 64.1121 152.499 48.2048 127.935 40.8532C124.327 39.7758 120.528 38.7618 116.92 37.7478C103.814 34.1987 90.2662 30.5229 79.0605 22.5376C68.3611 14.9325 59.8144 3.33467 53.5467 -11.9389L54.2431 -11.9389C60.4474 3.14454 68.9309 14.5522 79.4403 22.0305C90.5828 29.9525 104.068 33.6283 117.109 37.1774C120.718 38.1914 124.517 39.2054 128.125 40.2828C152.879 47.7611 166.111 63.8586 168.517 89.5258C170.606 111.834 164.212 138.262 158.577 161.584C156.425 170.52 154.399 178.949 152.879 186.808C150.727 198.089 148.701 210.13 149.651 222.108C151.107 240.614 159.717 259.5 175.228 278.259C181.622 285.991 188.712 293.216 195.613 300.124C202.514 307.095 209.605 314.32 215.999 322.052C236.638 347.149 248.92 377.062 250.692 406.278C250.819 408.623 250.882 410.968 250.882 413.25C250.882 434.164 245.185 453.937 234.169 470.795C222.52 488.667 205.11 503.117 183.901 512.496C156.235 524.728 128.252 515.728 101.155 506.983C92.6087 504.257 84.5684 501.659 76.5281 499.694C38.9856 490.568 19.5496 506.349 -7.42028 528.213C-11.7886 531.762 -16.3469 535.502 -21.2217 539.241C-51.547 562.753 -91.1154 571.182 -127.455 564.528Z" fill="#DDE1E6"/>
<path d="M-108.968 557.937C-115.236 557.81 -121.44 557.24 -127.518 556.226L-127.518 555.592C-121.44 556.606 -115.236 557.176 -108.968 557.303C-79.4024 557.873 -50.7232 548.43 -28.2483 530.812C-23.5001 527.073 -19.0051 523.334 -14.7001 519.785C11.8899 497.793 31.136 481.949 69.3749 493.103C77.6684 495.512 85.962 498.68 94.6987 502.039C121.605 512.306 149.461 522.89 177.001 511.672C198.336 502.99 215.746 489.111 227.395 471.619C239.551 453.303 244.932 431.375 243.096 408.116C240.754 379.09 227.459 349.811 205.68 325.601C198.843 318.059 191.309 311.025 184.028 304.243C176.874 297.589 169.467 290.681 162.756 283.329C146.486 265.331 137.496 247.078 136.23 229.016C136.103 227.305 136.04 225.657 136.04 223.946C136.04 213.616 138.192 203.476 140.218 194.54C141.991 186.808 144.397 178.379 146.929 169.506C156.299 136.804 166.871 99.7295 153.007 75.4565C146.739 64.4925 136.293 57.2676 120.909 53.275C117.3 52.3243 113.502 51.5004 109.893 50.6132C96.9145 47.6345 83.5562 44.5925 72.6037 36.924C58.8655 27.2909 49.3691 10.8131 44.3043 -12.0655L44.9374 -12.0655C49.9389 10.5596 59.372 26.8472 72.9202 36.417C83.8094 44.0221 97.1044 47.0641 110.02 50.0428C113.628 50.8667 117.427 51.7539 121.035 52.7046C136.356 56.6973 147.309 64.239 153.513 75.203C167.505 99.6661 156.869 136.931 147.499 169.76C144.966 178.632 142.561 187.061 140.788 194.793C138.382 205.123 135.913 217.165 136.799 229.08C138.129 247.015 146.992 265.14 163.2 283.012C169.91 290.364 177.254 297.272 184.408 303.926C191.752 310.708 199.286 317.742 206.123 325.347C227.965 349.62 241.323 379.027 243.666 408.18C243.919 411.222 244.046 414.2 244.046 417.179C244.046 437.206 238.538 456.028 227.902 472.126C216.253 489.744 198.716 503.624 177.254 512.37C149.461 523.65 121.542 513.067 94.4454 502.8C85.7087 499.441 77.4152 496.335 69.185 493.927C31.2626 482.836 12.1431 498.617 -14.3202 520.482C-18.6253 524.031 -23.1202 527.707 -27.8684 531.509C-50.4066 549.064 -79.2124 558.507 -108.968 557.937Z" fill="#DDE1E6"/>
</g>
</svg>
