<?xml version="1.0" encoding="UTF-8" standalone="no"?>
<svg width="392" height="762" viewBox="0 0 392 762" fill="none" version="1.1" id="svg13"
    xmlns="http://www.w3.org/2000/svg" xmlns:svg="http://www.w3.org/2000/svg">
    <defs id="defs13" />
    <mask id="mask0_4377_50604" maskUnits="userSpaceOnUse" x="-115" y="0" width="507" height="762">
        <path d="M -114.477,761.5 V 0.989891 l 506.476,-2.2e-5 V 761.5 Z" fill="#ffffff" id="path1" />
    </mask>
    <g mask="url(#mask0_4377_50604)" id="g13">
        <path
            d="m -70.0959,653.001 c -11.2057,-2.662 -21.7151,-6.338 -32.7941,-10.204 -7.977,-2.789 -16.144,-5.64 -24.628,-8.112 v -3.296 c 8.864,2.535 17.347,5.514 25.641,8.366 11.0156,3.866 21.4617,7.478 32.4776,10.14 28.6791,6.845 60.3972,7.479 91.7354,1.838 31.9713,-5.767 62.6764,-17.872 88.823,-35.174 7.787,-5.133 15.258,-10.33 22.475,-15.273 27.856,-19.266 51.914,-35.871 82.809,-44.427 2.722,-0.76 5.508,-1.521 8.23,-2.218 32.098,-8.682 62.423,-16.921 91.166,-41.511 38.049,-32.639 62.676,-77.192 69.324,-125.484 4.368,-32.005 2.405,-64.77 -5.952,-97.409 -2.975,-11.534 -6.774,-22.498 -10.762,-34.033 -2.786,-8.048 -5.698,-16.414 -8.294,-24.97 -8.61,-28.519 -14.371,-54.313 -17.663,-78.776 -1.456,-10.901 -2.342,-21.801 -3.229,-32.385 -0.38,-4.436 -0.759,-8.999 -1.139,-13.436 l -0.38,-3.866 C 334.642,68.4217 331.349,32.9312 321.283,0.292624 319.954,-3.89018 318.561,-8.00961 317.105,-11.9389 h 3.355 c 13.295,36.0608 17.031,76.6214 20.449,114.4569 l 0.38,3.866 c 0.38,4.436 0.76,9.063 1.14,13.499 0.886,10.52 1.772,21.421 3.228,32.195 3.229,24.273 8.99,49.877 17.537,78.269 2.596,8.492 5.445,16.858 8.23,24.843 4.052,11.661 7.851,22.626 10.826,34.287 5.508,21.674 8.294,43.349 8.294,64.897 0,11.344 -0.76,22.561 -2.279,33.715 -6.711,49.053 -31.718,94.304 -70.4,127.449 -29.313,25.097 -59.954,33.336 -92.369,42.145 -2.722,0.761 -5.508,1.458 -8.23,2.218 -30.389,8.366 -54.256,24.844 -81.859,43.92 -7.218,5.007 -14.688,10.14 -22.475,15.337 -26.4635,17.492 -57.6118,29.85 -90.0262,35.68 -31.71807,5.704 -63.8793,5.071 -93.0017,-1.837 z"
            fill="#ffffff" id="path2" />
        <path
            d="m -84.8478,641.403 c -10.636,-2.979 -20.9552,-7.162 -30.8952,-11.154 -3.862,-1.521 -7.787,-3.106 -11.712,-4.627 v -2.725 c 4.305,1.648 8.483,3.359 12.662,5.007 10.383,4.182 20.1956,8.112 30.6416,11.09 28.0461,7.922 59.321,9.443 90.53258,4.373 C 38.2258,638.17 68.741,626.256 94.508,608.954 c 7.091,-4.753 13.928,-9.506 20.449,-14.133 27.983,-19.583 52.104,-36.504 84.138,-43.539 3.799,-0.824 7.724,-1.648 11.459,-2.471 31.149,-6.591 60.524,-12.866 88.76,-35.681 38.809,-31.434 63.373,-75.354 69.071,-123.583 3.735,-31.308 0.696,-64.516 -8.8,-96.141 -3.292,-10.901 -7.344,-21.168 -11.649,-32.005 -3.229,-8.239 -6.648,-16.731 -9.623,-25.54 -9.307,-27.442 -15.384,-52.475 -18.487,-76.558 -1.519,-11.471 -2.215,-22.942 -2.912,-34.033 -0.253,-3.613 -0.443,-7.225 -0.696,-10.774 -0.19,-3.105 -0.443,-6.274 -0.633,-9.443 -2.659,-39.0395 -5.508,-81.2478 -20.766,-117.1185 h 2.786 c 15.004,35.9974 17.853,78.0156 20.512,116.9285 0.19,3.169 0.443,6.337 0.633,9.443 0.253,3.549 0.507,7.161 0.697,10.774 0.696,11.091 1.392,22.498 2.912,33.842 3.102,23.893 9.116,48.736 18.359,76.051 2.976,8.746 6.331,17.239 9.56,25.414 4.305,10.901 8.42,21.231 11.712,32.195 6.901,23.069 10.447,47.025 10.447,70.474 0,8.999 -0.507,17.935 -1.583,26.681 -5.825,48.863 -30.642,93.353 -69.957,125.231 -28.679,23.195 -58.371,29.533 -89.836,36.187 -3.736,0.824 -7.597,1.648 -11.459,2.472 -31.528,6.972 -55.459,23.703 -83.189,43.159 -6.584,4.627 -13.358,9.38 -20.5122,14.133 -26.0835,17.555 -56.9153,29.596 -89.13977,34.793 -31.52813,5.324 -63.18283,3.739 -91.60883,-4.309 z"
            fill="#ffffff" id="path3" />
        <path
            d="m -99.6622,630.185 c -9.5598,-3.169 -18.8658,-7.351 -27.7928,-11.407 v -2.789 c 9.623,4.436 18.803,8.556 28.6158,11.788 27.3497,9.063 58.1815,11.407 89.20312,6.908 31.65478,-4.627 61.85338,-16.224 87.36708,-33.653 6.5842,-4.499 12.8518,-8.936 18.9295,-13.245 27.9195,-19.837 52.0405,-36.948 85.0875,-42.462 4.685,-0.761 9.497,-1.521 14.119,-2.218 30.325,-4.627 59.004,-9 86.797,-30.231 39.378,-30.23 63.816,-73.325 68.564,-121.491 3.102,-31.054 -0.95,-63.819 -11.649,-94.684 -3.609,-10.33 -7.914,-20.026 -12.472,-30.23 -3.735,-8.302 -7.534,-16.858 -10.952,-25.794 -9.877,-26.111 -16.398,-51.144 -19.31,-74.34 -1.519,-11.914 -2.026,-23.829 -2.469,-35.363 -0.127,-2.852 -0.253,-5.641 -0.38,-8.429 -0.19,-4.563 -0.38,-9.126 -0.57,-13.753 -1.709,-40.7505 -3.545,-85.0503 -21.588,-120.7942 h 2.849 c 17.663,35.9341 19.499,80.107 21.209,120.6672 0.189,4.627 0.379,9.253 0.569,13.753 0.127,2.788 0.254,5.64 0.38,8.429 0.507,11.471 0.95,23.322 2.469,35.11 2.912,23.069 9.307,47.849 19.12,73.77 3.355,8.872 7.154,17.365 10.889,25.667 4.432,9.823 8.927,20.027 12.599,30.484 8.42,24.399 12.788,49.94 12.788,74.91 0,7.035 -0.317,13.943 -1.013,20.85 -4.875,48.8 -29.629,92.593 -69.704,123.267 -28.299,21.611 -58.624,26.237 -87.937,30.737 -4.621,0.697 -9.369,1.457 -14.054,2.218 -32.478,5.45 -56.346,22.372 -84.012,42.018 -6.0777,4.31 -12.3453,8.746 -18.9295,13.246 -25.767,17.618 -56.3454,29.343 -88.38004,34.033 -31.40146,4.626 -62.61306,2.218 -90.34266,-6.972 z"
            fill="#ffffff" id="path4" />
        <path
            d="m -114.477,618.968 c -4.431,-1.648 -8.736,-3.613 -12.978,-5.577 v -2.789 c 4.558,2.155 9.117,4.246 13.865,6.021 26.5897,10.14 57.0416,13.372 87.9366,9.379 31.4648,-4.056 61.4102,-15.4 86.544,-32.828 6.141,-4.247 12.0288,-8.493 17.7267,-12.612 27.7927,-20.027 51.7237,-37.265 85.6577,-41.131 5.445,-0.634 10.953,-1.141 16.271,-1.648 28.425,-2.662 57.864,-5.387 85.277,-25.16 19.373,-14.006 35.2,-31.244 46.913,-51.208 12.282,-20.914 19.499,-43.856 21.462,-68.192 2.469,-30.801 -2.533,-63.059 -14.435,-93.289 -3.925,-9.824 -8.483,-19.013 -13.358,-28.71 -4.179,-8.302 -8.42,-16.858 -12.219,-25.794 -10.636,-25.16 -17.41,-49.433 -20.132,-72.185 -1.52,-12.231 -1.71,-24.526 -1.963,-36.377 -0.063,-2.155 -0.063,-4.247 -0.127,-6.338 -0.126,-5.64 -0.19,-11.217 -0.253,-17.111 -0.57,-42.9693 -1.203,-90.1209 -23.551,-125.4212 h 3.039 c 21.842,35.6172 22.475,82.5787 23.045,125.3572 0.063,5.894 0.126,11.535 0.253,17.112 0.063,2.091 0.063,4.246 0.126,6.401 0.254,11.788 0.444,24.019 1.963,36.124 2.722,22.498 9.433,46.581 19.942,71.488 3.736,8.872 8.041,17.428 12.156,25.667 4.685,9.316 9.496,18.949 13.421,28.899 10.067,25.477 15.258,52.412 15.258,78.713 0,5.26 -0.19,10.521 -0.633,15.717 -1.963,24.717 -9.307,47.976 -21.778,69.27 -11.903,20.28 -27.92,37.772 -47.609,51.968 -27.983,20.154 -57.738,22.942 -86.544,25.604 -5.318,0.507 -10.826,1.014 -16.207,1.648 -33.238,3.803 -56.979,20.914 -84.4553,40.687 -5.6978,4.12 -11.5856,8.302 -17.7266,12.612 -25.4504,17.619 -55.77569,29.153 -87.6837,33.272 -31.4015,3.993 -62.2332,0.697 -89.2034,-9.569 z"
            fill="#ffffff" id="path5" />
        <path
            d="m -127.455,608.13 v -2.091 c 25.704,10.964 55.3324,14.957 85.7843,11.598 31.3382,-3.486 61.0303,-14.577 85.9109,-32.068 5.8245,-4.12 11.3958,-8.176 16.7771,-12.105 27.4763,-20.09 51.2177,-37.455 85.8477,-39.61 6.014,-0.38 12.155,-0.571 18.106,-0.761 28.046,-0.95 56.979,-1.901 84.265,-20.407 19.69,-13.372 35.644,-30.103 47.356,-49.876 12.282,-20.661 19.246,-43.413 20.765,-67.622 1.9,-30.611 -4.115,-62.426 -17.346,-92.022 -4.242,-9.443 -9.307,-18.569 -14.245,-27.379 -4.558,-8.175 -9.307,-16.667 -13.485,-25.603 -11.332,-24.21 -18.36,-47.722 -20.892,-69.904 -1.203,-10.14 -1.393,-20.28 -1.393,-30.167 0,-2.345 0,-4.69 0,-6.971 0,-1.521 0,-3.042 0,-4.563 0,-6.401 0.127,-12.866 0.253,-19.71 0.76,-45.9477 1.646,-96.7751 -27.539,-130.8079 h 2.532 c 28.489,34.4764 27.666,85.1138 26.907,130.8709 -0.127,6.845 -0.254,13.309 -0.254,19.71 0,1.521 0,3.042 0,4.563 -0.063,12.042 -0.126,24.527 1.33,36.948 2.532,21.992 9.496,45.314 20.765,69.333 4.115,8.873 8.864,17.302 13.422,25.478 4.938,8.872 10.066,17.998 14.308,27.568 11.712,26.301 17.853,54.313 17.853,81.755 0,3.739 -0.127,7.478 -0.316,11.154 -1.52,24.527 -8.547,47.595 -21.019,68.509 -11.902,19.964 -28.046,36.948 -47.925,50.448 -27.73,18.759 -56.979,19.773 -85.278,20.723 -5.951,0.191 -12.092,0.381 -18.043,0.761 -34.061,2.091 -56.4725,18.506 -84.8352,39.23 -5.3813,3.929 -10.9525,7.985 -16.777,12.104 -25.1338,17.682 -55.07923,28.9 -86.734,32.385 -30.5784,3.296 -60.2708,-0.633 -86.1008,-11.471 z"
            fill="#ffffff" id="path6" />
        <path
            d="m -127.455,602.997 v -2.028 c 21.462,7.478 45.2662,10.204 69.767,7.859 31.0849,-2.916 60.52384,-13.753 85.0879,-31.245 5.4446,-3.929 10.636,-7.795 15.6374,-11.534 28.426,-21.168 50.8376,-37.899 86.2907,-38.216 6.521,-0.063 13.169,0.127 19.626,0.254 27.666,0.697 56.282,1.458 83.442,-15.781 41.088,-26.174 65.842,-68.256 67.804,-115.407 1.267,-30.421 -5.697,-61.728 -20.195,-90.564 -4.559,-9.063 -9.94,-17.745 -15.195,-26.174 -5.001,-8.049 -10.192,-16.415 -14.751,-25.287 -12.029,-23.323 -19.372,-46.138 -21.715,-67.749 -0.76,-6.845 -1.013,-13.753 -1.013,-20.534 0,-5.831 0.19,-11.598 0.38,-17.302 l 0.063,-2.852 c 0.19,-7.034 0.57,-14.132 0.95,-21.674 2.469,-49.9402 5.191,-105.8377 -35.58,-136.8285 h 3.102 c 39.505,31.7513 36.783,87.3319 34.314,136.9555 -0.38,7.541 -0.696,14.64 -0.95,21.674 l -0.063,2.852 c -0.38,12.295 -0.76,24.97 0.633,37.582 2.343,21.421 9.623,43.983 21.525,67.115 4.559,8.809 9.687,17.112 14.688,25.16 5.255,8.429 10.699,17.239 15.258,26.365 13.485,26.871 20.512,55.897 20.512,84.416 0,2.345 -0.063,4.753 -0.127,7.098 -1.962,47.849 -27.033,90.438 -68.627,116.992 -27.603,17.555 -56.535,16.795 -84.518,16.034 -6.458,-0.19 -13.105,-0.317 -19.563,-0.253 -34.8834,0.317 -57.105,16.858 -85.2144,37.835 -5.0014,3.739 -10.1928,7.605 -15.7007,11.535 -24.81734,17.681 -54.5728,28.582 -86.0376,31.561 -24.4375,2.218 -48.3053,-0.444 -69.8303,-7.859 z"
            fill="#ffffff" id="path7" />
        <path
            d="m -127.455,597.293 v -1.965 c 45.4562,12.169 98.4462,3.106 138.0146,-25.603 5.2547,-3.866 10.2561,-7.605 15.131,-11.281 27.9827,-21.231 50.0778,-37.962 86.2274,-36.441 6.901,0.316 14.055,0.887 20.955,1.521 27.413,2.345 55.776,4.816 82.809,-11.281 41.785,-24.907 66.412,-66.228 67.425,-113.38 0.696,-30.23 -7.281,-61.031 -23.045,-89.169 -4.875,-8.746 -10.572,-17.049 -16.144,-25.161 -5.444,-7.922 -11.016,-16.097 -15.954,-24.78 -12.788,-22.435 -20.385,-44.489 -22.538,-65.594 -0.57,-5.26 -0.76,-10.457 -0.76,-15.717 0,-7.668 0.444,-15.273 0.887,-22.688 l 0.063,-1.331 c 0.443,-7.415 1.076,-15.084 1.773,-23.132 4.431,-53.4896 9.559,-114.2037 -45.836,-139.80749 -2.596,-1.20414 -5.192,-2.34491 -7.851,-3.54901 h 4.685 c 1.33,0.5703 2.659,1.2041 3.925,1.7745 25.261,11.66114 40.392,31.5612 46.343,60.7774 5.191,25.4137 2.786,53.6796 0.506,80.9946 -0.696,8.048 -1.329,15.654 -1.772,23.132 l -0.064,1.331 c -0.696,12.421 -1.456,25.287 -0.126,38.089 2.152,20.787 9.686,42.588 22.348,64.833 4.938,8.619 10.509,16.795 15.891,24.653 5.571,8.112 11.269,16.478 16.207,25.287 15.258,27.315 23.298,57.229 23.298,86.635 0,1.141 0,2.345 -0.063,3.486 -1.013,47.785 -25.957,89.677 -68.375,114.964 -27.603,16.414 -56.219,13.942 -83.948,11.534 -6.901,-0.57 -13.991,-1.204 -20.892,-1.521 -35.4535,-1.458 -57.2953,15.083 -85.0248,36.061 -4.8115,3.676 -9.8763,7.478 -15.131,11.344 -39.7583,28.899 -93.1282,38.089 -138.9642,25.984 z"
            fill="#ffffff" id="path8" />
        <path
            d="m -127.455,589.625 v -1.268 c 13.738,3.106 28.1727,4.31 42.7972,3.486 30.3252,-1.775 60.0807,-12.295 83.695102,-29.66 C 4.16537,558.38 9.0402,554.641 13.7251,551.029 c 27.4763,-21.168 49.2548,-37.899 85.7844,-34.54 7.2805,0.697 14.8145,1.774 22.0945,2.852 27.287,3.993 55.46,8.049 82.556,-6.971 20.259,-11.281 37.099,-27.062 48.622,-45.631 12.282,-19.773 18.549,-41.892 18.613,-65.848 v -0.253 c 0,-29.977 -8.927,-60.271 -25.894,-87.649 -5.255,-8.429 -11.269,-16.478 -17.093,-24.209 -5.825,-7.732 -11.839,-15.654 -17.157,-24.21 -13.485,-21.548 -21.336,-42.779 -23.362,-63.249 -0.443,-4.12 -0.569,-8.239 -0.569,-12.358 0,-8.873 0.759,-17.682 1.519,-26.238 0.697,-7.732 1.646,-15.717 2.659,-24.146 3.166,-26.428 6.458,-53.6795 2.089,-78.0158 -4.938,-27.6953 -19.309,-46.201 -43.936,-56.59465 -3.799,-1.5844 -7.724,-3.168792 -11.523,-4.689812 -8.42,-3.358918 -17.03,-6.781218 -25.26,-11.027438 h 2.785 c 7.471,3.73922 15.258,6.84463 22.918,9.88667 3.799,1.521023 7.724,3.04204 11.523,4.68981 25.007,10.58372 39.631,29.40642 44.696,57.54522 4.369,24.5265 1.076,51.905 -2.089,78.396 -1.013,8.429 -1.963,16.414 -2.659,24.146 -1.076,12.549 -2.279,25.477 -0.95,38.406 2.026,20.28 9.813,41.321 23.172,62.679 5.318,8.492 11.269,16.414 17.093,24.146 5.888,7.795 11.902,15.844 17.157,24.336 17.094,27.569 26.084,58.116 26.084,88.346 v 0.254 c -0.064,24.209 -6.331,46.581 -18.803,66.544 -11.713,18.823 -28.68,34.73 -49.129,46.074 -27.476,15.274 -55.902,11.155 -83.378,7.162 -7.281,-1.078 -14.751,-2.155 -22.0318,-2.852 -36.0864,-3.359 -57.6116,13.245 -84.898,34.286 -4.68491,3.613 -9.55974,7.352 -14.687803,11.154 -23.804397,17.556 -53.813097,28.139 -84.328197,29.914 -14.5612,0.57 -29.0592,-0.634 -42.7972,-3.739 z"
            fill="#ffffff" id="path9" />
        <path
            d="m -127.455,581.322 v -1.267 c 40.2015,8.492 85.0879,-0.317 119.14839,-25.794 5.00145,-3.803 9.74967,-7.478 14.30795,-11.091 27.03316,-21.231 48.43176,-37.962 85.53106,-32.638 7.5972,1.077 15.4476,2.725 23.0446,4.246 27.097,5.513 55.143,11.281 82.302,-2.725 20.513,-10.648 37.48,-25.921 49.065,-44.237 12.282,-19.456 18.297,-41.384 17.854,-65.213 -0.634,-37.646 -16.018,-67.813 -28.743,-86.508 -5.571,-8.176 -11.965,-15.908 -18.17,-23.386 -6.204,-7.479 -12.598,-15.21 -18.296,-23.513 -14.182,-20.66 -22.285,-41.194 -24.184,-61.031 -0.317,-3.295 -0.444,-6.591 -0.444,-9.886 0,-9.887 1.14,-19.583 2.153,-27.759 0.95,-7.858 2.279,-16.097 3.609,-24.843 3.861,-24.463 8.293,-52.2218 4.684,-75.7343 C 180.292,43.1348 166.428,25.5163 141.927,16.2 138.192,14.8058 134.393,13.4115 130.658,12.0806 117.363,7.32741 103.561,2.44747 91.7224,-6.17164 89.3166,-7.94616 86.9742,-9.91082 84.695,-12.0022 h 1.8993 c 1.8993,1.7111 3.8619,3.29553 5.8878,4.81655 11.7119,8.55573 25.3869,13.3723 38.6189,18.12545 3.735,1.3309 7.534,2.6618 11.269,4.1195 24.944,9.5063 39.125,27.4417 43.304,54.7567 3.608,23.7659 -0.76,51.588 -4.685,76.178 -1.393,8.746 -2.659,16.921 -3.609,24.78 -1.329,10.837 -2.912,24.336 -1.709,37.328 1.836,19.647 9.876,39.99 23.931,60.461 5.698,8.238 12.029,15.97 18.233,23.449 6.204,7.478 12.598,15.21 18.233,23.449 18.423,26.998 28.489,57.165 28.996,87.205 0,0.887 0,1.774 0,2.662 0,23.069 -6.078,44.299 -18.043,63.249 -11.713,18.506 -28.87,33.969 -49.572,44.68 -27.539,14.259 -55.775,8.429 -83.125,2.852 -7.597,-1.521 -15.4476,-3.169 -22.9815,-4.247 -36.5296,-5.26 -57.7382,11.345 -84.51813,32.386 -4.55828,3.612 -9.30651,7.288 -14.37127,11.09 -34.3137,25.541 -79.4534,34.477 -119.9081,25.984 z"
            fill="#ffffff" id="path10" />
        <path
            d="m -127.455,572.83 v -0.634 c 9.623,1.902 19.626,2.726 29.7554,2.535 30.0087,-0.57 59.1944,-10.583 82.239,-28.075 4.9382,-3.739 9.55976,-7.478 14.05473,-11.028 26.52667,-21.167 47.48217,-37.898 84.89797,-30.61 7.8504,1.521 15.6375,3.549 23.8679,5.767 27.033,7.098 55.016,14.513 82.365,1.394 43.621,-20.914 68.565,-61.221 66.729,-107.675 -1.393,-37.392 -17.98,-67.052 -31.655,-85.304 -5.951,-7.922 -12.662,-15.337 -19.183,-22.499 -6.584,-7.288 -13.358,-14.766 -19.436,-22.878 -14.878,-19.71 -23.234,-39.483 -24.944,-58.686 -0.253,-2.662 -0.316,-5.26 -0.316,-7.922 0,-9.443 1.329,-18.95 2.785,-28.583 1.203,-7.922 2.912,-16.287 4.685,-25.16 4.748,-23.829 10.13,-50.891 7.281,-73.7694 C 172.442,53.5917 158.957,36.7971 134.393,28.4315 130.721,27.164 126.922,26.0232 123.314,24.8191 110.082,20.6997 96.4706,16.3901 84.8849,8.08786 77.731,2.95442 71.4633,-3.70005 66.0187,-11.9389 h 0.7597 c 5.3813,7.98535 11.5224,14.51306 18.4864,19.51975 11.459,8.23885 25.0702,12.54845 38.2392,16.66785 3.672,1.1408 7.47,2.3449 11.142,3.6124 24.818,8.4924 38.429,25.4137 41.721,51.8415 2.849,22.9424 -2.532,50.0664 -7.28,73.9594 -1.773,8.873 -3.419,17.238 -4.622,25.16 -1.899,12.295 -3.545,24.337 -2.469,36.378 1.646,19.076 10.003,38.723 24.817,58.369 6.078,8.049 12.852,15.527 19.373,22.816 6.521,7.224 13.232,14.639 19.183,22.561 13.738,18.316 30.388,48.039 31.781,85.621 0.063,1.648 0.127,3.232 0.127,4.88 0,44.68 -24.818,83.086 -67.172,103.366 -27.539,13.182 -55.585,5.767 -82.808,-1.331 -8.2307,-2.154 -16.0178,-4.246 -23.8682,-5.767 -17.0935,-3.295 -31.718,-1.901 -46.026,4.5 -13.105,5.83 -24.8173,15.21 -38.365499,25.984 -4.494981,3.549 -9.116601,7.288 -14.054701,11.027 -23.1713,17.619 -52.4836,27.632 -82.6189,28.266 -10.1927,0.063 -20.1957,-0.824 -29.8187,-2.662 z"
            fill="#dde1e6" id="path11" />
        <path
            d="m -127.455,564.528 v -0.697 c 7.977,1.457 16.144,2.218 24.437,2.218 29.8192,0 58.7516,-9.697 81.4797,-27.315 4.8748,-3.739 9.3698,-7.479 13.80148,-11.028 27.09642,-21.991 46.65912,-37.835 84.51812,-28.645 8.0403,1.964 16.1439,4.563 24.6277,7.288 26.97,8.682 54.889,17.682 82.302,5.513 21.082,-9.316 38.366,-23.702 49.951,-41.447 12.156,-18.633 17.853,-40.814 16.397,-64.137 -1.709,-29.089 -13.991,-58.876 -34.503,-83.909 -6.395,-7.732 -13.485,-14.957 -20.386,-21.928 -6.901,-6.972 -13.991,-14.197 -20.386,-21.928 -15.574,-18.823 -24.247,-37.836 -25.767,-56.468 -0.19,-2.155 -0.253,-4.246 -0.253,-6.401 0,-9.95 1.71,-19.774 3.482,-29.09 1.52,-7.858 3.546,-16.287 5.698,-25.223 5.635,-23.259 11.966,-49.624 9.94,-71.8052 C 165.541,64.1121 152.499,48.2048 127.935,40.8532 124.327,39.7758 120.528,38.7618 116.92,37.7478 103.814,34.1987 90.2662,30.5229 79.0605,22.5376 68.3611,14.9325 59.8144,3.33467 53.5467,-11.9389 h 0.6964 c 6.2043,15.08344 14.6878,26.4911 25.1972,33.9694 11.1425,7.922 24.6277,11.5978 37.6687,15.1469 3.609,1.014 7.408,2.028 11.016,3.1054 24.754,7.4783 37.986,23.5758 40.392,49.243 2.089,22.3082 -4.305,48.7362 -9.94,72.0582 -2.152,8.936 -4.178,17.365 -5.698,25.224 -2.152,11.281 -4.178,23.322 -3.228,35.3 1.456,18.506 10.066,37.392 25.577,56.151 6.394,7.732 13.484,14.957 20.385,21.865 6.901,6.971 13.992,14.196 20.386,21.928 20.639,25.097 32.921,55.01 34.693,84.226 0.127,2.345 0.19,4.69 0.19,6.972 0,20.914 -5.697,40.687 -16.713,57.545 -11.649,17.872 -29.059,32.322 -50.268,41.701 -27.666,12.232 -55.649,3.232 -82.746,-5.513 -8.5463,-2.726 -16.5866,-5.324 -24.6269,-7.289 -37.5425,-9.126 -56.9785,6.655 -83.94838,28.519 -4.36832,3.549 -8.92662,7.289 -13.80142,11.028 -30.3253,23.512 -69.8937,31.941 -106.2333,25.287 z"
            fill="#dde1e6" id="path12" />
        <path
            d="m -108.968,557.937 c -6.268,-0.127 -12.472,-0.697 -18.55,-1.711 v -0.634 c 6.078,1.014 12.282,1.584 18.55,1.711 29.5656,0.57 58.2448,-8.873 80.7197,-26.491 4.7482,-3.739 9.2432,-7.478 13.5482,-11.027 26.59,-21.992 45.8361,-37.836 84.075,-26.682 8.2935,2.409 16.5871,5.577 25.3238,8.936 26.9063,10.267 54.7623,20.851 82.3023,9.633 21.335,-8.682 38.745,-22.561 50.394,-40.053 12.156,-18.316 17.537,-40.244 15.701,-63.503 -2.342,-29.026 -15.637,-58.305 -37.416,-82.515 -6.837,-7.542 -14.371,-14.576 -21.652,-21.358 -7.154,-6.654 -14.561,-13.562 -21.272,-20.914 -16.27,-17.998 -25.26,-36.251 -26.526,-54.313 -0.127,-1.711 -0.19,-3.359 -0.19,-5.07 0,-10.33 2.152,-20.47 4.178,-29.406 1.773,-7.732 4.179,-16.161 6.711,-25.034 9.37,-32.702 19.942,-69.7765 6.078,-94.0495 C 146.739,64.4925 136.293,57.2676 120.909,53.275 117.3,52.3243 113.502,51.5004 109.893,50.6132 96.9145,47.6345 83.5562,44.5925 72.6037,36.924 58.8655,27.2909 49.3691,10.8131 44.3043,-12.0655 h 0.6331 c 5.0015,22.6251 14.4346,38.9127 27.9828,48.4825 10.8892,7.6051 24.1842,10.6471 37.0998,13.6258 3.608,0.8239 7.407,1.7111 11.015,2.6618 15.321,3.9927 26.274,11.5344 32.478,22.4984 13.992,24.4631 3.356,61.728 -6.014,94.557 -2.533,8.872 -4.938,17.301 -6.711,25.033 -2.406,10.33 -4.875,22.372 -3.989,34.287 1.33,17.935 10.193,36.06 26.401,53.932 6.71,7.352 14.054,14.26 21.208,20.914 7.344,6.782 14.878,13.816 21.715,21.421 21.842,24.273 35.2,53.68 37.543,82.833 0.253,3.042 0.38,6.02 0.38,8.999 0,20.027 -5.508,38.849 -16.144,54.947 -11.649,17.618 -29.186,31.498 -50.648,40.244 -27.793,11.28 -55.712,0.697 -82.8086,-9.57 -8.7367,-3.359 -17.0302,-6.465 -25.2604,-8.873 -37.9224,-11.091 -57.0419,4.69 -83.5052,26.555 -4.3051,3.549 -8.8,7.225 -13.5482,11.027 -22.5382,17.555 -51.344,26.998 -81.0996,26.428 z"
            fill="#dde1e6" id="path13" />
    </g>
</svg>
