<?xml version="1.0" encoding="UTF-8"?>
<svg id="Artwork" xmlns="http://www.w3.org/2000/svg" version="1.1" viewBox="0 0 3793.49 721.43">
  <defs>
    <style>
      .cls-1 {
        fill: #750014;
        stroke-width: 0px;
      }
    </style>
  </defs>
  <path class="cls-1" d="M720,717.1h160V237.1h-160v480ZM960,157.1h400V-2.9h-400v160ZM720-2.9h160v160h-160V-2.9ZM480,717.1h160V-2.9h-160v720ZM240,557.1h160V-2.9h-160v560ZM0,717.1h160V-2.9H0v720ZM960,717.1h160V237.1h-160v480Z"/>
  <g>
    <path class="cls-1" d="M1531.21,3.69h132.48c35.02,0,61.18,10.13,78.9,28.27,16.88,17.3,27,40.93,27,68.77,0,56.96-37.55,95.35-100.84,95.35h-74.26v109.28h-63.29V3.69ZM1594.49,146.29h63.29c32.07,0,48.94-17.72,48.94-45.15s-17.72-44.3-48.1-44.3h-64.13v89.45Z"/>
    <path class="cls-1" d="M1850.59,123.51h1.27c13.08-24.47,27.85-37.13,53.16-37.13,6.33,0,10.13.42,13.5,1.69v50.21h-1.27c-37.55-3.8-64.55,16.03-64.55,61.6v105.48h-57.38V88.91h55.27v34.6Z"/>
    <path class="cls-1" d="M1926.54,197.35c0-64.55,45.99-114.34,113.07-114.34s113.08,49.79,113.08,114.34-45.99,114.34-113.08,114.34-113.07-49.79-113.07-114.34ZM2094.46,197.35c0-42.19-19.83-70.88-54.85-70.88s-54.85,28.69-54.85,70.88,19.41,70.46,54.85,70.46,54.85-28.27,54.85-70.46Z"/>
    <path class="cls-1" d="M2162.39,88.91h29.53v-19.41c0-52.74,40.93-71.3,96.2-65.4v44.3c-27-1.27-38.82,2.11-38.82,24.47v16.03h38.82v39.66h-38.82v176.78h-57.38v-176.78h-29.53v-39.66Z"/>
    <path class="cls-1" d="M2297.4,196.93c0-64.13,43.46-113.92,106.75-113.92,69.62,0,106.75,53.16,106.75,130.37h-156.96c4.22,33.33,22.78,54.01,55.27,54.01,22.36,0,35.44-10.13,41.77-26.58h56.54c-8.02,38.39-42.19,70.88-97.89,70.88-71.73,0-112.23-50.21-112.23-114.76ZM2354.78,173.72h96.2c-1.69-27.42-19.83-46.41-45.99-46.41-30.38,0-45.15,18.14-50.21,46.41Z"/>
    <path class="cls-1" d="M2523.96,235.32h53.16c3.8,24.89,21.52,35.86,47.26,35.86s39.66-9.7,39.66-24.89c0-20.67-27.42-22.78-56.96-28.69-38.82-7.59-76.79-18.14-76.79-65.4s38.82-69.19,88.18-69.19c56.96,0,88.6,28.27,92.82,71.73h-51.9c-2.53-23.21-17.3-31.64-41.77-31.64-22.36,0-37.13,8.44-37.13,24.05,0,18.56,28.69,20.25,59.49,26.58,36.29,7.59,76.37,17.72,76.37,68.35,0,43.46-37.13,69.62-91.13,69.62-62.87,0-97.89-30.38-101.26-76.37Z"/>
    <path class="cls-1" d="M2728.59,235.32h53.16c3.8,24.89,21.52,35.86,47.26,35.86s39.66-9.7,39.66-24.89c0-20.67-27.42-22.78-56.96-28.69-38.82-7.59-76.79-18.14-76.79-65.4s38.82-69.19,88.18-69.19c56.96,0,88.6,28.27,92.82,71.73h-51.9c-2.53-23.21-17.3-31.64-41.77-31.64-22.36,0-37.13,8.44-37.13,24.05,0,18.56,28.69,20.25,59.49,26.58,36.29,7.59,76.37,17.72,76.37,68.35,0,43.46-37.13,69.62-91.13,69.62-62.87,0-97.89-30.38-101.26-76.37Z"/>
    <path class="cls-1" d="M2946.71,3.69h57.38v51.47h-57.38V3.69ZM2946.71,88.91h57.38v216.45h-57.38V88.91Z"/>
    <path class="cls-1" d="M3030.67,197.35c0-64.55,45.99-114.34,113.07-114.34s113.08,49.79,113.08,114.34-45.99,114.34-113.08,114.34-113.07-49.79-113.07-114.34ZM3198.6,197.35c0-42.19-19.83-70.88-54.85-70.88s-54.85,28.69-54.85,70.88,19.41,70.46,54.85,70.46,54.85-28.27,54.85-70.46Z"/>
    <path class="cls-1" d="M3339.51,118.45h1.27c14.77-23.21,34.6-35.44,64.13-35.44,44.72,0,74.68,33.75,74.68,81.01v141.34h-57.38v-132.91c0-23.21-13.5-39.66-37.55-39.66-25.32,0-43.88,20.25-43.88,49.79v122.78h-57.38V88.91h56.12v29.53Z"/>
    <path class="cls-1" d="M3644.56,281.31h-.84c-10.97,16.45-26.58,29.11-63.71,29.11-44.3,0-75.52-23.21-75.52-66.24,0-47.68,38.82-62.87,86.92-69.62,35.86-5.06,52.32-8.02,52.32-24.47s-12.24-25.74-36.29-25.74c-27,0-40.08,9.7-41.77,30.38h-51.05c1.69-37.97,29.96-71.3,93.24-71.3s91.13,29.11,91.13,79.74v110.12c0,16.46,2.53,26.16,7.59,29.96v2.11h-55.27c-3.38-4.22-5.48-14.35-6.75-24.05ZM3644.98,228.99v-32.49c-10.13,5.91-25.74,9.28-40.08,12.66-29.96,6.75-44.72,13.5-44.72,33.75s13.5,27.42,33.75,27.42c32.91,0,51.05-20.25,51.05-41.35Z"/>
    <path class="cls-1" d="M3736.11,3.69h57.38v301.67h-57.38V3.69Z"/>
  </g>
  <g>
    <path class="cls-1" d="M1531.21,413.43h221.93v51.47h-160.75v67.51h140.92v50.21h-140.92v81.43h162.02v51.05h-223.2v-301.67Z"/>
    <path class="cls-1" d="M1772.96,607.09c0-67.51,38.39-114.34,92.4-114.34,30.38,0,49.37,13.92,61.18,32.07h1.27v-111.39h57.38v301.67h-55.27v-28.27h-.84c-12.66,20.67-34.18,34.6-64.55,34.6-54.43,0-91.56-44.3-91.56-114.34ZM1929.07,608.35c0-41.35-13.5-69.19-50.21-69.19-31.64,0-47.68,27.85-47.68,67.93s16.46,66.24,45.99,66.24c34.18,0,51.9-25.32,51.9-64.98Z"/>
    <path class="cls-1" d="M2159.01,715.1v-25.32h-1.27c-14.77,19.83-31.64,31.22-62.02,31.22-48.1,0-75.1-30.8-75.1-78.06v-144.3h56.96v134.59c0,25.31,11.39,39.24,35.86,39.24,27,0,43.46-20.25,43.46-48.94v-124.89h57.38v216.45h-55.27Z"/>
    <path class="cls-1" d="M2240.87,607.09c0-64.55,42.19-114.34,108.01-114.34,56.12,0,90.71,32.49,98.31,79.32h-56.12c-3.8-18.99-18.56-33.33-39.66-33.33-34.6,0-52.32,26.58-52.32,68.35s16.46,68.35,51.47,68.35c23.21,0,39.66-12.24,43.46-36.71h55.27c-3.8,45.99-39.66,82.7-97.46,82.7-68.35,0-110.96-49.79-110.96-114.34Z"/>
    <path class="cls-1" d="M2607.93,691.05h-.84c-10.97,16.45-26.58,29.11-63.71,29.11-44.3,0-75.52-23.21-75.52-66.24,0-47.68,38.82-62.87,86.92-69.62,35.86-5.06,52.32-8.02,52.32-24.47s-12.24-25.74-36.29-25.74c-27,0-40.08,9.7-41.77,30.38h-51.05c1.69-37.97,29.96-71.3,93.24-71.3s91.13,29.11,91.13,79.74v110.12c0,16.46,2.53,26.16,7.59,29.96v2.11h-55.27c-3.38-4.22-5.48-14.35-6.75-24.05ZM2608.35,638.73v-32.49c-10.13,5.91-25.74,9.28-40.08,12.66-29.96,6.75-44.72,13.5-44.72,33.75s13.5,27.42,33.75,27.42c32.91,0,51.05-20.25,51.05-41.35Z"/>
    <path class="cls-1" d="M2681.76,498.65h29.96v-67.51h56.12v67.51h37.13v37.97h-37.13v114.76c0,16.03,8.86,21.52,21.52,21.52,7.17,0,16.88-.42,16.88-.42v42.19s-13.08.84-35.86.84c-27.85,0-58.65-10.97-58.65-51.9v-127h-29.96v-37.97Z"/>
    <path class="cls-1" d="M2834.49,413.43h57.38v51.47h-57.38v-51.47ZM2834.49,498.65h57.38v216.45h-57.38v-216.45Z"/>
    <path class="cls-1" d="M2918.45,607.09c0-64.55,45.99-114.34,113.07-114.34s113.08,49.79,113.08,114.34-45.99,114.34-113.08,114.34-113.07-49.79-113.07-114.34ZM3086.38,607.09c0-42.19-19.83-70.88-54.85-70.88s-54.85,28.69-54.85,70.88,19.41,70.46,54.85,70.46,54.85-28.27,54.85-70.46Z"/>
    <path class="cls-1" d="M3227.29,528.19h1.27c14.77-23.21,34.6-35.44,64.13-35.44,44.72,0,74.68,33.75,74.68,81.01v141.34h-57.38v-132.91c0-23.21-13.5-39.66-37.55-39.66-25.32,0-43.88,20.25-43.88,49.79v122.78h-57.38v-216.45h56.12v29.53Z"/>
  </g>
</svg>
