<?xml version="1.0" encoding="UTF-8"?>
<svg id="Layer_1" data-name="Layer 1" xmlns="http://www.w3.org/2000/svg" version="1.1" viewBox="0 0 4174 793.4">
  <defs>
    <style>
      .cls-1 {
        fill: #8b959e;
      }

      .cls-1, .cls-2 {
        stroke-width: 0px;
      }

      .cls-2 {
        fill: #000;
      }
    </style>
  </defs>
  <g id="Artwork">
    <g>
      <path class="cls-2" d="M720,720h160V240h-160v480ZM960,160h400V0h-400v160ZM720,0h160v160h-160V0ZM480,720h160V0h-160v720ZM240,560h160V0h-160v560ZM0,720h160V0H0v720ZM960,720h160V240h-160v480Z"/>
      <g>
        <path class="cls-1" d="M1510.1,570.6c0-89.8,56.2-156.5,144.8-156.5s144.3,66.7,144.3,156.5-55.8,156.1-144.3,156.1-144.8-66.3-144.8-156.1ZM1737.1,570.6c0-60-26.8-106.6-81.8-106.6s-83.1,46.6-83.1,106.6,28.1,106.2,83.1,106.2,81.8-46.6,81.8-106.2Z"/>
        <path class="cls-1" d="M1827.7,504.8h55v26.8h1.3c13.8-18.9,34-32.7,63.4-32.7,57.1,0,93.6,46.6,93.6,113.7s-37.8,113.7-93.2,113.7-49.9-12.2-62.1-30.6h-.8v94.8h-57.1v-285.7h0ZM1982.9,614.3c0-40.7-14.3-69.2-49.5-69.2s-49.9,30.6-49.9,69.2,18,64.6,52,64.6c29,0,47.4-23.9,47.4-64.6Z"/>
        <path class="cls-1" d="M2056.8,612.2c0-63.8,43.2-113.3,106.2-113.3s106.2,52.9,106.2,129.6h-156.1c4.2,33.2,22.7,53.7,55,53.7s35.2-10.1,41.5-26.4h56.2c-8,38.2-42,70.5-97.3,70.5s-111.6-49.9-111.6-114.1ZM2113.9,589.1h95.7c-1.7-27.3-19.7-46.2-45.7-46.2s-44.9,18-49.9,46.2Z"/>
        <path class="cls-1" d="M2351.3,534.1h1.3c14.7-23.1,34.4-35.2,63.8-35.2,44.5,0,74.3,33.6,74.3,80.6v140.6h-57.1v-132.2c0-23.1-13.4-39.4-37.3-39.4s-43.6,20.1-43.6,49.5v122.1h-57.1v-215.2h55.8v29.4h0Z"/>
        <path class="cls-1" d="M2601,420h60.8v249.2h141v50.8h-201.8v-300Z"/>
        <path class="cls-1" d="M2816.2,612.2c0-63.8,43.2-113.3,106.2-113.3s106.2,52.9,106.2,129.6h-156.1c4.2,33.2,22.7,53.7,55,53.7s35.2-10.1,41.5-26.4h56.2c-8,38.2-42,70.5-97.3,70.5s-111.6-49.9-111.6-114.1ZM2873.3,589.1h95.7c-1.7-27.3-19.7-46.2-45.7-46.2s-44.9,18-49.9,46.2Z"/>
        <path class="cls-1" d="M3183.8,696.1h-.8c-10.9,16.4-26.4,29-63.4,29s-75.1-23.1-75.1-65.9,38.6-62.5,86.4-69.2c35.7-5,52-8,52-24.3s-12.2-25.6-36.1-25.6-39.9,9.7-41.5,30.2h-50.8c1.7-37.8,29.8-70.9,92.7-70.9s90.6,28.9,90.6,79.3v109.5c0,16.4,2.5,26,7.6,29.8v2.1h-55c-3.4-4.2-5.4-14.3-6.7-23.9ZM3184.2,644.1v-32.3c-10.1,5.9-25.6,9.2-39.9,12.6-29.8,6.7-44.5,13.4-44.5,33.6s13.4,27.3,33.6,27.3c32.7,0,50.8-20.1,50.8-41.1Z"/>
        <path class="cls-1" d="M3328.9,539.2h1.3c13-24.3,27.7-36.9,52.9-36.9s10.1.4,13.4,1.7v49.9h-1.3c-37.3-3.8-64.2,15.9-64.2,61.3v104.9h-57.1v-215.2h55v34.4h0Z"/>
        <path class="cls-1" d="M3477.1,534.1h1.3c14.7-23.1,34.4-35.2,63.8-35.2,44.5,0,74.3,33.6,74.3,80.6v140.6h-57.1v-132.2c0-23.1-13.4-39.4-37.3-39.4s-43.6,20.1-43.6,49.5v122.1h-57.1v-215.2h55.8v29.4h0Z"/>
        <path class="cls-1" d="M3651.6,420h57.1v51.2h-57.1v-51.2ZM3651.6,504.8h57.1v215.2h-57.1v-215.2Z"/>
        <path class="cls-1" d="M3801.4,534.1h1.3c14.7-23.1,34.4-35.2,63.8-35.2,44.5,0,74.3,33.6,74.3,80.6v140.6h-57.1v-132.2c0-23.1-13.4-39.4-37.3-39.4s-43.6,20.1-43.6,49.5v122.1h-57.1v-215.2h55.8v29.4h0Z"/>
        <path class="cls-1" d="M3970.1,726.3h56.6c4.6,13.4,16.8,23.9,43.2,23.9s47.8-15.5,47.8-44.9v-23.5h-1.3c-12.6,14.3-28.9,25.2-56.2,25.2-47.8,0-94.8-37.8-94.8-102.8s38.6-105.3,93.1-105.3,46.6,10.5,59.6,28.5h.8v-22.7h55v198.9c0,30.2-9.6,50.8-25.6,65.5-18,16.8-45.7,24.3-77.6,24.3-58.7,0-94.8-25.2-100.7-67.1ZM4120.7,602.9c0-31.5-16.8-58.3-51.2-58.3s-48.2,22.7-48.2,58.7,19.3,57.9,48.7,57.9,50.8-26.4,50.8-58.3Z"/>
      </g>
      <g>
        <path class="cls-2" d="M1523.1,0h134.3c32.3,0,57.1,8,72.6,21.8,16.4,14.7,23.9,32.7,23.9,56.2s-18.9,50.3-47,60v1.3c33.2,9.6,55.8,37.3,55.8,74.3s-8.8,47.4-26.4,62.5c-17.2,15.1-43.6,23.9-75.5,23.9h-137.6V0h0ZM1649.8,120.8c26.4,0,44.5-12.6,44.5-36.1s-16.4-35.2-43.2-35.2h-67.1v71.3h65.9ZM1583.9,249.6h70.1c29.4,0,47-16.4,47-40.7s-21-43.2-48.7-43.2h-68.4v83.9h0Z"/>
        <path class="cls-2" d="M1787.4,192.6c0-64.2,45.7-113.7,112.4-113.7s112.4,49.5,112.4,113.7-45.7,113.7-112.4,113.7-112.4-49.5-112.4-113.7ZM1954.4,192.6c0-42-19.7-70.5-54.6-70.5s-54.6,28.5-54.6,70.5,19.3,70.1,54.6,70.1,54.6-28.1,54.6-70.1Z"/>
        <path class="cls-2" d="M2028.2,192.6c0-64.2,45.7-113.7,112.4-113.7s112.4,49.5,112.4,113.7-45.7,113.7-112.4,113.7-112.4-49.5-112.4-113.7ZM2195.2,192.6c0-42-19.7-70.5-54.6-70.5s-54.6,28.5-54.6,70.5,19.3,70.1,54.6,70.1,54.6-28.1,54.6-70.1Z"/>
        <path class="cls-2" d="M2262.8,84.8h29.8V17.6h55.8v67.1h36.9v37.8h-36.9v114.1c0,15.9,8.8,21.4,21.4,21.4s16.8-.4,16.8-.4v42s-13,.8-35.7.8-58.3-10.9-58.3-51.6v-126.3h-29.8v-37.7h0Z"/>
        <path class="cls-2" d="M2402.1,192.6c0-64.2,42-113.7,107.4-113.7s90.2,32.3,97.8,78.9h-55.8c-3.8-18.9-18.5-33.2-39.4-33.2-34.4,0-52,26.4-52,68s16.4,68,51.2,68,39.4-12.2,43.2-36.5h55c-3.8,45.7-39.4,82.2-96.9,82.2-68,0-110.4-49.5-110.4-113.7Z"/>
        <path class="cls-2" d="M2767.1,276.1h-.8c-10.9,16.4-26.4,29-63.4,29s-75.1-23.1-75.1-65.9,38.6-62.5,86.4-69.2c35.7-5,52-8,52-24.3s-12.2-25.6-36.1-25.6-39.9,9.6-41.5,30.2h-50.8c1.7-37.8,29.8-70.9,92.7-70.9s90.6,28.9,90.6,79.3v109.5c0,16.4,2.5,26,7.6,29.8v2.1h-55c-3.3-4.2-5.4-14.3-6.7-23.9ZM2767.5,224.1v-32.3c-10.1,5.9-25.6,9.2-39.9,12.6-29.8,6.7-44.5,13.4-44.5,33.6s13.4,27.3,33.6,27.3c32.7,0,50.8-20.1,50.8-41.1Z"/>
        <path class="cls-2" d="M2857.3,84.8h55v29h1.3c11.8-19.7,32.7-34.8,62.5-34.8s49.1,15.1,59.6,37.8h.8c14.7-23.5,37.3-37.8,64.6-37.8,45.3,0,70.9,29.4,70.9,76.4v144.8h-57.1v-135.1c0-24.3-12.2-36.9-33.1-36.9s-38.6,18.5-38.6,47v125h-57.1v-135.1c0-24.3-12.2-36.9-33.1-36.9s-38.6,18.5-38.6,47v125h-57.1V84.8h0Z"/>
        <path class="cls-2" d="M3207.2,84.8h55v26.8h1.3c13.9-18.9,34-32.7,63.4-32.7,57.1,0,93.6,46.6,93.6,113.7s-37.8,113.7-93.1,113.7-49.9-12.2-62.1-30.6h-.8v94.8h-57.1V84.8h0ZM3362.5,194.3c0-40.7-14.3-69.2-49.5-69.2s-49.9,30.6-49.9,69.2,18,64.6,52,64.6c28.9,0,47.4-23.9,47.4-64.6Z"/>
        <path class="cls-2" d="M3433.4,230.4h52.9c3.8,24.8,21.4,35.7,47,35.7s39.4-9.6,39.4-24.8-27.3-22.7-56.6-28.5c-38.6-7.6-76.4-18-76.4-65s38.6-68.8,87.7-68.8,88.1,28.1,92.3,71.3h-51.6c-2.5-23.1-17.2-31.5-41.5-31.5s-36.9,8.4-36.9,23.9,28.5,20.1,59.2,26.4c36.1,7.6,75.9,17.6,75.9,68s-36.9,69.2-90.6,69.2c-62.5,0-97.3-30.2-100.7-75.9Z"/>
      </g>
    </g>
  </g>
</svg>
