<?xml version="1.0" encoding="UTF-8"?>
<svg id="Layer_1" data-name="Layer 1" xmlns="http://www.w3.org/2000/svg" version="1.1" viewBox="0 0 70 40">
  <defs>
    <style>
      .cls-1 {
        fill: #b94700;
      }

      .cls-1, .cls-2, .cls-3 {
        fill-rule: evenodd;
        stroke-width: 0px;
      }

      .cls-2 {
        fill: #f0b323;
      }

      .cls-3 {
        fill: #898d8d;
      }
    </style>
  </defs>
  <g id="Page-1">
    <g id="CSAIL_Primary_Regular_RGB" data-name="CSAIL Primary Regular RGB">
      <g id="Group">
        <path id="Fill-1" class="cls-3" d="M55,1.4v15.1h5.2v9.4h5.3l4.4-19.6-14.9-4.9ZM55,40l7.8-2.2,1.8-7.9h-9.6v10ZM13.5.4h-4.1l-1.3,4.7-.3,1.5h-.1l-.3-1.5L6.1.4H2v8.5h2.5V2.9c0,0,0,0,0,0l1.7,6h2.9l1.6-6h.2v1.7c0,0,0,4.3,0,4.3h2.6V.4ZM16.2,8.9h2.9V.4h-2.9v8.5ZM21,.4h7.6v2.4h-2.3v6.1h-2.9V2.8h-2.4V.4Z"/>
        <g id="Group-6">
          <path id="Fill-2" class="cls-2" d="M35.2,21.3l.9,3.4h-2.6l.9-3.4.3-1.4h.1l.3,1.4ZM52.5,19.8h-1.8v6.8h1.8v3.3h-8.8v-3.3h1.8v-6.8h-1.8v-3.3h8.8v3.3ZM44,7.2c-4.2,0-7.7.9-9.3,2l-2.7,7.3h5.8l4.9,13.4h-5.4l-.6-2h-3.8l-.6,2h-5.3l-2.1,5.7c1.4,1.5,6.1,2.7,11.8,2.7s14.2-1.2,18.2-2.7V9.5c-1.5-1-6.1-2.2-11-2.2h0Z"/>
          <path id="Fill-4" class="cls-1" d="M15.2,29.7v-3.8c1,.4,2.5.6,4,.6s1.8-.2,1.8-.8-.4-.6-1.8-.9c-1.9-.3-4.1-.8-4.1-3.9s2-4.7,6.2-4.7,3.9.4,4.6.6v3.5c-1.4-.3-2.7-.5-4-.5s-1.5,0-1.5.7.5.7,2.2,1c2.1.4,3.8,1.1,3.8,3.8s-1.4,5-6.5,5-4.1-.3-4.8-.6h0ZM33.3,13.2L.5,11l1.3,9.5c.9-2.6,3.2-4.4,7.5-4.4s2.9.3,3.7.5v3.9c-.5-.1-1.8-.3-2.9-.3-1.9,0-3.4.7-3.4,3s1.8,3.1,3.6,3.1,1.5,0,2.6-.3v3.8c-1.3.4-2.3.5-3.8.5-3.2,0-5.2-.9-6.4-2.4l1.4,10.1,21.4-4.4,7.6-20.4Z"/>
        </g>
      </g>
    </g>
  </g>
</svg>
