<?xml version="1.0" encoding="UTF-8"?>
<svg id="Artwork" xmlns="http://www.w3.org/2000/svg" version="1.1" viewBox="0 0 2806.52 787.59">
    <defs>
        <style>
            .cls-1 {
                fill: #231f20;
                stroke-width: 0px;
            }
        </style>
    </defs>
    <path class="cls-1"
        d="M720,717.1h160V237.1h-160v480ZM960,157.1h400V-2.9h-400v160ZM720-2.9h160v160h-160V-2.9ZM480,717.1h160V-2.9h-160v720ZM240,557.1h160V-2.9h-160v560ZM0,717.1h160V-2.9H0v720ZM960,717.1h160V237.1h-160v480Z" />
    <g>
        <path class="cls-1" d="M1519.68-.04h90.62v232.4h132.67v77.61h-223.29V-.04Z" />
        <path class="cls-1"
            d="M1753.81,199.84c0-67.2,47.69-117.5,121.4-117.5s120.54,50.3,120.54,117.5-46.83,117.07-120.54,117.07-121.4-49.86-121.4-117.07ZM1912.5,199.84c0-37.29-13.01-62.44-38.16-62.44s-37.29,25.15-37.29,62.44,12.14,62.44,37.29,62.44,38.16-25.15,38.16-62.44Z" />
        <path class="cls-1"
            d="M2094.16,122.23h1.3c17.78-27.75,39.02-38.16,67.2-38.16,6.5,0,10.84.87,13.44,2.17v69.81h-1.73c-48.13-8.24-76.31,13.44-76.31,63.3v90.62h-81.95V88.84h78.04v33.39Z" />
        <path class="cls-1"
            d="M2184.35,198.97c0-66.77,48.13-117.5,117.93-117.5,34.69,0,61.13,11.27,81.51,29.92,26.88,24.71,39.46,64.17,38.59,107.96h-157.82c4.77,25.58,18.64,41.19,43.36,41.19,14.31,0,24.71-5.64,30.78-16.48h79.34c-4.77,19.94-20.38,39.46-42.06,53.33-20.38,13.01-42.49,18.64-70.67,18.64-72.41,0-120.97-49.43-120.97-117.07ZM2264.56,175.99h76.31c-3.47-24.71-17.34-39.46-36.85-39.46-22.55,0-35.12,15.17-39.46,39.46Z" />
        <path class="cls-1"
            d="M2442.75,88.84h78.04v32.95h1.3c15.61-25.58,36.85-39.89,70.24-39.89,29.48,0,51.6,14.31,62.87,38.59h1.3c19.08-29.48,43.79-38.59,72.41-38.59,54.2,0,77.61,38.16,77.61,88.88v139.18h-81.95v-124c0-22.55-7.37-37.29-28.18-37.29s-30.78,18.21-30.78,42.06v119.23h-81.95v-124c0-22.55-7.37-37.29-28.18-37.29s-30.78,18.21-30.78,42.06v119.23h-81.95V88.84Z" />
    </g>
    <g>
        <path class="cls-1" d="M1519.68,402.57h90.62v310.01h-90.62v-310.01Z" />
        <path class="cls-1"
            d="M1643.68,491.46h78.04v26.01h1.3c16.04-20.81,38.59-32.95,68.94-32.95,59.4,0,93.65,52.9,93.65,117.07,0,72.41-38.16,118.37-97.12,118.37-26.45,0-46.83-9.97-61.57-28.18h-1.3v94.09h-81.95v-294.4ZM1802.37,605.06c0-33.82-13.88-55.06-38.16-55.06s-41.62,23.41-41.62,55.06,16.48,54.63,41.62,54.63,38.16-20.81,38.16-54.63Z" />
        <path class="cls-1"
            d="M1892.99,641.04h78.48c1.3,18.21,12.57,29.05,33.39,29.05,16.04,0,28.18-5.64,28.18-19.08,0-18.21-25.58-20.38-54.2-24.71-37.29-5.64-80.21-15.61-80.21-71.11,0-45.53,46.39-70.67,100.59-70.67,67.21,0,102.32,25.15,105.36,68.51h-77.18c-2.17-16.48-14.31-19.94-27.75-19.94-12.14,0-23.41,4.77-23.41,16.04,0,12.57,20.38,15.18,45.53,18.64,40.32,5.64,91.49,14.74,91.49,76.31,0,52.9-48.13,75.88-108.83,75.88-65.47,0-111-28.18-111.43-78.91Z" />
        <path class="cls-1"
            d="M2280.17,712.58v-28.62h-1.3c-16.91,22.98-38.59,35.55-68.94,35.55-52.9,0-78.91-34.69-78.91-85.41v-142.65h81.95v123.14c0,22.98,9.97,35.12,29.48,35.12,21.25,0,33.82-15.18,33.82-39.02v-119.23h81.95v221.12h-78.04Z" />
        <path class="cls-1"
            d="M2387.69,491.46h78.04v32.95h1.3c15.61-25.58,36.85-39.89,70.24-39.89,29.48,0,51.6,14.31,62.87,38.59h1.3c19.08-29.48,43.79-38.59,72.41-38.59,54.2,0,77.61,38.16,77.61,88.88v139.18h-81.95v-124c0-22.55-7.37-37.29-28.18-37.29s-30.78,18.21-30.78,42.06v119.23h-81.95v-124c0-22.55-7.37-37.29-28.18-37.29s-30.78,18.21-30.78,42.06v119.23h-81.95v-221.12Z" />
    </g>
</svg>
