<?xml version="1.0" encoding="UTF-8" standalone="no"?>
<svg width="2028" height="1350" viewBox="0 0 2028 1350" fill="none" xmlns="http://www.w3.org/2000/svg">
<mask id="mask0_5260_57889" style="mask-type:luminance" maskUnits="userSpaceOnUse" x="0" y="-1" width="2028" height="1351">
<path d="M2028 -0.000177293L0 0L0.000118021 1350L2028 1350L2028 -0.000177293Z" fill="white"/>
</mask>
<g mask="url(#mask0_5260_57889)">
<path d="M1738.67 118.294C1731.57 88.4249 1721.77 60.4124 1711.46 30.8812C1704.03 9.61865 1696.42 -12.1501 1689.83 -34.7626L1681.04 -34.7626C1687.8 -11.1376 1695.75 11.4749 1703.35 33.5812C1713.66 62.9437 1723.29 90.7874 1730.39 120.15C1748.64 196.594 1750.33 281.137 1735.29 364.669C1719.91 449.887 1687.63 531.731 1641.5 601.425C1627.81 622.181 1613.95 642.094 1600.77 661.331C1549.39 735.581 1505.11 799.706 1482.3 882.056C1480.27 889.312 1478.24 896.737 1476.38 903.994C1453.23 989.55 1431.26 1070.38 1365.69 1146.99C1278.65 1248.41 1159.85 1314.06 1031.07 1331.78C945.723 1343.42 858.35 1338.19 771.315 1315.91C740.557 1307.98 711.32 1297.86 680.562 1287.23C659.099 1279.8 636.791 1272.04 613.976 1265.12C537.926 1242.17 469.143 1226.81 403.909 1218.04C374.841 1214.16 345.773 1211.79 317.55 1209.43C305.72 1208.42 293.552 1207.41 281.722 1206.39L271.413 1205.38C179.815 1197.11 85.1751 1188.34 -1.85995 1161.51C-13.0139 1157.96 -23.9989 1154.25 -34.4769 1150.37L-34.4769 1159.31C61.6841 1194.75 169.844 1204.71 270.737 1213.82L281.046 1214.83C292.876 1215.84 305.213 1216.86 317.043 1217.87C345.097 1220.23 374.165 1222.59 402.895 1226.48C467.622 1235.08 535.898 1250.44 611.61 1273.22C634.256 1280.14 656.564 1287.73 677.858 1295.16C708.954 1305.96 738.191 1316.08 769.287 1324.01C827.085 1338.69 884.883 1346.12 942.343 1346.12C972.594 1346.12 1002.51 1344.09 1032.25 1340.04C1163.06 1322.16 1283.72 1255.5 1372.11 1152.39C1439.03 1074.26 1461 992.587 1484.5 906.187C1486.52 898.931 1488.38 891.506 1490.41 884.25C1512.72 803.25 1556.66 739.631 1607.53 666.056C1620.88 646.819 1634.57 626.906 1648.43 606.15C1695.07 535.612 1728.02 452.587 1743.57 366.187C1758.78 281.644 1757.09 195.919 1738.67 118.294Z" fill="#F3F4F8"/>
<path d="M1707.74 78.9744C1699.8 50.6244 1688.65 23.1181 1678 -3.37563C1673.94 -13.6694 1669.72 -24.1319 1665.66 -34.5944L1658.4 -34.5944C1662.79 -23.1194 1667.35 -11.9819 1671.75 -0.84438C1682.9 26.8306 1693.38 52.9869 1701.32 80.8306C1722.45 155.587 1726.5 238.949 1712.98 322.143C1699.13 407.024 1667.35 488.362 1621.22 557.043C1608.54 575.943 1595.87 594.168 1583.53 611.549C1531.31 686.137 1486.19 750.431 1467.43 835.818C1465.23 845.943 1463.03 856.406 1460.84 866.362C1443.26 949.387 1426.53 1027.69 1365.69 1102.95C1281.87 1206.39 1164.75 1271.87 1036.14 1287.06C952.653 1297.01 864.097 1288.91 779.766 1263.6C750.698 1254.82 723.32 1244.02 694.421 1232.55C672.451 1223.94 649.805 1214.83 626.314 1206.9C553.137 1182.09 486.382 1165.89 422.162 1157.62C391.573 1153.57 360.984 1151.72 331.409 1149.86C321.776 1149.19 312.143 1148.68 302.679 1148.01C294.398 1147.5 285.948 1146.82 277.498 1146.32C173.394 1139.23 60.8401 1131.64 -34.8139 1090.97L-34.8139 1098.39C61.1781 1138.39 173.225 1145.98 276.991 1153.07C285.441 1153.57 293.891 1154.25 302.172 1154.76C311.636 1155.43 321.269 1156.11 330.902 1156.61C360.477 1158.47 390.897 1160.32 421.148 1164.37C484.861 1172.64 551.109 1188.67 623.948 1213.31C647.27 1221.24 669.916 1230.19 691.717 1238.79C720.785 1250.27 748.332 1261.24 777.569 1270.01C839.085 1288.41 902.967 1297.86 965.497 1297.86C989.495 1297.86 1013.32 1296.51 1036.65 1293.64C1166.95 1278.11 1285.58 1211.96 1370.59 1107.17C1432.44 1030.72 1449.34 951.581 1467.09 867.712C1469.29 857.756 1471.48 847.462 1473.68 837.168C1492.27 753.131 1536.89 689.343 1588.77 615.431C1601.11 597.881 1613.78 579.824 1626.46 560.756C1673.27 491.231 1705.38 409.049 1719.24 323.156C1733.43 239.118 1729.21 154.743 1707.74 78.9744Z" fill="#F3F4F8"/>
<path d="M1677.83 39.4869C1669.38 14.0056 1658.23 -10.8006 1647.41 -34.5944L1639.98 -34.5944C1651.81 -8.94438 1662.79 15.5244 1671.41 41.6806C1695.58 114.581 1701.83 196.762 1689.83 279.449C1677.49 363.824 1646.57 444.318 1600.09 512.324C1588.09 529.874 1576.26 546.581 1564.77 562.781C1511.87 637.2 1466.24 701.493 1451.54 789.581C1449.51 802.068 1447.48 814.893 1445.63 827.212C1433.29 908.043 1421.63 984.487 1365.01 1058.57C1284.4 1163.53 1169.48 1228.67 1041.04 1241.32C958.229 1249.59 870.857 1238.79 788.554 1210.27C761.007 1200.66 735.15 1189.18 707.941 1177.03C685.802 1167.07 662.987 1156.95 639.158 1147.84C569.53 1121.51 502.775 1104.13 440.921 1096.37C409.149 1092.32 377.377 1090.97 346.619 1089.79C339.014 1089.45 331.578 1089.11 324.142 1088.77C311.974 1088.27 299.806 1087.76 287.469 1087.26C178.802 1082.7 60.6706 1077.81 -34.6454 1029.71L-34.6454 1037.31C61.1776 1084.39 178.971 1089.28 287.131 1093.84C299.468 1094.34 311.805 1094.85 323.804 1095.36C331.24 1095.69 338.845 1096.03 346.281 1096.37C376.87 1097.72 408.473 1098.9 439.907 1102.95C501.423 1110.71 567.502 1127.76 636.623 1153.91C660.283 1162.86 682.929 1172.98 705.068 1182.94C731.263 1194.75 758.471 1206.73 786.356 1216.52C851.421 1238.96 919.528 1250.61 986.114 1250.61C1004.87 1250.61 1023.29 1249.76 1041.72 1247.91C1171.85 1234.91 1288.62 1168.93 1370.42 1062.11C1428.05 986.681 1440.39 905.85 1452.39 827.718C1454.24 815.4 1456.27 802.743 1458.3 790.256C1472.83 703.687 1517.96 640.068 1570.35 566.325C1581.84 550.125 1593.67 533.418 1605.67 515.868C1652.65 447.187 1683.92 365.681 1696.42 280.293C1708.76 196.593 1702.34 113.399 1677.83 39.4869Z" fill="#F3F4F8"/>
<path d="M1647.92 -0.000635376C1643.52 -11.8131 1638.29 -23.2881 1633.05 -34.5944L1625.61 -34.5944C1631.36 -22.4444 1636.93 -10.2944 1641.67 2.36186C1668.71 73.2369 1677.32 154.406 1666.68 236.756C1655.86 320.624 1625.61 400.443 1579.14 467.437C1567.81 483.806 1556.49 499.499 1545.5 514.687C1492.1 588.768 1446.13 652.556 1435.82 743.006C1434.13 757.518 1432.78 772.199 1431.43 786.374C1424.33 862.143 1417.06 940.612 1364.34 1013.68C1326.99 1065.32 1281.02 1107.51 1227.78 1138.72C1172.01 1171.46 1110.84 1190.7 1045.94 1195.93C963.807 1202.51 877.786 1189.18 797.173 1157.46C770.978 1146.99 746.473 1134.84 720.616 1121.85C698.477 1110.71 675.662 1099.41 651.833 1089.28C584.74 1060.93 520.013 1042.87 459.342 1035.62C426.725 1031.57 393.939 1031.06 362.336 1030.39C356.59 1030.22 351.013 1030.22 345.436 1030.05C330.395 1029.71 315.523 1029.54 299.806 1029.37C185.224 1027.86 59.4876 1026.17 -34.6454 966.599L-34.6454 974.699C60.3326 1032.92 185.562 1034.61 299.637 1036.12C315.354 1036.29 330.395 1036.46 345.267 1036.8C350.844 1036.97 356.59 1036.97 362.336 1037.14C393.77 1037.81 426.387 1038.32 458.666 1042.37C518.661 1049.62 582.881 1067.51 649.298 1095.52C672.958 1105.48 695.773 1116.96 717.743 1127.92C742.586 1140.41 768.273 1153.24 794.806 1163.7C862.744 1190.53 934.569 1204.37 1004.7 1204.37C1018.73 1204.37 1032.76 1203.86 1046.62 1202.68C1112.53 1197.45 1174.55 1177.87 1231.33 1144.63C1285.41 1112.91 1332.06 1070.21 1369.91 1017.73C1423.66 943.143 1431.09 863.831 1438.19 787.049C1439.54 772.874 1440.89 758.193 1442.58 743.849C1452.72 655.256 1498.35 591.974 1551.08 518.737C1562.07 503.549 1573.22 487.856 1584.71 471.487C1631.69 403.649 1662.45 322.818 1673.44 237.768C1684.08 154.068 1675.3 71.8869 1647.92 -0.000635376Z" fill="#F3F4F8"/>
<path d="M1619.02 -34.5944L1613.44 -34.5944C1642.68 33.9181 1653.33 112.893 1644.37 194.062C1635.07 277.593 1605.5 356.737 1558.86 423.056C1547.87 438.581 1537.05 453.431 1526.58 467.774C1473 541.012 1426.7 604.293 1420.95 696.599C1419.94 712.631 1419.43 728.999 1418.92 744.862C1416.39 819.618 1413.85 896.737 1364.51 969.468C1328.85 1021.95 1284.23 1064.47 1231.5 1095.69C1176.41 1128.43 1115.74 1146.99 1051.18 1151.04C969.552 1156.11 884.714 1140.07 805.791 1104.81C780.61 1093.5 756.274 1080 732.783 1066.84C710.982 1054.69 688.336 1042.03 664.507 1030.89C599.949 1000.69 537.25 981.956 478.1 975.206C451.06 972 424.02 971.493 397.656 971.493C391.403 971.493 385.15 971.493 379.066 971.493C375.01 971.493 370.954 971.493 366.898 971.493C349.829 971.493 332.591 971.831 314.339 972.168C191.814 974.193 56.276 976.556 -34.477 898.762L-34.477 905.512C57.459 981.449 192.49 979.256 314.508 977.231C332.76 976.893 349.998 976.556 367.067 976.556C371.123 976.556 375.179 976.556 379.235 976.556C411.345 976.387 444.638 976.218 477.762 980.099C536.405 986.849 598.597 1005.41 662.648 1035.45C686.308 1046.42 708.785 1059.07 730.586 1071.22C754.246 1084.39 778.582 1098.06 804.101 1109.36C874.236 1140.58 948.934 1156.95 1022.11 1156.95C1032.08 1156.95 1042.05 1156.61 1051.86 1156.11C1117.26 1152.06 1178.77 1133.32 1234.54 1100.08C1287.78 1068.36 1333.07 1025.32 1369.07 972.337C1419.09 898.424 1421.8 820.462 1424.33 745.031C1424.84 729.168 1425.35 712.799 1426.36 696.937C1431.94 606.149 1475.71 546.412 1530.97 470.812C1541.45 456.468 1552.26 441.618 1563.25 426.093C1610.4 359.099 1640.31 279.281 1649.61 194.906C1658.4 113.399 1647.92 34.2556 1619.02 -34.5944Z" fill="#F3F4F8"/>
<path d="M1605.33 -34.5944L1599.92 -34.5944C1619.86 22.6119 1627.13 86.0619 1620.88 151.368C1613.1 234.224 1584.21 312.693 1537.56 378.168C1527.08 392.681 1516.77 406.518 1506.8 419.849C1450.36 495.618 1405.74 555.356 1404.9 649.856C1404.73 667.237 1405.23 684.956 1405.57 702.168C1407.43 775.912 1409.46 852.187 1363.49 924.581C1293.69 1034.1 1181.48 1100.08 1055.74 1105.31C974.623 1108.69 891.137 1090.12 814.242 1051.48C790.075 1039.33 766.922 1024.99 744.445 1010.98C722.982 997.649 700.674 983.812 677.014 971.662C614.822 939.599 553.982 920.024 496.353 913.781C478.101 911.756 459.68 911.081 441.597 911.081C426.049 911.081 410.67 911.587 395.46 912.093L387.855 912.262C369.096 912.768 350.168 913.781 330.057 914.793C196.885 921.374 47.8271 928.631 -34.8139 819.956L-34.8139 828.224C49.8551 933.524 198.068 926.268 330.395 919.687C350.506 918.674 369.434 917.831 388.193 917.156L395.798 916.987C428.584 915.975 462.384 914.962 496.015 918.675C553.137 924.918 613.301 944.324 674.986 976.049C698.477 988.199 720.616 1001.87 742.079 1015.2C764.556 1029.21 788.047 1043.72 812.383 1055.87C884.039 1091.81 961.441 1110.54 1037.49 1110.54C1043.74 1110.54 1050.17 1110.37 1056.42 1110.21C1184.01 1104.97 1297.58 1038.15 1368.39 927.281C1415.21 853.706 1413.18 776.587 1411.15 701.999C1410.64 684.787 1410.3 667.068 1410.47 649.856C1411.32 556.874 1455.43 497.643 1511.37 422.718C1521.34 409.387 1531.65 395.549 1542.12 380.868C1589.28 314.718 1618.34 235.406 1626.29 151.537C1632.2 86.3994 1625.1 22.7806 1605.33 -34.5944Z" fill="#F3F4F8"/>
<path d="M1590.12 -34.5944L1584.88 -34.5944C1617.33 86.5681 1593.16 227.812 1516.61 333.281C1506.3 347.287 1496.33 360.618 1486.52 373.612C1429.91 448.199 1385.29 507.093 1389.35 603.449C1390.19 621.843 1391.71 640.912 1393.4 659.306C1399.66 732.374 1406.25 807.974 1363.32 880.031C1296.91 991.406 1186.72 1057.05 1060.98 1059.75C980.369 1061.61 898.235 1040.34 823.199 998.324C799.877 985.331 777.738 970.143 756.106 955.293C734.981 940.781 713.18 925.931 690.027 912.768C630.201 878.681 571.389 858.431 515.112 852.693C501.085 851.174 487.227 850.668 473.2 850.668C452.751 850.668 432.471 851.849 412.698 853.031L409.149 853.199C389.376 854.381 368.927 856.068 347.464 857.925C204.828 869.737 42.9261 883.406 -25.3499 735.75C-28.5609 728.831 -31.6029 721.912 -34.8139 714.825L-34.8139 727.312C-33.2929 730.856 -31.6029 734.4 -30.0819 737.775C1.0141 805.106 54.0801 845.437 131.989 861.3C199.758 875.137 275.132 868.725 347.971 862.649C369.434 860.793 389.714 859.106 409.656 857.925L413.205 857.756C446.329 855.899 480.636 853.874 514.774 857.418C570.206 863.156 628.342 883.237 687.661 916.987C710.645 930.149 732.446 944.999 753.402 959.343C775.034 974.193 797.342 989.381 820.833 1002.54C893.672 1043.21 973.44 1064.64 1051.86 1064.64C1054.9 1064.64 1058.11 1064.64 1061.15 1064.47C1188.58 1061.77 1300.29 995.287 1367.72 882.224C1411.49 808.649 1404.9 732.374 1398.47 658.462C1396.95 640.068 1395.26 621.168 1394.42 602.774C1390.53 508.274 1434.64 450.056 1490.58 376.143C1500.38 363.318 1510.52 349.818 1520.83 335.812C1597.89 229.837 1622.4 87.5806 1590.12 -34.5944Z" fill="#F3F4F8"/>
<path d="M1569.67 -34.5939L1566.29 -34.5939C1574.57 2.02487 1577.78 40.4999 1575.59 79.4811C1570.85 160.312 1542.8 239.625 1496.49 302.569C1486.35 316.237 1476.38 329.231 1466.75 341.719C1410.31 414.956 1365.69 473.006 1374.65 570.375C1376.51 589.781 1379.38 609.863 1382.25 629.269C1392.9 702 1403.71 777.094 1363.66 849.319C1333.58 903.319 1291.5 948.206 1241.98 978.919C1189.25 1011.66 1130.27 1028.36 1066.39 1028.53L1065.71 1028.53C985.777 1028.53 904.995 1004.74 831.987 959.513C809.51 945.506 788.047 929.475 767.429 913.95C746.811 898.425 725.686 882.394 702.871 868.219C645.411 832.275 588.796 811.35 534.209 805.95C523.224 804.769 512.239 804.431 501.254 804.431C477.594 804.431 454.103 806.456 431.288 808.481C410.67 810.338 389.376 812.869 366.899 815.569C296.426 824.006 223.756 832.781 158.86 821.138C85.0073 807.975 35.6593 769.669 7.94331 704.025C3.71831 693.9 -0.506694 683.438 -4.56269 673.313C-13.5197 650.869 -22.6457 627.919 -33.9687 605.981L-33.9687 613.406C-23.9977 633.319 -15.7167 654.075 -7.60469 674.494C-3.54869 684.619 0.507308 695.081 4.90131 705.206C33.1243 771.863 83.3173 810.844 158.353 824.344C223.756 835.988 296.764 827.213 367.406 818.775C389.883 816.075 411.177 813.544 431.795 811.688C465.257 808.819 499.733 805.613 534.209 809.156C588.289 814.556 644.397 835.313 701.35 870.919C723.996 885.094 745.121 900.956 765.739 916.481C786.526 932.175 807.989 948.206 830.635 962.213C904.15 1007.78 985.608 1031.74 1066.22 1031.74L1066.9 1031.74C1131.46 1031.57 1191.11 1014.86 1244.35 981.619C1294.54 950.4 1336.96 905.175 1367.21 850.669C1407.94 777.431 1396.95 701.663 1386.31 628.425C1383.43 609.019 1380.56 589.106 1378.7 569.7C1369.74 473.512 1414.02 416.137 1470.13 343.406C1479.76 330.919 1489.73 317.925 1499.87 304.256C1546.69 240.806 1574.91 160.819 1579.64 79.4811C1581.16 40.6686 1577.95 2.02487 1569.67 -34.5939Z" fill="#F3F4F8"/>
<path d="M1547.53 -34.5944L1544.15 -34.5944C1566.8 72.5619 1543.31 192.206 1475.37 282.993C1465.23 296.324 1455.43 308.981 1445.79 321.131C1389.18 393.187 1344.56 450.224 1358.76 549.112C1361.63 569.362 1366.03 590.287 1370.08 610.537C1384.79 682.762 1400.16 757.518 1362.82 829.912C1334.42 884.587 1293.69 929.812 1244.85 960.693C1192.97 993.431 1134.5 1009.46 1070.95 1008.28C970.566 1006.59 890.122 965.587 840.267 931.668C818.466 916.818 797.848 899.775 777.906 883.237C757.964 866.7 737.346 849.656 715.207 834.468C660.113 796.668 605.357 775.068 552.46 770.006C543.672 769.162 534.884 768.825 526.096 768.825C499.732 768.825 473.875 771.862 452.074 774.562C431.118 777.093 409.148 780.637 385.826 784.181C320.593 794.475 246.571 806.287 183.872 796.668C112.385 785.7 65.4025 748.743 40.5595 683.437C36.8415 673.481 33.1235 663.356 29.5745 653.4C16.8995 617.962 3.88654 581.175 -19.0975 549.618C-23.8295 543.206 -29.0685 536.962 -34.6455 530.887L-34.6455 535.95C-30.0825 541.012 -25.8575 546.243 -21.8015 551.643C1.01354 582.862 13.8575 619.312 26.5325 654.581C30.0815 664.537 33.6305 674.662 37.5175 684.618C62.8675 751.106 110.695 788.906 183.534 800.043C246.909 809.662 321.1 798.018 386.671 787.556C409.993 783.843 431.794 780.468 452.75 777.937C481.649 774.393 517.646 770.175 552.291 773.381C604.681 778.275 658.93 799.706 713.517 837.168C735.487 852.356 756.105 869.231 776.047 885.768C795.989 902.306 816.607 919.35 838.577 934.368C910.571 983.475 991.015 1010.31 1071.12 1011.66C1073.49 1011.66 1075.85 1011.66 1078.22 1011.66C1139.74 1011.66 1196.35 995.456 1246.88 963.562C1296.23 932.343 1337.47 886.612 1366.03 831.431C1404.05 758.025 1388.5 682.762 1373.63 609.862C1369.58 589.612 1365.18 568.687 1362.31 548.606C1348.28 451.237 1392.56 394.706 1448.67 323.324C1458.3 311.174 1468.1 298.518 1478.24 285.018C1546.35 193.556 1570.18 73.2369 1547.53 -34.5944Z" fill="#F3F4F8"/>
<path d="M1524.89 -34.5944L1523.2 -34.5944C1528.27 -8.94438 1530.46 17.7181 1529.96 44.7181C1528.44 124.706 1501.73 202.499 1455.09 263.924C1445.12 277.087 1435.15 289.406 1425.68 301.387C1369.24 372.093 1324.62 427.949 1344.06 527.681C1348.11 548.606 1353.52 569.362 1359.44 591.299C1378.36 663.356 1398.14 737.943 1363.15 810.843C1307.38 927.112 1199.9 993.599 1076.02 988.706C976.312 984.993 897.22 940.781 848.548 904.331C827.423 888.468 807.65 870.581 788.553 853.199C769.118 835.649 749.176 817.593 727.544 801.393C674.985 761.737 622.257 739.462 571.05 734.906C563.952 734.231 557.023 734.062 549.925 734.062C524.744 734.062 499.394 737.606 473.706 741.487C452.581 744.693 430.273 749.249 406.613 753.974C343.069 766.631 270.906 780.974 209.897 773.381C140.269 764.774 95.484 728.831 73.176 663.356C69.796 653.568 66.754 643.443 63.543 633.825C52.558 598.556 41.066 562.274 18.927 531.393C5.238 512.324 -12.507 495.618 -34.477 481.106L-34.477 483.131C-13.183 497.474 4.224 513.843 17.575 532.406C39.545 562.95 51.037 599.231 62.022 634.331C65.064 644.118 68.275 654.243 71.655 664.031C94.301 730.181 139.424 766.462 209.897 775.237C271.075 782.831 343.407 768.487 407.12 755.831C430.78 751.106 453.088 746.718 474.213 743.512C506.999 738.449 539.109 734.062 571.219 736.931C622.088 741.318 674.478 763.593 726.868 803.081C748.331 819.281 768.273 837.337 787.708 854.718C806.974 872.099 826.747 889.987 847.872 905.849C896.713 942.468 975.974 986.849 1076.19 990.562C1080.59 990.731 1084.81 990.899 1089.2 990.899C1208.35 990.899 1310.76 924.749 1364.84 811.856C1400 738.449 1380.22 663.693 1361.29 591.131C1355.55 569.193 1349.97 548.437 1345.92 527.512C1337.13 481.949 1340.85 442.968 1357.91 404.831C1373.46 369.899 1398.47 338.681 1427.2 302.568C1436.67 290.587 1446.64 278.268 1456.61 265.106C1503.59 203.343 1530.29 125.212 1531.98 44.8869C1532.15 17.7181 1529.79 -8.94438 1524.89 -34.5944Z" fill="#F3F4F8"/>
<path d="M1502.75 -34.5944L1500.89 -34.5944C1504.78 -13.3319 1506.8 8.43687 1506.8 30.5431C1506.8 110.024 1480.95 187.143 1433.96 247.724C1423.99 260.718 1414.02 272.699 1404.56 284.512C1345.92 356.737 1303.67 408.881 1328.17 509.793C1333.41 531.224 1340.34 552.824 1347.61 575.437C1370.76 647.324 1394.76 721.743 1362.31 794.812C1337.47 851.006 1299.1 897.074 1251.78 927.956C1202.1 960.356 1142.95 975.543 1080.75 971.662C1003.18 967.106 923.753 934.368 856.998 879.693C836.38 862.649 817.114 843.749 798.524 825.356C779.934 806.962 760.668 788.062 740.05 771.018C689.857 729.506 639.157 706.387 589.471 702.337C583.725 701.831 578.148 701.662 572.402 701.662C545.869 701.662 519.674 706.218 494.831 710.943C473.875 714.993 451.398 720.393 427.569 726.131C365.546 741.149 295.242 758.024 236.092 752.624C168.323 746.381 125.904 711.618 106.3 646.143C103.427 636.524 100.723 626.399 98.019 616.781C88.555 581.849 78.753 545.737 57.459 515.868C37.179 487.349 6.252 464.568 -34.477 447.862L-34.477 449.718C5.745 466.256 36.165 488.868 56.107 516.881C77.232 546.581 87.034 582.524 96.498 617.287C99.202 626.906 101.906 637.031 104.779 646.649C124.721 712.631 167.647 747.899 236.092 754.312C295.58 759.881 366.053 742.837 428.245 727.818C452.074 722.081 474.551 716.681 495.507 712.631C525.589 706.893 557.699 701.493 589.64 704.024C638.988 707.906 689.35 730.856 739.374 772.199C759.992 789.243 779.258 808.143 797.679 826.537C816.269 844.931 835.535 863.831 856.153 880.874C923.077 935.887 1002.85 968.624 1080.75 973.349C1087.01 973.687 1093.26 973.856 1099.34 973.856C1155.11 973.856 1207.84 958.668 1252.8 929.306C1300.45 898.256 1338.99 851.849 1364 795.318C1396.62 721.574 1372.62 646.987 1349.3 574.762C1342.03 551.981 1335.1 530.549 1329.86 509.118C1305.52 409.049 1347.61 357.243 1405.91 285.356C1415.37 273.712 1425.35 261.562 1435.32 248.568C1498.02 167.737 1520.49 62.2681 1502.75 -34.5944Z" fill="#F3F4F8"/>
<path d="M1485.17 14.6812C1484.83 -2.02509 1483.31 -18.5626 1480.61 -34.7626L1478.92 -34.7626C1481.62 -18.5626 1483.14 -2.02509 1483.48 14.6812C1485 93.4874 1459.82 169.931 1412.84 229.837C1402.87 242.494 1392.9 254.475 1383.43 265.95C1324.79 336.825 1282.54 388.125 1312.28 490.05C1318.71 512.156 1327.16 534.262 1336.11 557.55C1363.49 629.269 1391.71 703.519 1361.8 776.925C1338.65 833.794 1301.64 880.2 1254.99 911.25C1206.15 943.65 1147.68 957.994 1085.66 953.1C1008.25 946.856 930.176 911.419 865.618 853.369C845.507 835.144 826.748 815.062 808.665 795.656C790.92 776.587 772.499 756.844 752.895 738.956C704.899 695.587 656.227 671.625 608.062 668.25C603.499 667.912 599.105 667.744 594.542 667.744C566.995 667.744 539.955 673.481 516.126 678.881C495.508 683.606 473.031 690.019 449.371 696.769C362.167 721.744 263.302 749.925 198.575 712.969C169.338 696.262 150.072 668.419 139.425 627.412C136.89 617.794 134.693 607.669 132.327 598.05C124.384 563.456 116.272 527.85 95.8231 498.656C70.1351 462.038 26.1951 436.725 -34.8139 423.225L-34.8139 424.913C25.5191 438.244 68.9521 463.388 94.4711 499.5C114.751 528.525 122.863 563.963 130.806 598.388C133.003 608.006 135.369 618.131 137.904 627.75C148.551 668.587 168.662 697.781 197.899 714.319C263.133 751.612 362.505 723.262 450.047 698.287C473.707 691.537 496.184 685.125 516.802 680.4C544.349 673.987 576.459 667.406 608.231 669.769C656.058 673.312 704.392 696.937 752.05 740.137C771.654 758.025 790.075 777.6 807.82 796.669C825.903 816.244 844.662 836.325 864.942 854.55C929.669 912.769 1008.08 948.375 1085.82 954.619C1093.94 955.294 1101.88 955.631 1109.82 955.631C1163.23 955.631 1213.42 940.95 1256.35 912.6C1303.33 881.55 1340.34 834.806 1363.66 777.6C1393.74 703.519 1365.52 629.1 1338.14 556.875C1329.18 533.587 1320.9 511.481 1314.48 489.544C1284.91 388.462 1326.99 337.5 1385.29 266.962C1394.76 255.487 1404.56 243.506 1414.7 230.85C1461.51 170.775 1486.69 93.9937 1485.17 14.6812Z" fill="#F3F4F8"/>
</g>
</svg>
