<svg width="22" height="22" viewBox="0 0 22 22" fill="none" xmlns="http://www.w3.org/2000/svg">
<path d="M5.731 11.9793L2.75 18.2187L5.84375 17.875L7.5625 20.625L10.4462 14.4155" stroke="black" stroke-miterlimit="10"/>
<path d="M16.269 11.9793L19.25 18.2187L16.1562 17.875L14.4375 20.625L11.5538 14.4155" stroke="black" stroke-miterlimit="10"/>
<path d="M11 14.4375C14.797 14.4375 17.875 11.3595 17.875 7.5625C17.875 3.76554 14.797 0.6875 11 0.6875C7.20304 0.6875 4.125 3.76554 4.125 7.5625C4.125 11.3595 7.20304 14.4375 11 14.4375Z" stroke="black" stroke-miterlimit="10" stroke-linecap="square"/>
<path d="M7.5625 6.75641L9.94022 6.4295L11.0189 4.28519L12.0649 6.44566L14.4375 6.80866L12.706 8.47103L13.0938 10.8398L10.9777 9.70681L8.84469 10.8075L9.26853 8.44491L7.5625 6.75641Z" fill="black" stroke="black" stroke-miterlimit="10" stroke-linecap="square"/>
</svg>
