<svg width="22" height="22" viewBox="0 0 22 22" fill="none" xmlns="http://www.w3.org/2000/svg">
<path d="M17.5312 3.09375V0.6875H2.40625V19.25C2.40625 20.3892 3.32956 21.3125 4.46875 21.3125" stroke="black" stroke-miterlimit="10" stroke-linecap="square"/>
<path d="M5.84375 5.5H11.6875" stroke="black" stroke-miterlimit="10" stroke-linecap="square"/>
<path d="M5.84375 9.28125H11.6875" stroke="black" stroke-miterlimit="10" stroke-linecap="square"/>
<path d="M5.84375 13.0625H9.96875" stroke="black" stroke-miterlimit="10" stroke-linecap="square"/>
<path d="M19.9375 9.79137V14.7812L17.5312 13.0625L15.125 14.7812V9.79137" stroke="black" stroke-miterlimit="10"/>
<path d="M17.5312 10.6562C19.6196 10.6562 21.3125 8.96333 21.3125 6.875C21.3125 4.78667 19.6196 3.09375 17.5312 3.09375C15.4429 3.09375 13.75 4.78667 13.75 6.875C13.75 8.96333 15.4429 10.6562 17.5312 10.6562Z" stroke="black" stroke-miterlimit="10" stroke-linecap="square"/>
<path d="M17.5312 21.3125V15.4688" stroke="black" stroke-miterlimit="10" stroke-linecap="square"/>
<path d="M17.5312 21.3125L4.8125 21.3125" stroke="black" stroke-miterlimit="10" stroke-linecap="square"/>
</svg>
