<svg width="22" height="22" viewBox="0 0 22 22" fill="none"
    xmlns="http://www.w3.org/2000/svg">
    <path d="M10.6562 0.6875V8.25L8.25 6.875L5.84375 8.25V0.6875" stroke="black" stroke-miterlimit="10"/>
    <path d="M2.40625 19.5938C2.40625 20.0496 2.58733 20.4868 2.90966 20.8091C3.23199 21.1314 3.66916 21.3125 4.125 21.3125H17.875C18.3308 21.3125 18.768 21.1314 19.0903 20.8091C19.4127 20.4868 19.5938 20.0496 19.5938 19.5938V16.5" stroke="black" stroke-miterlimit="10"/>
    <path d="M17.875 0.6875H4.125C3.66916 0.6875 3.23199 0.868582 2.90966 1.19091C2.58733 1.51324 2.40625 1.95041 2.40625 2.40625V19.5938C2.40625 19.1379 2.58733 18.7007 2.90966 18.3784C3.23199 18.0561 3.66916 17.875 4.125 17.875H17.875C18.3308 17.875 18.768 17.6939 19.0903 17.3716C19.4127 17.0493 19.5938 16.6121 19.5938 16.1562V2.40625C19.5938 1.95041 19.4127 1.51324 19.0903 1.19091C18.768 0.868582 18.3308 0.6875 17.875 0.6875Z" stroke="black" stroke-miterlimit="10"/>
</svg>
