<svg width="22" height="22" viewBox="0 0 22 22" fill="none" xmlns="http://www.w3.org/2000/svg">
<path d="M14.0626 9.02092C14.2604 8.823 14.4157 8.58682 14.5192 8.32682C14.6226 8.06682 14.672 7.78846 14.6642 7.50875C14.6564 7.22903 14.5917 6.95384 14.474 6.69999C14.3563 6.44613 14.188 6.21894 13.9796 6.0323C13.7711 5.84566 13.5267 5.70349 13.2614 5.61447C12.9962 5.52545 12.7155 5.49145 12.4366 5.51456C12.1578 5.53766 11.8866 5.61738 11.6395 5.74885C11.3925 5.88031 11.1749 6.06076 11 6.27917C10.8252 6.06077 10.6076 5.8803 10.3607 5.7488C10.1138 5.6173 9.84264 5.53753 9.56384 5.51436C9.28504 5.49119 9.00445 5.5251 8.7392 5.61404C8.47395 5.70297 8.22962 5.84505 8.02114 6.0316C7.81266 6.21815 7.6444 6.44525 7.52665 6.69902C7.4089 6.95279 7.34412 7.22791 7.33629 7.50756C7.32845 7.78721 7.37772 8.06552 7.48107 8.32548C7.58442 8.58545 7.7397 8.82162 7.93741 9.01955L11 12.0835L14.0626 9.02092Z" stroke="black" stroke-miterlimit="10" stroke-linecap="square"/>
<path d="M18.3333 8.25C18.3333 13.2917 11 20.625 11 20.625C11 20.625 3.66666 13.2917 3.66666 8.25C3.65783 7.29579 3.83704 6.34918 4.19405 5.46423C4.55106 4.57928 5.07888 3.77331 5.74738 3.09234C6.41587 2.41138 7.21195 1.86875 8.09015 1.49545C8.96836 1.12215 9.91149 0.925477 10.8657 0.91667H11C11.9542 0.907842 12.9008 1.08705 13.7858 1.44406C14.6707 1.80107 15.4767 2.32889 16.1577 2.99738C16.8386 3.66588 17.3812 4.46196 17.7546 5.34016C18.1279 6.21837 18.3245 7.1615 18.3333 8.11571C18.3333 8.16063 18.3333 8.20539 18.3333 8.25Z" stroke="black" stroke-miterlimit="10" stroke-linecap="square"/>
</svg>
