<svg width="166" height="50" viewBox="0 0 166 50" fill="none" xmlns="http://www.w3.org/2000/svg">
  <g id="Artwork">
    <g id="Group">
      <path id="Vector"
        d="M49.7812 50H60.8437V16.6667H49.7812V50ZM66.375 11.1111H94.0312V0H66.375V11.1111ZM49.7812 0H60.8437V11.1111H49.7812V0ZM33.1875 50H44.25V0H33.1875V50ZM16.5937 38.8889H27.6562V0H16.5937V38.8889ZM0 50H11.0625V0H0V50ZM66.375 50H77.4375V16.6667H66.375V50Z"
        fill="black" />
      <g id="Group_2">
        <path id="Vector_2"
          d="M105.169 29.1667H111.087L114.017 39.6272C114.743 42.2494 115.323 45.2508 115.323 45.2508H115.381C115.381 45.2508 115.932 42.2494 116.657 39.6272L119.587 29.1667H125.591V50.0001H121.675V38.0535C121.675 36.3633 121.85 33.7411 121.85 33.7411H121.791C121.791 33.7411 121.328 36.189 120.892 37.7035L117.324 50.0001H113.291L109.81 37.7035C109.375 36.1883 108.911 33.7411 108.911 33.7411H108.852C108.852 33.7411 109.027 36.3633 109.027 38.0535V50.0001H105.168V29.1667H105.169Z"
          fill="black" />
        <path id="Vector_3" d="M128.812 29.1667H133.018V50.0001H128.812V29.1667Z" fill="black" />
        <path id="Vector_4" d="M135.165 29.1667H151.846V32.7216H145.609V50.0001H141.402V32.7216H135.165V29.1667Z"
          fill="black" />
        <path id="Vector_5"
          d="M155.994 42.0742L151.149 35.052H155.646L158.286 39.3353H158.344L160.839 35.052H164.929L160.316 42.0451L165.625 49.9999H160.926L158.17 45.0464H158.112L154.891 49.9999H150.568L155.994 42.0742Z"
          fill="black" />
      </g>
    </g>
  </g>
</svg>
