<?xml version="1.0" encoding="UTF-8"?>
<svg id="Layer_1" data-name="Layer 1" xmlns="http://www.w3.org/2000/svg" version="1.1" viewBox="0 0 1021.97 134.28">
  <defs>
    <style>
      .cls-1 {
        fill: #000;
        stroke-width: 0px;
      }
    </style>
  </defs>
  <path class="cls-1" d="M1021.97,16.87c-2.59-.04-5.19-.09-7.78-.11-2.07-.02-4.13,0-6.31,0v51.08h-17.13V16.76h-14.07V2.25h45.29v14.62Z"/>
  <path class="cls-1" d="M597.74,134.28c-6.28-15.2-12.56-30.4-18.88-45.71h6.88c3.99,9.88,7.99,19.77,12.09,29.93.29-.7.49-1.18.68-1.66,3.66-9.09,7.33-18.18,10.96-27.29.31-.78.66-1.11,1.54-1.08,1.87.08,3.74.02,5.78.02-.86,2.08-1.65,4.03-2.45,5.97-5.35,12.97-10.7,25.93-16.04,38.9-.12.29-.21.6-.31.9h-.24Z"/>
  <path class="cls-1" d="M51.89,66.93c-4.17,22.26-8.33,44.52-12.51,66.82H0C8.17,89.88,16.32,46.07,24.51,2.13h1.33c12.36,0,24.71.01,37.07-.03,1.02,0,1.45.35,1.82,1.24,8.54,20.49,17.12,40.98,25.68,61.46.12.29.25.58.49,1.13.32-.74.57-1.29.8-1.84,8.49-20.3,16.98-40.6,25.46-60.91.28-.68.56-1.09,1.44-1.08,12.52.04,25.03.02,37.55.03.28,0,.55.03.96.05.51,2.7,1.03,5.39,1.53,8.07,2.93,15.72,5.86,31.44,8.79,47.16.64,3.41,1.27,6.82,1.9,10.23.06.35.08.71.08,1.07,0,21.32,0,42.65,0,63.97v1.02h-27.22c-4.14-22.26-8.28-44.51-12.49-67.15-.32.68-.49,1.04-.66,1.41-9.42,21.55-18.84,43.1-28.23,64.67-.4.92-.89,1.18-1.85,1.17-5.36-.05-10.72-.06-16.08,0-1.06.01-1.51-.34-1.92-1.27-9.36-21.4-18.76-42.79-28.15-64.18-.22-.5-.46-.99-.68-1.49-.08.02-.15.03-.23.05Z"/>
  <path class="cls-1" d="M232.08,34.63h-16.28V2.22h102.21v32.44h-44.55v99.08h-41.38V34.63Z"/>
  <path class="cls-1" d="M172.92,2.21h39.35v131.49h-39.35V2.21Z"/>
  <path class="cls-1" d="M356.95,2.28h16.89c4.39,11.54,8.78,23.08,13.28,34.91.78-1.92,1.46-3.57,2.13-5.23,3.84-9.54,7.69-19.08,11.5-28.63.33-.84.75-1.1,1.65-1.1,5.23.05,10.47.02,15.85.02,4.01,21.85,8.01,43.67,12.03,65.58h-18.56c-1.81-12.44-3.62-24.93-5.43-37.42-.08-.02-.16-.04-.24-.06-5.22,12.51-10.45,25.01-15.69,37.55-2.09,0-4.13-.04-6.17.02-.81.02-.87-.52-1.07-1.02-3.72-9.33-7.45-18.66-11.17-27.99-1.13-2.84-2.27-5.68-3.66-8.51-2.04,12.48-4.08,24.96-6.12,37.46h-17.35c4.04-21.87,8.07-43.69,12.12-65.58Z"/>
  <path class="cls-1" d="M808.37,37.17c1.12-2.76,2.12-5.22,3.11-7.68,3.51-8.73,7.03-17.45,10.51-26.19.3-.76.64-1.09,1.52-1.08,5.27.05,10.55.02,15.97.02,4.01,21.85,8.01,43.68,12.02,65.59h-18.55c-1.8-12.44-3.61-24.89-5.42-37.35-.07-.03-.14-.06-.21-.1-.17.35-.35.7-.5,1.06-4.92,11.77-9.85,23.53-14.73,35.31-.37.88-.77,1.22-1.73,1.17-1.47-.09-2.96-.09-4.44,0-.93.06-1.3-.32-1.63-1.13-4.61-11.63-9.26-23.25-13.9-34.88-.2-.5-.42-.99-.88-1.47-2.03,12.44-4.06,24.89-6.11,37.39h-17.36c4.04-21.87,8.07-43.66,12.12-65.59.41,0,.79,0,1.18,0,4.84,0,9.68.02,14.51-.02.89,0,1.3.23,1.63,1.1,4.1,10.89,8.26,21.76,12.4,32.64.11.3.23.59.46,1.21Z"/>
  <path class="cls-1" d="M555.57,2.28h17.12v65.56c-.31.02-.65.06-1,.06-5,0-10-.01-14.99.02-.76,0-1.22-.22-1.69-.82-9.89-12.75-19.8-25.48-29.71-38.21-.26-.33-.53-.64-.98-1.17v40.09h-17.08V2.25c4.51,0,8.96.2,13.38-.07,2.75-.17,4.35.8,5.99,2.95,9.24,12.08,18.66,24.04,28.01,36.03.24.31.5.6.96,1.16V2.28Z"/>
  <path class="cls-1" d="M922.77,28.01v39.85h-17.09V2.3c.37-.02.71-.05,1.06-.05,5,0,10,.01,14.99-.02.76,0,1.22.23,1.69.83,9.78,12.58,19.58,25.14,29.38,37.7.36.46.72.91,1.31,1.64V2.31h17.1v65.59h-1.26c-4.88,0-9.76-.02-14.63.02-.85,0-1.36-.25-1.88-.92-9.93-12.81-19.89-25.6-29.85-38.4-.17-.22-.35-.43-.53-.64-.09.02-.19.03-.28.05Z"/>
  <path class="cls-1" d="M711.05,18.46c-5.49,2.3-10.82,4.54-16.22,6.79-.21-.43-.4-.81-.57-1.2-5.01-11.53-18.93-11.68-25.62-3.66-6.95,8.34-6.76,22.63.59,30.6,4.82,5.23,13.29,6.6,19.49,3.11,3.62-2.04,5.41-5.25,5.82-9.43h-13.83v-13.4h33.83c0,.83.03,1.69,0,2.55-.22,5.51-.65,11.01-2.78,16.19-4.6,11.19-12.88,17.8-24.88,19.58-8.35,1.24-16.44.27-23.97-3.73-9.61-5.11-14.96-13.33-16.67-23.92-1.3-8.01-.52-15.86,3.03-23.26,4.81-10.02,13-15.74,23.76-17.84,7.38-1.44,14.72-1.19,21.81,1.63,7.6,3.02,12.74,8.57,16.21,15.97Z"/>
  <path class="cls-1" d="M577.7,67.9c1.31-3.42,2.54-6.65,3.78-9.88,7.01-18.18,14.03-36.37,21.01-54.56.36-.93.77-1.25,1.78-1.24,5.4.06,10.8.03,16.2.03.4,0,.79,0,1.22,0,8.25,21.87,16.48,43.68,24.76,65.65-.95,0-1.73,0-2.52,0-4.88,0-9.76-.02-14.64.02-.85,0-1.26-.22-1.55-1.05-1.13-3.19-2.37-6.35-3.52-9.54-.24-.67-.55-.91-1.28-.91-7.2.03-14.4.03-21.59,0-.75,0-1.02.3-1.27.93-1.25,3.23-2.53,6.46-3.85,9.66-.15.37-.67.85-1.03.85-5.76.05-11.51.04-17.5.04ZM612.24,22.42c-2.42,7.15-4.74,14.02-7.06,20.9h14.07c-2.33-6.97-4.62-13.79-7.01-20.9Z"/>
  <path class="cls-1" d="M433.5,67.83c1.13-2.93,2.19-5.71,3.26-8.5,7.18-18.64,14.37-37.27,21.52-55.92.34-.88.72-1.21,1.69-1.2,5.48.06,10.96.05,16.43,0,.82,0,1.16.26,1.44,1.01,7.96,21.19,15.96,42.37,23.94,63.56.12.33.22.66.37,1.11h-9.1c-2.64,0-5.28-.06-7.92.03-.99.03-1.37-.32-1.68-1.21-1.12-3.16-2.35-6.27-3.49-9.42-.25-.68-.59-.88-1.29-.88-7.2.02-14.39.03-21.59,0-.67,0-.97.21-1.21.83-1.26,3.27-2.58,6.52-3.86,9.79-.23.58-.49.88-1.2.88-5.56-.04-11.12-.02-16.67-.02-.16,0-.31-.03-.66-.07ZM468.02,22.39c-2.43,7.19-4.75,14.06-7.08,20.95h14.06c-2.32-6.94-4.59-13.76-6.99-20.95Z"/>
  <path class="cls-1" d="M895.02,53.36v14.48h-37.28V2.33h37.29v14.39h-20.09v10.86h19.06v14.55h-19.06v11.24h20.1Z"/>
  <path class="cls-1" d="M722.6,2.3h37.28v14.42h-20.12v10.89h19.11v14.46h-19.07v11.31h20.08v14.42h-37.27V2.3Z"/>
  <path class="cls-1" d="M1021.03,133.81c-10.47-10.95-20.75-21.7-31.27-32.71v30.22h-6.3v-45.57c10.48,10.96,20.8,21.75,31.32,32.75v-29.9h6.26v45.2Z"/>
  <path class="cls-1" d="M952.19,132.24c-12.57,0-22.37-9.75-22.4-22.29-.02-12.41,10.08-22.38,22.68-22.37,12.26.01,22.3,10.11,22.27,22.41-.03,12.56-9.84,22.25-22.55,22.25ZM952.29,93.54c-9.21,0-16.23,7.08-16.22,16.39,0,8.98,7.29,16.39,16.11,16.4,8.95.01,16.26-7.33,16.28-16.35.02-9.33-6.96-16.43-16.17-16.44Z"/>
  <path class="cls-1" d="M713.26,131.62c0-14.53,0-28.72,0-42.91.06-.05.12-.14.18-.14,5.89.06,11.82-.6,17.63,1.05,10.33,2.92,16.15,11.26,15.28,21.93-.88,10.66-7.52,17.9-18.22,19.3-4.88.64-9.85.54-14.86.78ZM719.49,125.66c2.38-.18,4.61-.23,6.81-.53,3.49-.48,6.76-1.62,9.43-4.04,3.14-2.84,4.3-6.55,4.39-10.64.1-4.47-.91-8.58-4.4-11.7-2.65-2.37-5.88-3.51-9.33-3.99-2.26-.32-4.56-.4-6.9-.59v31.48Z"/>
  <path class="cls-1" d="M786.78,88.55v1.28c0,8.54.04,17.09-.01,25.63-.03,5.01-1.34,9.61-5.27,13.01-4.83,4.17-10.48,4.74-16.33,2.84-5.59-1.83-8.62-6.08-9.75-11.73-.25-1.24-.37-2.53-.37-3.8-.03-8.66-.02-17.33-.02-25.99,0-.39,0-.78,0-1.21h6.32v1.47c0,8.11-.03,16.21.02,24.32,0,1.58.19,3.19.52,4.74,1.12,5.18,4.95,7.81,10.22,7.18,4.53-.55,7.13-3.1,7.95-7.92.25-1.45.38-2.93.38-4.4.04-7.99.02-15.97.02-23.96,0-.47,0-.94,0-1.45h6.32Z"/>
  <path class="cls-1" d="M835.2,131.4c6.97-15.2,13.86-30.22,20.85-45.45,6.98,15.23,13.88,30.27,20.85,45.45-2.22,0-4.25.03-6.28-.04-.3-.01-.71-.44-.86-.77-1.37-2.92-2.72-5.86-4.02-8.81-.31-.7-.7-.91-1.44-.91-5.48.03-10.95.04-16.43,0-.88,0-1.25.33-1.58,1.07-1.25,2.85-2.58,5.66-3.83,8.5-.32.73-.7,1.01-1.52.97-1.83-.07-3.67-.02-5.74-.02ZM862.66,115.03c-2.23-5.06-4.37-9.93-6.61-15.01-2.25,5.12-4.4,10.02-6.6,15.01h13.2Z"/>
  <path class="cls-1" d="M517.32,88.56h6.21c.02.34.07.65.07.96,0,8.82.08,17.65-.02,26.47-.07,5.78-2.06,10.74-7.16,13.96-10.31,6.51-23.72-.07-24.35-12.29-.5-9.63-.1-19.31-.1-29.05h6.21v1.25c0,8.14-.04,16.29.03,24.43.01,1.74.24,3.52.66,5.2,1.26,5,4.99,7.44,10.14,6.79,4.84-.61,7.62-3.68,8.1-9.14.21-2.38.21-4.78.22-7.17.03-6.67,0-13.33,0-20v-1.41Z"/>
  <path class="cls-1" d="M351.81,94.27v10.72h16.59v5.8h-16.56v14.73h17.12v5.78h-23.42v-42.73h23.42v5.69h-17.14Z"/>
  <path class="cls-1" d="M630.57,94.32v10.64h16.56v5.84h-16.57v14.7h17.12v5.86h-23.43v-42.73h23.46v5.71h-17.13Z"/>
  <path class="cls-1" d="M376.81,88.51c2.34,0,4.5-.04,6.65.04.34.01.77.48.98.84,2.41,4.23,4.78,8.48,7.17,12.72.17.31.36.61.61,1.05,2-3.34,3.94-6.58,5.88-9.82.8-1.34,1.62-2.66,2.37-4.02.33-.6.71-.84,1.41-.82,2.02.05,4.05.02,6.29.02-1.42,2.35-2.73,4.53-4.05,6.7-2.58,4.27-5.14,8.55-7.76,12.79-.46.74-.4,1.23.01,1.93,3.91,6.68,7.79,13.38,11.67,20.08.23.4.44.81.75,1.39-2.34,0-4.48.03-6.62-.04-.31-.01-.68-.47-.88-.8-2.81-4.83-5.59-9.67-8.38-14.51-.21-.37-.44-.73-.74-1.23-.85,1.4-1.63,2.69-2.41,3.98-2.34,3.9-4.69,7.79-7,11.72-.39.67-.82.93-1.6.91-1.94-.06-3.88-.02-6.04-.02.6-1,1.09-1.81,1.57-2.62,3.76-6.26,7.5-12.53,11.3-18.76.47-.78.52-1.33.04-2.15-3.58-6.08-7.11-12.2-10.65-18.31-.16-.27-.3-.55-.57-1.05Z"/>
  <path class="cls-1" d="M679.61,88.55h23.39v5.7h-17.1v10.7h16.62v5.79h-16.62v14.76h17.12v5.82h-23.41v-42.77Z"/>
  <path class="cls-1" d="M422.92,110.78v14.72h17.12v5.84c-.19.02-.34.06-.49.06-7.6,0-15.19,0-22.88,0v-42.81h23.38v5.68h-17.1v10.69h16.61v5.82h-16.64Z"/>
  <path class="cls-1" d="M829.65,98.08c-8.61-7.55-18.69-4.79-23.45.78-5.68,6.64-5.56,16.16.36,22.6,5.03,5.47,14.87,7.6,23.1.08,0,1.83-.15,3.5.04,5.13.24,2.01-.6,2.92-2.39,3.7-13.47,5.8-28.52-2.08-31.24-16.44-2.38-12.59,6.95-24.91,19.75-26.17,4.54-.45,8.83.18,12.88,2.32.74.39,1,.86.98,1.68-.06,2.06-.02,4.12-.02,6.33Z"/>
  <path class="cls-1" d="M482.29,98.15c-4.4-3.88-9.28-5.48-14.87-4.35-3.75.75-6.78,2.76-9.14,5.74-4.99,6.28-4.8,15.5.45,21.4,3.07,3.45,6.88,5.37,11.55,5.48,4.6.1,8.45-1.69,12.01-4.96,0,2.62.04,4.95-.04,7.27-.01.32-.56.72-.94.93-8.05,4.37-18.61,3.22-25.38-2.97-7.14-6.51-9.32-14.64-6.34-23.73,2.97-9.02,9.63-14,19.07-15.2,4.4-.56,8.58.21,12.54,2.24.79.4,1.18.87,1.14,1.84-.09,2.02-.03,4.04-.03,6.32Z"/>
  <path class="cls-1" d="M557.12,94.33h-9.84v36.98h-6.3v-36.97h-9.87v-5.75h26.01v5.74Z"/>
  <path class="cls-1" d="M906.46,88.6v5.68h-9.92v37.05h-6.28v-36.99h-9.87v-5.75h26.08Z"/>
  <path class="cls-1" d="M571.46,131.37h-6.15v-42.77h6.15v42.77Z"/>
  <path class="cls-1" d="M920.67,131.34h-6.1v-42.72h6.1v42.72Z"/>
</svg>
