<svg xmlns="http://www.w3.org/2000/svg" width="210" height="40" viewBox="0 0 210 40" fill="none">
  <path
    d="M36.226 36.2996H44.2763V12.0999H36.226V36.2996ZM48.3014 8.06658H68.4269V0H48.3014V8.06658ZM36.226 0H44.2763V8.06658H36.226V0ZM24.1507 36.2996H32.2009V0H24.1507V36.2996ZM12.0753 28.233H20.1256V0H12.0753V28.233ZM0 36.2996H8.05023V0H0V36.2996ZM48.3014 36.2996H56.3516V12.0999H48.3014V36.2996Z"
    fill="black" />
  <path
    d="M75.9717 28.7686C75.9717 24.2417 78.8003 20.8779 83.2551 20.8779C87.7094 20.8779 90.5174 24.2412 90.5174 28.7686C90.5174 33.2954 87.7099 36.638 83.2551 36.638C78.8003 36.638 75.9717 33.2954 75.9717 28.7686ZM87.3929 28.7686C87.3929 25.7436 86.042 23.3952 83.2763 23.3952C80.5105 23.3952 79.0962 25.7431 79.0962 28.7686C79.0962 31.7724 80.5105 34.1207 83.2763 34.1207C86.042 34.1207 87.3929 31.7724 87.3929 28.7686Z"
    fill="#8B959E" />
  <path
    d="M91.9561 25.4463H94.7218V26.8H94.7852C95.4821 25.8482 96.4954 25.1499 97.9731 25.1499C100.844 25.1499 102.681 27.4978 102.681 30.8827C102.681 34.3942 100.781 36.6155 97.9942 36.6155C96.4742 36.6155 95.4821 36.002 94.8697 35.0713H94.8275V39.8523H91.9566V25.4463H91.9561ZM99.7673 30.9674C99.7673 28.9155 99.0493 27.4771 97.2763 27.4771C95.4816 27.4771 94.7641 29.0214 94.7641 30.9674C94.7641 32.9347 95.6717 34.2253 97.3819 34.2253C98.8385 34.2248 99.7673 33.0194 99.7673 30.9674Z"
    fill="#8B959E" />
  <path
    d="M103.482 30.8615C103.482 27.646 105.657 25.1499 108.824 25.1499C112.307 25.1499 114.165 27.8154 114.165 31.6864H106.312C106.523 33.3577 107.452 34.3942 109.077 34.3942C110.196 34.3942 110.851 33.8865 111.167 33.0617H113.996C113.595 34.9866 111.885 36.6155 109.098 36.6155C105.509 36.6155 103.482 34.0983 103.482 30.8615ZM106.354 29.6979H111.167C111.083 28.3231 110.175 27.3712 108.867 27.3712C107.346 27.3712 106.607 28.2807 106.354 29.6979Z"
    fill="#8B959E" />
  <path
    d="M118.302 26.928H118.366C119.105 25.7644 120.097 25.1509 121.575 25.1509C123.813 25.1509 125.311 26.8433 125.311 29.2124V36.2989H122.44V29.6354C122.44 28.4718 121.765 27.647 120.562 27.647C119.295 27.647 118.366 28.6624 118.366 30.1431V36.2989H115.495V25.4473H118.303V26.928H118.302Z"
    fill="#8B959E" />
  <path d="M130.859 21.1753H133.92V33.7405H141.014V36.3001H130.859V21.1753Z" fill="#8B959E" />
  <path
    d="M141.689 30.8615C141.689 27.646 143.864 25.1499 147.031 25.1499C150.514 25.1499 152.372 27.8154 152.372 31.6864H144.519C144.73 33.3577 145.659 34.3942 147.284 34.3942C148.403 34.3942 149.058 33.8865 149.374 33.0617H152.203C151.802 34.9866 150.092 36.6155 147.306 36.6155C143.716 36.6155 141.689 34.0983 141.689 30.8615ZM144.56 29.6979H149.374C149.289 28.3231 148.382 27.3712 147.073 27.3712C145.553 27.3712 144.814 28.2807 144.56 29.6979Z"
    fill="#8B959E" />
  <path
    d="M160.184 35.0933H160.142C159.593 35.9181 158.812 36.5528 156.954 36.5528C154.737 36.5528 153.175 35.3892 153.175 33.2314C153.175 30.8412 155.117 30.0794 157.524 29.7411C159.318 29.487 160.142 29.3393 160.142 28.514C160.142 27.7315 159.529 27.2238 158.326 27.2238C156.976 27.2238 156.321 27.7103 156.236 28.7469H153.682C153.767 26.8432 155.181 25.1719 158.348 25.1719C161.599 25.1719 162.908 26.6314 162.908 29.1699V34.6909C162.908 35.5158 163.034 36.0023 163.287 36.1928V36.2987H160.522C160.353 36.0875 160.247 35.5798 160.184 35.0933ZM160.205 32.4701V30.8412C159.699 31.1376 158.918 31.3065 158.2 31.4759C156.701 31.8142 155.962 32.153 155.962 33.1684C155.962 34.1838 156.637 34.5432 157.651 34.5432C159.297 34.5432 160.205 33.5278 160.205 32.4701Z"
    fill="#8B959E" />
  <path
    d="M167.492 27.1822H167.555C168.21 25.955 168.948 25.3208 170.215 25.3208C170.532 25.3208 170.722 25.342 170.891 25.4055V27.9228H170.828C168.949 27.7322 167.597 28.7264 167.597 31.0113V36.2994H164.727V25.4479H167.492V27.1822H167.492Z"
    fill="#8B959E" />
  <path
    d="M174.939 26.9271H175.002C175.741 25.7635 176.734 25.1499 178.211 25.1499C180.449 25.1499 181.948 26.8424 181.948 29.2114V36.2979H179.077V29.6344C179.077 28.4708 178.401 27.646 177.198 27.646C175.932 27.646 175.003 28.6614 175.003 30.1421V36.2979H172.132V25.4463H174.939V26.9271H174.939Z"
    fill="#8B959E" />
  <path d="M183.724 21.1746H186.595V23.7554H183.724V21.1746ZM183.724 25.4478H186.595V36.2994H183.724V25.4478Z"
    fill="#8B959E" />
  <path
    d="M191.258 26.9271H191.322C192.061 25.7635 193.053 25.1499 194.531 25.1499C196.769 25.1499 198.267 26.8424 198.267 29.2114V36.2979H195.396V29.6344C195.396 28.4708 194.721 27.646 193.518 27.646C192.251 27.646 191.322 28.6614 191.322 30.1421V36.2979H188.451V25.4463H191.259V26.9271H191.258Z"
    fill="#8B959E" />
  <path
    d="M199.747 36.616H202.597C202.829 37.2931 203.441 37.822 204.771 37.822C206.397 37.822 207.178 37.0395 207.178 35.5583V34.3735H207.115C206.481 35.093 205.658 35.6425 204.286 35.6425C201.879 35.6425 199.515 33.7388 199.515 30.4597C199.515 27.223 201.457 25.1499 204.201 25.1499C205.552 25.1499 206.545 25.6788 207.199 26.5883H207.241V25.4458H210.007V35.4726C210.007 36.9957 209.522 38.0322 208.72 38.7729C207.812 39.6188 206.418 40 204.814 40C201.858 40.0005 200.042 38.7315 199.747 36.616ZM207.326 30.3967C207.326 28.8101 206.482 27.4564 204.75 27.4564C203.294 27.4564 202.323 28.5989 202.323 30.4179C202.323 32.2581 203.294 33.337 204.771 33.337C206.587 33.337 207.326 32.0045 207.326 30.3967Z"
    fill="#8B959E" />
  <path
    d="M76.6309 0H83.3865C85.0122 0 86.2574 0.401817 87.0388 1.10008C87.8619 1.84069 88.2423 2.7502 88.2423 3.93448C88.2423 5.47872 87.2924 6.47293 85.8781 6.95945V7.02297C87.546 7.50949 88.6856 8.90551 88.6856 10.7674C88.6856 12.1846 88.2423 13.1576 87.3558 13.9194C86.4904 14.6812 85.1601 15.1254 83.5556 15.1254H76.6314V0H76.6309ZM83.0061 6.09229C84.3359 6.09229 85.2441 5.45755 85.2441 4.27327C85.2441 3.15202 84.421 2.4961 83.0695 2.4961H79.692V6.09229H83.0061ZM79.692 12.5864H83.2175C84.6952 12.5864 85.5817 11.7616 85.5817 10.5345C85.5817 9.09608 84.5261 8.35547 83.1329 8.35547H79.692V12.5864Z"
    fill="black" />
  <path
    d="M89.9287 9.70914C89.9287 6.47242 92.2296 3.97632 95.5865 3.97632C98.943 3.97632 101.244 6.47242 101.244 9.70914C101.244 12.9459 98.9435 15.442 95.5865 15.442C92.2296 15.442 89.9287 12.9459 89.9287 9.70914ZM98.3306 9.70914C98.3306 7.59368 97.3384 6.1553 95.586 6.1553C93.8124 6.1553 92.8414 7.59368 92.8414 9.70914C92.8414 11.8246 93.8124 13.2418 95.586 13.2418C97.3384 13.2418 98.3306 11.8246 98.3306 9.70914Z"
    fill="black" />
  <path
    d="M102.046 9.70914C102.046 6.47242 104.347 3.97632 107.704 3.97632C111.06 3.97632 113.361 6.47242 113.361 9.70914C113.361 12.9459 111.061 15.442 107.704 15.442C104.347 15.442 102.046 12.9459 102.046 9.70914ZM110.448 9.70914C110.448 7.59368 109.456 6.1553 107.704 6.1553C105.93 6.1553 104.959 7.59368 104.959 9.70914C104.959 11.8246 105.93 13.2418 107.704 13.2418C109.456 13.2418 110.448 11.8246 110.448 9.70914Z"
    fill="black" />
  <path
    d="M113.847 4.27288H115.346V0.887939H118.154V4.27238H120.011V6.17609H118.154V11.9301C118.154 12.7337 118.597 13.009 119.23 13.009C119.589 13.009 120.075 12.9878 120.075 12.9878V15.1033C120.075 15.1033 119.42 15.1456 118.28 15.1456C116.887 15.1456 115.346 14.5956 115.346 12.5436V6.17609H113.847V4.27288H113.847Z"
    fill="black" />
  <path
    d="M120.856 9.70914C120.856 6.47242 122.968 3.97632 126.261 3.97632C129.069 3.97632 130.799 5.60526 131.179 7.95314H128.372C128.182 7.00129 127.443 6.28185 126.387 6.28185C124.656 6.28185 123.77 7.61435 123.77 9.70863C123.77 11.7606 124.593 13.1354 126.345 13.1354C127.506 13.1354 128.33 12.5219 128.52 11.2952H131.286C131.095 13.6008 129.301 15.4415 126.409 15.4415C122.989 15.442 120.856 12.9459 120.856 9.70914Z"
    fill="black" />
  <path
    d="M139.223 13.9197H139.181C138.632 14.7445 137.851 15.3792 135.993 15.3792C133.776 15.3792 132.214 14.2156 132.214 12.0578C132.214 9.66759 134.156 8.9058 136.563 8.56751C138.357 8.31341 139.181 8.16569 139.181 7.34038C139.181 6.55792 138.569 6.05023 137.366 6.05023C136.015 6.05023 135.36 6.53674 135.275 7.5733H132.721C132.806 5.66959 134.22 3.99829 137.387 3.99829C140.638 3.99829 141.947 5.45784 141.947 7.99629V13.5174C141.947 14.3422 142.073 14.8287 142.326 15.0193V15.1251H139.561C139.392 14.9139 139.286 14.4062 139.223 13.9197ZM139.244 11.2965V9.66759C138.738 9.96403 137.957 10.1329 137.239 10.3023C135.74 10.6406 135.001 10.9794 135.001 11.9948C135.001 13.0102 135.676 13.3696 136.69 13.3696C138.337 13.3696 139.244 12.3543 139.244 11.2965Z"
    fill="black" />
  <path
    d="M143.762 4.27277H146.527V5.73231H146.591C147.182 4.73811 148.238 3.97632 149.736 3.97632C151.109 3.97632 152.206 4.73811 152.734 5.88003H152.776C153.516 4.69525 154.655 3.97632 156.028 3.97632C158.308 3.97632 159.596 5.45704 159.596 7.8261V15.1243H156.725V8.31312C156.725 7.08599 156.112 6.45175 155.057 6.45175C153.853 6.45175 153.115 7.38243 153.115 8.82081V15.1243H150.244V8.31312C150.244 7.08599 149.631 6.45175 148.576 6.45175C147.415 6.45175 146.634 7.38243 146.634 8.82081V15.1243H143.763V4.27277H143.762Z"
    fill="black" />
  <path
    d="M161.368 4.27277H164.134V5.62644H164.197C164.894 4.67458 165.907 3.97632 167.385 3.97632C170.256 3.97632 172.093 6.3242 172.093 9.70914C172.093 13.2206 170.193 15.442 167.406 15.442C165.886 15.442 164.894 14.8284 164.282 13.8977H164.24V18.6787H161.369V4.27277H161.368ZM169.179 9.79384C169.179 7.7419 168.461 6.30353 166.688 6.30353C164.894 6.30353 164.176 7.84777 164.176 9.79384C164.176 11.7611 165.084 13.0517 166.794 13.0517C168.251 13.0512 169.179 11.8458 169.179 9.79384Z"
    fill="black" />
  <path
    d="M172.745 11.6129H175.405C175.595 12.8612 176.482 13.4112 177.769 13.4112C179.036 13.4112 179.754 12.9247 179.754 12.1629C179.754 11.1263 178.382 11.0205 176.904 10.7245C174.962 10.3439 173.062 9.81501 173.062 7.44545C173.062 5.09757 175.004 3.97632 177.474 3.97632C180.324 3.97632 181.907 5.39352 182.119 7.5725H179.522C179.395 6.4089 178.657 5.98591 177.432 5.98591C176.313 5.98591 175.574 6.4089 175.574 7.19186C175.574 8.12254 177.01 8.20724 178.551 8.52436C180.366 8.905 182.372 9.41269 182.372 11.9511C182.372 14.1301 180.515 15.4415 177.812 15.4415C174.667 15.442 172.914 13.9189 172.745 11.6129Z"
    fill="black" />
</svg>
